solid Body_Default_sldprt
   facet normal -1.000000e+000 0.000000e+000 1.914178e-016
      outer loop
         vertex -7.000000e+001 2.500000e+000 1.450000e+002
         vertex -7.000000e+001 2.500000e+000 -1.450000e+002
         vertex -7.000000e+001 -2.500000e+000 1.450000e+002
      endloop
   endfacet
   facet normal -1.000000e+000 0.000000e+000 1.914178e-016
      outer loop
         vertex -7.000000e+001 -2.500000e+000 1.450000e+002
         vertex -7.000000e+001 2.500000e+000 -1.450000e+002
         vertex -7.000000e+001 -2.500000e+000 -1.450000e+002
      endloop
   endfacet
   facet normal 0.000000e+000 0.000000e+000 1.000000e+000
      outer loop
         vertex 7.000000e+001 2.500000e+000 1.450000e+002
         vertex -7.000000e+001 2.500000e+000 1.450000e+002
         vertex 7.000000e+001 -2.500000e+000 1.450000e+002
      endloop
   endfacet
   facet normal 0.000000e+000 0.000000e+000 1.000000e+000
      outer loop
         vertex 7.000000e+001 -2.500000e+000 1.450000e+002
         vertex -7.000000e+001 2.500000e+000 1.450000e+002
         vertex -7.000000e+001 -2.500000e+000 1.450000e+002
      endloop
   endfacet
   facet normal 1.000000e+000 0.000000e+000 -1.435633e-016
      outer loop
         vertex 7.000000e+001 2.500000e+000 -1.450000e+002
         vertex 7.000000e+001 2.500000e+000 1.450000e+002
         vertex 7.000000e+001 -2.500000e+000 -1.450000e+002
      endloop
   endfacet
   facet normal 1.000000e+000 0.000000e+000 -1.435633e-016
      outer loop
         vertex 7.000000e+001 -2.500000e+000 -1.450000e+002
         vertex 7.000000e+001 2.500000e+000 1.450000e+002
         vertex 7.000000e+001 -2.500000e+000 1.450000e+002
      endloop
   endfacet
   facet normal 0.000000e+000 0.000000e+000 -1.000000e+000
      outer loop
         vertex -7.000000e+001 2.500000e+000 -1.450000e+002
         vertex 7.000000e+001 2.500000e+000 -1.450000e+002
         vertex -7.000000e+001 -2.500000e+000 -1.450000e+002
      endloop
   endfacet
   facet normal 0.000000e+000 0.000000e+000 -1.000000e+000
      outer loop
         vertex -7.000000e+001 -2.500000e+000 -1.450000e+002
         vertex 7.000000e+001 2.500000e+000 -1.450000e+002
         vertex 7.000000e+001 -2.500000e+000 -1.450000e+002
      endloop
   endfacet
   facet normal 0.000000e+000 1.000000e+000 0.000000e+000
      outer loop
         vertex -2.000000e+001 2.500000e+000 1.350000e+002
         vertex -6.000000e+001 2.500000e+000 1.350000e+002
         vertex -7.000000e+001 2.500000e+000 1.450000e+002
      endloop
   endfacet
   facet normal 0.000000e+000 1.000000e+000 0.000000e+000
      outer loop
         vertex -7.000000e+001 2.500000e+000 1.450000e+002
         vertex -6.000000e+001 2.500000e+000 1.350000e+002
         vertex -6.000000e+001 2.500000e+000 1.150000e+002
      endloop
   endfacet
   facet normal 0.000000e+000 1.000000e+000 0.000000e+000
      outer loop
         vertex 2.000000e+001 2.500000e+000 -1.150000e+002
         vertex -6.000000e+001 2.500000e+000 1.150000e+002
         vertex 6.000000e+001 2.500000e+000 -1.150000e+002
      endloop
   endfacet
   facet normal 0.000000e+000 1.000000e+000 0.000000e+000
      outer loop
         vertex 6.000000e+001 2.500000e+000 -1.150000e+002
         vertex -6.000000e+001 2.500000e+000 1.150000e+002
         vertex -2.000000e+001 2.500000e+000 1.150000e+002
      endloop
   endfacet
   facet normal 0.000000e+000 1.000000e+000 0.000000e+000
      outer loop
         vertex -6.000000e+001 2.500000e+000 -1.150000e+002
         vertex -6.000000e+001 2.500000e+000 -1.350000e+002
         vertex -7.000000e+001 2.500000e+000 -1.450000e+002
      endloop
   endfacet
   facet normal 0.000000e+000 1.000000e+000 0.000000e+000
      outer loop
         vertex -7.000000e+001 2.500000e+000 -1.450000e+002
         vertex -6.000000e+001 2.500000e+000 -1.350000e+002
         vertex -2.000000e+001 2.500000e+000 -1.350000e+002
      endloop
   endfacet
   facet normal 0.000000e+000 1.000000e+000 0.000000e+000
      outer loop
         vertex -7.000000e+001 2.500000e+000 -1.450000e+002
         vertex -2.000000e+001 2.500000e+000 -1.350000e+002
         vertex 7.000000e+001 2.500000e+000 -1.450000e+002
      endloop
   endfacet
   facet normal 0.000000e+000 1.000000e+000 0.000000e+000
      outer loop
         vertex 6.000000e+001 2.500000e+000 1.150000e+002
         vertex 6.000000e+001 2.500000e+000 1.350000e+002
         vertex 7.000000e+001 2.500000e+000 1.450000e+002
      endloop
   endfacet
   facet normal 0.000000e+000 1.000000e+000 0.000000e+000
      outer loop
         vertex 7.000000e+001 2.500000e+000 1.450000e+002
         vertex 6.000000e+001 2.500000e+000 1.350000e+002
         vertex 2.000000e+001 2.500000e+000 1.350000e+002
      endloop
   endfacet
   facet normal 0.000000e+000 1.000000e+000 0.000000e+000
      outer loop
         vertex -7.000000e+001 2.500000e+000 -1.450000e+002
         vertex -7.000000e+001 2.500000e+000 1.450000e+002
         vertex -6.000000e+001 2.500000e+000 -1.150000e+002
      endloop
   endfacet
   facet normal 0.000000e+000 1.000000e+000 0.000000e+000
      outer loop
         vertex -6.000000e+001 2.500000e+000 -1.150000e+002
         vertex -7.000000e+001 2.500000e+000 1.450000e+002
         vertex -6.000000e+001 2.500000e+000 1.150000e+002
      endloop
   endfacet
   facet normal 0.000000e+000 1.000000e+000 0.000000e+000
      outer loop
         vertex -6.000000e+001 2.500000e+000 -1.150000e+002
         vertex -6.000000e+001 2.500000e+000 1.150000e+002
         vertex -2.000000e+001 2.500000e+000 -1.150000e+002
      endloop
   endfacet
   facet normal 0.000000e+000 1.000000e+000 0.000000e+000
      outer loop
         vertex -2.000000e+001 2.500000e+000 -1.150000e+002
         vertex -6.000000e+001 2.500000e+000 1.150000e+002
         vertex 2.000000e+001 2.500000e+000 -1.150000e+002
      endloop
   endfacet
   facet normal 0.000000e+000 1.000000e+000 0.000000e+000
      outer loop
         vertex -2.000000e+001 2.500000e+000 -1.150000e+002
         vertex 2.000000e+001 2.500000e+000 -1.150000e+002
         vertex -2.000000e+001 2.500000e+000 -1.350000e+002
      endloop
   endfacet
   facet normal 0.000000e+000 1.000000e+000 0.000000e+000
      outer loop
         vertex -2.000000e+001 2.500000e+000 -1.350000e+002
         vertex 2.000000e+001 2.500000e+000 -1.150000e+002
         vertex 2.000000e+001 2.500000e+000 -1.350000e+002
      endloop
   endfacet
   facet normal 0.000000e+000 1.000000e+000 0.000000e+000
      outer loop
         vertex -2.000000e+001 2.500000e+000 -1.350000e+002
         vertex 2.000000e+001 2.500000e+000 -1.350000e+002
         vertex 7.000000e+001 2.500000e+000 -1.450000e+002
      endloop
   endfacet
   facet normal 0.000000e+000 1.000000e+000 0.000000e+000
      outer loop
         vertex 7.000000e+001 2.500000e+000 -1.450000e+002
         vertex 2.000000e+001 2.500000e+000 -1.350000e+002
         vertex 6.000000e+001 2.500000e+000 -1.350000e+002
      endloop
   endfacet
   facet normal 0.000000e+000 1.000000e+000 0.000000e+000
      outer loop
         vertex 7.000000e+001 2.500000e+000 -1.450000e+002
         vertex 6.000000e+001 2.500000e+000 -1.350000e+002
         vertex 6.000000e+001 2.500000e+000 -1.150000e+002
      endloop
   endfacet
   facet normal 0.000000e+000 1.000000e+000 0.000000e+000
      outer loop
         vertex 7.000000e+001 2.500000e+000 1.450000e+002
         vertex 7.000000e+001 2.500000e+000 -1.450000e+002
         vertex 6.000000e+001 2.500000e+000 1.150000e+002
      endloop
   endfacet
   facet normal 0.000000e+000 1.000000e+000 0.000000e+000
      outer loop
         vertex 6.000000e+001 2.500000e+000 1.150000e+002
         vertex 7.000000e+001 2.500000e+000 -1.450000e+002
         vertex 6.000000e+001 2.500000e+000 -1.150000e+002
      endloop
   endfacet
   facet normal 0.000000e+000 1.000000e+000 0.000000e+000
      outer loop
         vertex 6.000000e+001 2.500000e+000 1.150000e+002
         vertex 6.000000e+001 2.500000e+000 -1.150000e+002
         vertex 2.000000e+001 2.500000e+000 1.150000e+002
      endloop
   endfacet
   facet normal 0.000000e+000 1.000000e+000 0.000000e+000
      outer loop
         vertex 2.000000e+001 2.500000e+000 1.150000e+002
         vertex 6.000000e+001 2.500000e+000 -1.150000e+002
         vertex -2.000000e+001 2.500000e+000 1.150000e+002
      endloop
   endfacet
   facet normal 0.000000e+000 1.000000e+000 0.000000e+000
      outer loop
         vertex 2.000000e+001 2.500000e+000 1.150000e+002
         vertex -2.000000e+001 2.500000e+000 1.150000e+002
         vertex 2.000000e+001 2.500000e+000 1.350000e+002
      endloop
   endfacet
   facet normal 0.000000e+000 1.000000e+000 0.000000e+000
      outer loop
         vertex 2.000000e+001 2.500000e+000 1.350000e+002
         vertex -2.000000e+001 2.500000e+000 1.150000e+002
         vertex -2.000000e+001 2.500000e+000 1.350000e+002
      endloop
   endfacet
   facet normal 0.000000e+000 1.000000e+000 0.000000e+000
      outer loop
         vertex 2.000000e+001 2.500000e+000 1.350000e+002
         vertex -2.000000e+001 2.500000e+000 1.350000e+002
         vertex 7.000000e+001 2.500000e+000 1.450000e+002
      endloop
   endfacet
   facet normal 0.000000e+000 1.000000e+000 0.000000e+000
      outer loop
         vertex 7.000000e+001 2.500000e+000 1.450000e+002
         vertex -2.000000e+001 2.500000e+000 1.350000e+002
         vertex -7.000000e+001 2.500000e+000 1.450000e+002
      endloop
   endfacet
   facet normal 0.000000e+000 -1.000000e+000 0.000000e+000
      outer loop
         vertex -6.000000e+001 -2.500000e+000 -1.150000e+002
         vertex -7.000000e+001 -2.500000e+000 1.450000e+002
         vertex -7.000000e+001 -2.500000e+000 -1.450000e+002
      endloop
   endfacet
   facet normal 0.000000e+000 -1.000000e+000 0.000000e+000
      outer loop
         vertex -7.000000e+001 -2.500000e+000 -1.450000e+002
         vertex 7.000000e+001 -2.500000e+000 -1.450000e+002
         vertex 2.000000e+001 -2.500000e+000 -1.350000e+002
      endloop
   endfacet
   facet normal 0.000000e+000 -1.000000e+000 0.000000e+000
      outer loop
         vertex 2.000000e+001 -2.500000e+000 -1.350000e+002
         vertex 7.000000e+001 -2.500000e+000 -1.450000e+002
         vertex 6.000000e+001 -2.500000e+000 -1.350000e+002
      endloop
   endfacet
   facet normal 0.000000e+000 -1.000000e+000 0.000000e+000
      outer loop
         vertex -6.000000e+001 -2.500000e+000 -1.150000e+002
         vertex -2.000000e+001 -2.500000e+000 -1.150000e+002
         vertex -6.000000e+001 -2.500000e+000 1.150000e+002
      endloop
   endfacet
   facet normal 0.000000e+000 -1.000000e+000 0.000000e+000
      outer loop
         vertex -2.000000e+001 -2.500000e+000 1.350000e+002
         vertex 7.000000e+001 -2.500000e+000 1.450000e+002
         vertex -7.000000e+001 -2.500000e+000 1.450000e+002
      endloop
   endfacet
   facet normal 0.000000e+000 -1.000000e+000 0.000000e+000
      outer loop
         vertex 7.000000e+001 -2.500000e+000 -1.450000e+002
         vertex 7.000000e+001 -2.500000e+000 1.450000e+002
         vertex 6.000000e+001 -2.500000e+000 1.150000e+002
      endloop
   endfacet
   facet normal 0.000000e+000 -1.000000e+000 0.000000e+000
      outer loop
         vertex 6.000000e+001 -2.500000e+000 1.150000e+002
         vertex 7.000000e+001 -2.500000e+000 1.450000e+002
         vertex 6.000000e+001 -2.500000e+000 1.350000e+002
      endloop
   endfacet
   facet normal 0.000000e+000 -1.000000e+000 0.000000e+000
      outer loop
         vertex -6.000000e+001 -2.500000e+000 -1.150000e+002
         vertex -6.000000e+001 -2.500000e+000 1.150000e+002
         vertex -7.000000e+001 -2.500000e+000 1.450000e+002
      endloop
   endfacet
   facet normal 0.000000e+000 -1.000000e+000 0.000000e+000
      outer loop
         vertex -7.000000e+001 -2.500000e+000 1.450000e+002
         vertex -6.000000e+001 -2.500000e+000 1.150000e+002
         vertex -6.000000e+001 -2.500000e+000 1.350000e+002
      endloop
   endfacet
   facet normal 0.000000e+000 -1.000000e+000 0.000000e+000
      outer loop
         vertex -7.000000e+001 -2.500000e+000 1.450000e+002
         vertex -6.000000e+001 -2.500000e+000 1.350000e+002
         vertex -2.000000e+001 -2.500000e+000 1.350000e+002
      endloop
   endfacet
   facet normal 0.000000e+000 -1.000000e+000 0.000000e+000
      outer loop
         vertex 6.000000e+001 -2.500000e+000 -1.350000e+002
         vertex 7.000000e+001 -2.500000e+000 -1.450000e+002
         vertex 6.000000e+001 -2.500000e+000 -1.150000e+002
      endloop
   endfacet
   facet normal 0.000000e+000 -1.000000e+000 0.000000e+000
      outer loop
         vertex 6.000000e+001 -2.500000e+000 -1.150000e+002
         vertex 7.000000e+001 -2.500000e+000 -1.450000e+002
         vertex 6.000000e+001 -2.500000e+000 1.150000e+002
      endloop
   endfacet
   facet normal 0.000000e+000 -1.000000e+000 0.000000e+000
      outer loop
         vertex 6.000000e+001 -2.500000e+000 -1.150000e+002
         vertex 6.000000e+001 -2.500000e+000 1.150000e+002
         vertex 2.000000e+001 -2.500000e+000 1.150000e+002
      endloop
   endfacet
   facet normal 0.000000e+000 -1.000000e+000 0.000000e+000
      outer loop
         vertex 6.000000e+001 -2.500000e+000 1.350000e+002
         vertex 7.000000e+001 -2.500000e+000 1.450000e+002
         vertex 2.000000e+001 -2.500000e+000 1.350000e+002
      endloop
   endfacet
   facet normal 0.000000e+000 -1.000000e+000 0.000000e+000
      outer loop
         vertex 2.000000e+001 -2.500000e+000 1.350000e+002
         vertex 7.000000e+001 -2.500000e+000 1.450000e+002
         vertex -2.000000e+001 -2.500000e+000 1.350000e+002
      endloop
   endfacet
   facet normal 0.000000e+000 -1.000000e+000 0.000000e+000
      outer loop
         vertex 2.000000e+001 -2.500000e+000 1.350000e+002
         vertex -2.000000e+001 -2.500000e+000 1.350000e+002
         vertex 2.000000e+001 -2.500000e+000 1.150000e+002
      endloop
   endfacet
   facet normal 0.000000e+000 -1.000000e+000 0.000000e+000
      outer loop
         vertex 2.000000e+001 -2.500000e+000 1.150000e+002
         vertex -2.000000e+001 -2.500000e+000 1.350000e+002
         vertex -2.000000e+001 -2.500000e+000 1.150000e+002
      endloop
   endfacet
   facet normal 0.000000e+000 -1.000000e+000 0.000000e+000
      outer loop
         vertex 2.000000e+001 -2.500000e+000 1.150000e+002
         vertex -2.000000e+001 -2.500000e+000 1.150000e+002
         vertex 6.000000e+001 -2.500000e+000 -1.150000e+002
      endloop
   endfacet
   facet normal 0.000000e+000 -1.000000e+000 0.000000e+000
      outer loop
         vertex 6.000000e+001 -2.500000e+000 -1.150000e+002
         vertex -2.000000e+001 -2.500000e+000 1.150000e+002
         vertex -6.000000e+001 -2.500000e+000 1.150000e+002
      endloop
   endfacet
   facet normal 0.000000e+000 -1.000000e+000 0.000000e+000
      outer loop
         vertex 6.000000e+001 -2.500000e+000 -1.150000e+002
         vertex -6.000000e+001 -2.500000e+000 1.150000e+002
         vertex 2.000000e+001 -2.500000e+000 -1.150000e+002
      endloop
   endfacet
   facet normal 0.000000e+000 -1.000000e+000 0.000000e+000
      outer loop
         vertex 2.000000e+001 -2.500000e+000 -1.150000e+002
         vertex -6.000000e+001 -2.500000e+000 1.150000e+002
         vertex -2.000000e+001 -2.500000e+000 -1.150000e+002
      endloop
   endfacet
   facet normal 0.000000e+000 -1.000000e+000 0.000000e+000
      outer loop
         vertex 2.000000e+001 -2.500000e+000 -1.150000e+002
         vertex -2.000000e+001 -2.500000e+000 -1.150000e+002
         vertex 2.000000e+001 -2.500000e+000 -1.350000e+002
      endloop
   endfacet
   facet normal 0.000000e+000 -1.000000e+000 0.000000e+000
      outer loop
         vertex 2.000000e+001 -2.500000e+000 -1.350000e+002
         vertex -2.000000e+001 -2.500000e+000 -1.150000e+002
         vertex -2.000000e+001 -2.500000e+000 -1.350000e+002
      endloop
   endfacet
   facet normal 0.000000e+000 -1.000000e+000 0.000000e+000
      outer loop
         vertex 2.000000e+001 -2.500000e+000 -1.350000e+002
         vertex -2.000000e+001 -2.500000e+000 -1.350000e+002
         vertex -7.000000e+001 -2.500000e+000 -1.450000e+002
      endloop
   endfacet
   facet normal 0.000000e+000 -1.000000e+000 0.000000e+000
      outer loop
         vertex -7.000000e+001 -2.500000e+000 -1.450000e+002
         vertex -2.000000e+001 -2.500000e+000 -1.350000e+002
         vertex -6.000000e+001 -2.500000e+000 -1.350000e+002
      endloop
   endfacet
   facet normal 0.000000e+000 -1.000000e+000 0.000000e+000
      outer loop
         vertex -7.000000e+001 -2.500000e+000 -1.450000e+002
         vertex -6.000000e+001 -2.500000e+000 -1.350000e+002
         vertex -6.000000e+001 -2.500000e+000 -1.150000e+002
      endloop
   endfacet
   facet normal -1.000000e+000 0.000000e+000 3.469447e-016
      outer loop
         vertex 6.000000e+001 -2.500000e+000 1.350000e+002
         vertex 6.000000e+001 2.500000e+000 1.350000e+002
         vertex 6.000000e+001 -2.500000e+000 1.150000e+002
      endloop
   endfacet
   facet normal -1.000000e+000 0.000000e+000 3.469447e-016
      outer loop
         vertex 6.000000e+001 -2.500000e+000 1.150000e+002
         vertex 6.000000e+001 2.500000e+000 1.350000e+002
         vertex 6.000000e+001 2.500000e+000 1.150000e+002
      endloop
   endfacet
   facet normal 6.938894e-016 0.000000e+000 -1.000000e+000
      outer loop
         vertex 2.000000e+001 -2.500000e+000 1.350000e+002
         vertex 2.000000e+001 2.500000e+000 1.350000e+002
         vertex 6.000000e+001 -2.500000e+000 1.350000e+002
      endloop
   endfacet
   facet normal 6.938894e-016 0.000000e+000 -1.000000e+000
      outer loop
         vertex 6.000000e+001 -2.500000e+000 1.350000e+002
         vertex 2.000000e+001 2.500000e+000 1.350000e+002
         vertex 6.000000e+001 2.500000e+000 1.350000e+002
      endloop
   endfacet
   facet normal 1.000000e+000 0.000000e+000 -1.734723e-016
      outer loop
         vertex 2.000000e+001 -2.500000e+000 1.150000e+002
         vertex 2.000000e+001 2.500000e+000 1.150000e+002
         vertex 2.000000e+001 -2.500000e+000 1.350000e+002
      endloop
   endfacet
   facet normal 1.000000e+000 0.000000e+000 -1.734723e-016
      outer loop
         vertex 2.000000e+001 -2.500000e+000 1.350000e+002
         vertex 2.000000e+001 2.500000e+000 1.150000e+002
         vertex 2.000000e+001 2.500000e+000 1.350000e+002
      endloop
   endfacet
   facet normal 1.040834e-015 0.000000e+000 1.000000e+000
      outer loop
         vertex 6.000000e+001 -2.500000e+000 1.150000e+002
         vertex 6.000000e+001 2.500000e+000 1.150000e+002
         vertex 2.000000e+001 -2.500000e+000 1.150000e+002
      endloop
   endfacet
   facet normal 1.040834e-015 0.000000e+000 1.000000e+000
      outer loop
         vertex 2.000000e+001 -2.500000e+000 1.150000e+002
         vertex 6.000000e+001 2.500000e+000 1.150000e+002
         vertex 2.000000e+001 2.500000e+000 1.150000e+002
      endloop
   endfacet
   facet normal 1.000000e+000 0.000000e+000 1.734723e-016
      outer loop
         vertex 2.000000e+001 -2.500000e+000 -1.350000e+002
         vertex 2.000000e+001 2.500000e+000 -1.350000e+002
         vertex 2.000000e+001 -2.500000e+000 -1.150000e+002
      endloop
   endfacet
   facet normal 1.000000e+000 0.000000e+000 1.734723e-016
      outer loop
         vertex 2.000000e+001 -2.500000e+000 -1.150000e+002
         vertex 2.000000e+001 2.500000e+000 -1.350000e+002
         vertex 2.000000e+001 2.500000e+000 -1.150000e+002
      endloop
   endfacet
   facet normal 6.938894e-016 0.000000e+000 1.000000e+000
      outer loop
         vertex 6.000000e+001 -2.500000e+000 -1.350000e+002
         vertex 6.000000e+001 2.500000e+000 -1.350000e+002
         vertex 2.000000e+001 -2.500000e+000 -1.350000e+002
      endloop
   endfacet
   facet normal 6.938894e-016 0.000000e+000 1.000000e+000
      outer loop
         vertex 2.000000e+001 -2.500000e+000 -1.350000e+002
         vertex 6.000000e+001 2.500000e+000 -1.350000e+002
         vertex 2.000000e+001 2.500000e+000 -1.350000e+002
      endloop
   endfacet
   facet normal -1.000000e+000 0.000000e+000 -3.469447e-016
      outer loop
         vertex 6.000000e+001 -2.500000e+000 -1.150000e+002
         vertex 6.000000e+001 2.500000e+000 -1.150000e+002
         vertex 6.000000e+001 -2.500000e+000 -1.350000e+002
      endloop
   endfacet
   facet normal -1.000000e+000 0.000000e+000 -3.469447e-016
      outer loop
         vertex 6.000000e+001 -2.500000e+000 -1.350000e+002
         vertex 6.000000e+001 2.500000e+000 -1.150000e+002
         vertex 6.000000e+001 2.500000e+000 -1.350000e+002
      endloop
   endfacet
   facet normal 1.040834e-015 0.000000e+000 -1.000000e+000
      outer loop
         vertex 2.000000e+001 -2.500000e+000 -1.150000e+002
         vertex 2.000000e+001 2.500000e+000 -1.150000e+002
         vertex 6.000000e+001 -2.500000e+000 -1.150000e+002
      endloop
   endfacet
   facet normal 1.040834e-015 0.000000e+000 -1.000000e+000
      outer loop
         vertex 6.000000e+001 -2.500000e+000 -1.150000e+002
         vertex 2.000000e+001 2.500000e+000 -1.150000e+002
         vertex 6.000000e+001 2.500000e+000 -1.150000e+002
      endloop
   endfacet
   facet normal -1.000000e+000 0.000000e+000 1.734723e-016
      outer loop
         vertex -2.000000e+001 -2.500000e+000 -1.150000e+002
         vertex -2.000000e+001 2.500000e+000 -1.150000e+002
         vertex -2.000000e+001 -2.500000e+000 -1.350000e+002
      endloop
   endfacet
   facet normal -1.000000e+000 0.000000e+000 1.734723e-016
      outer loop
         vertex -2.000000e+001 -2.500000e+000 -1.350000e+002
         vertex -2.000000e+001 2.500000e+000 -1.150000e+002
         vertex -2.000000e+001 2.500000e+000 -1.350000e+002
      endloop
   endfacet
   facet normal -1.040834e-015 0.000000e+000 -1.000000e+000
      outer loop
         vertex -6.000000e+001 -2.500000e+000 -1.150000e+002
         vertex -6.000000e+001 2.500000e+000 -1.150000e+002
         vertex -2.000000e+001 -2.500000e+000 -1.150000e+002
      endloop
   endfacet
   facet normal -1.040834e-015 0.000000e+000 -1.000000e+000
      outer loop
         vertex -2.000000e+001 -2.500000e+000 -1.150000e+002
         vertex -6.000000e+001 2.500000e+000 -1.150000e+002
         vertex -2.000000e+001 2.500000e+000 -1.150000e+002
      endloop
   endfacet
   facet normal 1.000000e+000 0.000000e+000 -3.469447e-016
      outer loop
         vertex -6.000000e+001 -2.500000e+000 -1.350000e+002
         vertex -6.000000e+001 2.500000e+000 -1.350000e+002
         vertex -6.000000e+001 -2.500000e+000 -1.150000e+002
      endloop
   endfacet
   facet normal 1.000000e+000 0.000000e+000 -3.469447e-016
      outer loop
         vertex -6.000000e+001 -2.500000e+000 -1.150000e+002
         vertex -6.000000e+001 2.500000e+000 -1.350000e+002
         vertex -6.000000e+001 2.500000e+000 -1.150000e+002
      endloop
   endfacet
   facet normal -6.938894e-016 0.000000e+000 1.000000e+000
      outer loop
         vertex -2.000000e+001 -2.500000e+000 -1.350000e+002
         vertex -2.000000e+001 2.500000e+000 -1.350000e+002
         vertex -6.000000e+001 -2.500000e+000 -1.350000e+002
      endloop
   endfacet
   facet normal -6.938894e-016 0.000000e+000 1.000000e+000
      outer loop
         vertex -6.000000e+001 -2.500000e+000 -1.350000e+002
         vertex -2.000000e+001 2.500000e+000 -1.350000e+002
         vertex -6.000000e+001 2.500000e+000 -1.350000e+002
      endloop
   endfacet
   facet normal -1.000000e+000 0.000000e+000 -1.734723e-016
      outer loop
         vertex -2.000000e+001 -2.500000e+000 1.350000e+002
         vertex -2.000000e+001 2.500000e+000 1.350000e+002
         vertex -2.000000e+001 -2.500000e+000 1.150000e+002
      endloop
   endfacet
   facet normal -1.000000e+000 0.000000e+000 -1.734723e-016
      outer loop
         vertex -2.000000e+001 -2.500000e+000 1.150000e+002
         vertex -2.000000e+001 2.500000e+000 1.350000e+002
         vertex -2.000000e+001 2.500000e+000 1.150000e+002
      endloop
   endfacet
   facet normal -6.938894e-016 0.000000e+000 -1.000000e+000
      outer loop
         vertex -6.000000e+001 -2.500000e+000 1.350000e+002
         vertex -6.000000e+001 2.500000e+000 1.350000e+002
         vertex -2.000000e+001 -2.500000e+000 1.350000e+002
      endloop
   endfacet
   facet normal -6.938894e-016 0.000000e+000 -1.000000e+000
      outer loop
         vertex -2.000000e+001 -2.500000e+000 1.350000e+002
         vertex -6.000000e+001 2.500000e+000 1.350000e+002
         vertex -2.000000e+001 2.500000e+000 1.350000e+002
      endloop
   endfacet
   facet normal 1.000000e+000 0.000000e+000 3.469447e-016
      outer loop
         vertex -6.000000e+001 -2.500000e+000 1.150000e+002
         vertex -6.000000e+001 2.500000e+000 1.150000e+002
         vertex -6.000000e+001 -2.500000e+000 1.350000e+002
      endloop
   endfacet
   facet normal 1.000000e+000 0.000000e+000 3.469447e-016
      outer loop
         vertex -6.000000e+001 -2.500000e+000 1.350000e+002
         vertex -6.000000e+001 2.500000e+000 1.150000e+002
         vertex -6.000000e+001 2.500000e+000 1.350000e+002
      endloop
   endfacet
   facet normal -1.040834e-015 0.000000e+000 1.000000e+000
      outer loop
         vertex -2.000000e+001 -2.500000e+000 1.150000e+002
         vertex -2.000000e+001 2.500000e+000 1.150000e+002
         vertex -6.000000e+001 -2.500000e+000 1.150000e+002
      endloop
   endfacet
   facet normal -1.040834e-015 0.000000e+000 1.000000e+000
      outer loop
         vertex -6.000000e+001 -2.500000e+000 1.150000e+002
         vertex -2.000000e+001 2.500000e+000 1.150000e+002
         vertex -6.000000e+001 2.500000e+000 1.150000e+002
      endloop
   endfacet
endsolid