solid Leg support_Default_sldprt
   facet normal 0.000000e+000 1.000000e+000 0.000000e+000
      outer loop
         vertex -2.000000e+001 1.500000e+001 -2.500000e+000
         vertex -3.000000e+001 1.500000e+001 -2.500000e+000
         vertex -2.000000e+001 1.500000e+001 2.500000e+000
      endloop
   endfacet
   facet normal 0.000000e+000 1.000000e+000 0.000000e+000
      outer loop
         vertex -2.000000e+001 1.500000e+001 2.500000e+000
         vertex -3.000000e+001 1.500000e+001 -2.500000e+000
         vertex -3.000000e+001 1.500000e+001 2.500000e+000
      endloop
   endfacet
   facet normal 0.000000e+000 1.000000e+000 0.000000e+000
      outer loop
         vertex 3.000000e+001 1.500000e+001 2.500000e+000
         vertex 3.000000e+001 1.500000e+001 1.000000e+001
         vertex 3.500000e+001 1.500000e+001 1.000000e+001
      endloop
   endfacet
   facet normal 0.000000e+000 1.000000e+000 0.000000e+000
      outer loop
         vertex 3.500000e+001 1.500000e+001 -1.000000e+001
         vertex 3.000000e+001 1.500000e+001 -1.000000e+001
         vertex 3.000000e+001 1.500000e+001 -2.500000e+000
      endloop
   endfacet
   facet normal 0.000000e+000 1.000000e+000 0.000000e+000
      outer loop
         vertex 2.000000e+001 1.500000e+001 -2.500000e+000
         vertex 2.000000e+001 1.500000e+001 2.500000e+000
         vertex 3.000000e+001 1.500000e+001 -2.500000e+000
      endloop
   endfacet
   facet normal 0.000000e+000 1.000000e+000 0.000000e+000
      outer loop
         vertex 3.000000e+001 1.500000e+001 -2.500000e+000
         vertex 2.000000e+001 1.500000e+001 2.500000e+000
         vertex 3.000000e+001 1.500000e+001 2.500000e+000
      endloop
   endfacet
   facet normal 0.000000e+000 1.000000e+000 0.000000e+000
      outer loop
         vertex 3.000000e+001 1.500000e+001 -2.500000e+000
         vertex 3.000000e+001 1.500000e+001 2.500000e+000
         vertex 3.500000e+001 1.500000e+001 -1.000000e+001
      endloop
   endfacet
   facet normal 0.000000e+000 1.000000e+000 0.000000e+000
      outer loop
         vertex 3.500000e+001 1.500000e+001 -1.000000e+001
         vertex 3.000000e+001 1.500000e+001 2.500000e+000
         vertex 3.500000e+001 1.500000e+001 1.000000e+001
      endloop
   endfacet
   facet normal -1.000000e+000 -2.312965e-016 0.000000e+000
      outer loop
         vertex -3.000000e+001 -1.500000e+001 2.500000e+000
         vertex -3.000000e+001 1.500000e+001 2.500000e+000
         vertex -3.000000e+001 -1.500000e+001 -2.500000e+000
      endloop
   endfacet
   facet normal -1.000000e+000 -2.312965e-016 0.000000e+000
      outer loop
         vertex -3.000000e+001 -1.500000e+001 -2.500000e+000
         vertex -3.000000e+001 1.500000e+001 2.500000e+000
         vertex -3.000000e+001 1.500000e+001 -2.500000e+000
      endloop
   endfacet
   facet normal 0.000000e+000 -1.000000e+000 0.000000e+000
      outer loop
         vertex 3.000000e+001 -1.500000e+001 2.500000e+000
         vertex -3.000000e+001 -1.500000e+001 2.500000e+000
         vertex 3.000000e+001 -1.500000e+001 -2.500000e+000
      endloop
   endfacet
   facet normal 0.000000e+000 -1.000000e+000 0.000000e+000
      outer loop
         vertex 3.000000e+001 -1.500000e+001 -2.500000e+000
         vertex -3.000000e+001 -1.500000e+001 2.500000e+000
         vertex -3.000000e+001 -1.500000e+001 -2.500000e+000
      endloop
   endfacet
   facet normal 0.000000e+000 0.000000e+000 1.000000e+000
      outer loop
         vertex -2.000000e+001 1.500000e+001 2.500000e+000
         vertex -3.000000e+001 1.500000e+001 2.500000e+000
         vertex -2.000000e+001 -5.000000e+000 2.500000e+000
      endloop
   endfacet
   facet normal 0.000000e+000 0.000000e+000 1.000000e+000
      outer loop
         vertex -2.000000e+001 -5.000000e+000 2.500000e+000
         vertex -3.000000e+001 1.500000e+001 2.500000e+000
         vertex -3.000000e+001 -1.500000e+001 2.500000e+000
      endloop
   endfacet
   facet normal 0.000000e+000 0.000000e+000 1.000000e+000
      outer loop
         vertex -2.000000e+001 -5.000000e+000 2.500000e+000
         vertex -3.000000e+001 -1.500000e+001 2.500000e+000
         vertex 2.000000e+001 -5.000000e+000 2.500000e+000
      endloop
   endfacet
   facet normal 0.000000e+000 0.000000e+000 1.000000e+000
      outer loop
         vertex 2.000000e+001 -5.000000e+000 2.500000e+000
         vertex -3.000000e+001 -1.500000e+001 2.500000e+000
         vertex 3.000000e+001 -1.500000e+001 2.500000e+000
      endloop
   endfacet
   facet normal 0.000000e+000 0.000000e+000 1.000000e+000
      outer loop
         vertex 2.000000e+001 -5.000000e+000 2.500000e+000
         vertex 3.000000e+001 -1.500000e+001 2.500000e+000
         vertex 2.000000e+001 1.500000e+001 2.500000e+000
      endloop
   endfacet
   facet normal 0.000000e+000 0.000000e+000 1.000000e+000
      outer loop
         vertex 2.000000e+001 1.500000e+001 2.500000e+000
         vertex 3.000000e+001 -1.500000e+001 2.500000e+000
         vertex 3.000000e+001 1.500000e+001 2.500000e+000
      endloop
   endfacet
   facet normal 0.000000e+000 0.000000e+000 -1.000000e+000
      outer loop
         vertex 2.000000e+001 1.500000e+001 -2.500000e+000
         vertex 3.000000e+001 1.500000e+001 -2.500000e+000
         vertex 2.000000e+001 -5.000000e+000 -2.500000e+000
      endloop
   endfacet
   facet normal 0.000000e+000 0.000000e+000 -1.000000e+000
      outer loop
         vertex 2.000000e+001 -5.000000e+000 -2.500000e+000
         vertex 3.000000e+001 1.500000e+001 -2.500000e+000
         vertex 3.000000e+001 -1.500000e+001 -2.500000e+000
      endloop
   endfacet
   facet normal 0.000000e+000 0.000000e+000 -1.000000e+000
      outer loop
         vertex 2.000000e+001 -5.000000e+000 -2.500000e+000
         vertex 3.000000e+001 -1.500000e+001 -2.500000e+000
         vertex -2.000000e+001 -5.000000e+000 -2.500000e+000
      endloop
   endfacet
   facet normal 0.000000e+000 0.000000e+000 -1.000000e+000
      outer loop
         vertex -2.000000e+001 -5.000000e+000 -2.500000e+000
         vertex 3.000000e+001 -1.500000e+001 -2.500000e+000
         vertex -3.000000e+001 -1.500000e+001 -2.500000e+000
      endloop
   endfacet
   facet normal 0.000000e+000 0.000000e+000 -1.000000e+000
      outer loop
         vertex -2.000000e+001 -5.000000e+000 -2.500000e+000
         vertex -3.000000e+001 -1.500000e+001 -2.500000e+000
         vertex -2.000000e+001 1.500000e+001 -2.500000e+000
      endloop
   endfacet
   facet normal 0.000000e+000 0.000000e+000 -1.000000e+000
      outer loop
         vertex -2.000000e+001 1.500000e+001 -2.500000e+000
         vertex -3.000000e+001 -1.500000e+001 -2.500000e+000
         vertex -3.000000e+001 1.500000e+001 -2.500000e+000
      endloop
   endfacet
   facet normal 1.000000e+000 0.000000e+000 0.000000e+000
      outer loop
         vertex -2.000000e+001 1.500000e+001 -2.500000e+000
         vertex -2.000000e+001 1.500000e+001 2.500000e+000
         vertex -2.000000e+001 -5.000000e+000 -2.500000e+000
      endloop
   endfacet
   facet normal 1.000000e+000 0.000000e+000 0.000000e+000
      outer loop
         vertex -2.000000e+001 -5.000000e+000 -2.500000e+000
         vertex -2.000000e+001 1.500000e+001 2.500000e+000
         vertex -2.000000e+001 -5.000000e+000 2.500000e+000
      endloop
   endfacet
   facet normal -1.000000e+000 0.000000e+000 0.000000e+000
      outer loop
         vertex 2.000000e+001 -5.000000e+000 -2.500000e+000
         vertex 2.000000e+001 -5.000000e+000 2.500000e+000
         vertex 2.000000e+001 1.500000e+001 -2.500000e+000
      endloop
   endfacet
   facet normal -1.000000e+000 0.000000e+000 0.000000e+000
      outer loop
         vertex 2.000000e+001 1.500000e+001 -2.500000e+000
         vertex 2.000000e+001 -5.000000e+000 2.500000e+000
         vertex 2.000000e+001 1.500000e+001 2.500000e+000
      endloop
   endfacet
   facet normal -2.168404e-017 1.000000e+000 0.000000e+000
      outer loop
         vertex -2.000000e+001 -5.000000e+000 -2.500000e+000
         vertex -2.000000e+001 -5.000000e+000 2.500000e+000
         vertex 2.000000e+001 -5.000000e+000 -2.500000e+000
      endloop
   endfacet
   facet normal -2.168404e-017 1.000000e+000 0.000000e+000
      outer loop
         vertex 2.000000e+001 -5.000000e+000 -2.500000e+000
         vertex -2.000000e+001 -5.000000e+000 2.500000e+000
         vertex 2.000000e+001 -5.000000e+000 2.500000e+000
      endloop
   endfacet
   facet normal -2.956471e-032 1.278217e-016 -1.000000e+000
      outer loop
         vertex 3.500000e+001 1.500000e+001 -1.000000e+001
         vertex 3.500000e+001 -8.000000e+001 -1.000000e+001
         vertex 3.000000e+001 1.500000e+001 -1.000000e+001
      endloop
   endfacet
   facet normal -2.956471e-032 1.278217e-016 -1.000000e+000
      outer loop
         vertex 3.000000e+001 1.500000e+001 -1.000000e+001
         vertex 3.500000e+001 -8.000000e+001 -1.000000e+001
         vertex 3.000000e+001 -8.000000e+001 -1.000000e+001
      endloop
   endfacet
   facet normal 2.534118e-032 -1.095615e-016 1.000000e+000
      outer loop
         vertex 3.500000e+001 -8.000000e+001 1.000000e+001
         vertex 3.500000e+001 1.500000e+001 1.000000e+001
         vertex 3.000000e+001 -8.000000e+001 1.000000e+001
      endloop
   endfacet
   facet normal 2.534118e-032 -1.095615e-016 1.000000e+000
      outer loop
         vertex 3.000000e+001 -8.000000e+001 1.000000e+001
         vertex 3.500000e+001 1.500000e+001 1.000000e+001
         vertex 3.000000e+001 1.500000e+001 1.000000e+001
      endloop
   endfacet
   facet normal 2.312965e-016 -1.000000e+000 0.000000e+000
      outer loop
         vertex 3.500000e+001 -8.000000e+001 -1.000000e+001
         vertex 3.500000e+001 -8.000000e+001 1.000000e+001
         vertex 3.000000e+001 -8.000000e+001 -1.000000e+001
      endloop
   endfacet
   facet normal 2.312965e-016 -1.000000e+000 0.000000e+000
      outer loop
         vertex 3.000000e+001 -8.000000e+001 -1.000000e+001
         vertex 3.500000e+001 -8.000000e+001 1.000000e+001
         vertex 3.000000e+001 -8.000000e+001 1.000000e+001
      endloop
   endfacet
   facet normal 1.000000e+000 2.191230e-016 0.000000e+000
      outer loop
         vertex 3.500000e+001 1.500000e+001 1.000000e+001
         vertex 3.500000e+001 -8.000000e+001 1.000000e+001
         vertex 3.500000e+001 1.500000e+001 -1.000000e+001
      endloop
   endfacet
   facet normal 1.000000e+000 2.191230e-016 0.000000e+000
      outer loop
         vertex 3.500000e+001 1.500000e+001 -1.000000e+001
         vertex 3.500000e+001 -8.000000e+001 1.000000e+001
         vertex 3.500000e+001 -8.000000e+001 -1.000000e+001
      endloop
   endfacet
   facet normal -1.000000e+000 -2.191230e-016 0.000000e+000
      outer loop
         vertex 3.000000e+001 1.500000e+001 1.000000e+001
         vertex 3.000000e+001 1.500000e+001 2.500000e+000
         vertex 3.000000e+001 -1.500000e+001 2.500000e+000
      endloop
   endfacet
   facet normal -1.000000e+000 -2.191230e-016 0.000000e+000
      outer loop
         vertex 3.000000e+001 1.500000e+001 -2.500000e+000
         vertex 3.000000e+001 1.500000e+001 -1.000000e+001
         vertex 3.000000e+001 -1.500000e+001 -2.500000e+000
      endloop
   endfacet
   facet normal -1.000000e+000 -2.191230e-016 0.000000e+000
      outer loop
         vertex 3.000000e+001 -1.500000e+001 -2.500000e+000
         vertex 3.000000e+001 1.500000e+001 -1.000000e+001
         vertex 3.000000e+001 -8.000000e+001 -1.000000e+001
      endloop
   endfacet
   facet normal -1.000000e+000 -2.191230e-016 0.000000e+000
      outer loop
         vertex 3.000000e+001 -1.500000e+001 -2.500000e+000
         vertex 3.000000e+001 -8.000000e+001 -1.000000e+001
         vertex 3.000000e+001 -1.500000e+001 2.500000e+000
      endloop
   endfacet
   facet normal -1.000000e+000 -2.191230e-016 0.000000e+000
      outer loop
         vertex 3.000000e+001 -1.500000e+001 2.500000e+000
         vertex 3.000000e+001 -8.000000e+001 -1.000000e+001
         vertex 3.000000e+001 -8.000000e+001 1.000000e+001
      endloop
   endfacet
   facet normal -1.000000e+000 -2.191230e-016 0.000000e+000
      outer loop
         vertex 3.000000e+001 -1.500000e+001 2.500000e+000
         vertex 3.000000e+001 -8.000000e+001 1.000000e+001
         vertex 3.000000e+001 1.500000e+001 1.000000e+001
      endloop
   endfacet
endsolid