solid Rubber pad_Default_sldprt
   facet normal 1.000000e+000 0.000000e+000 -8.673617e-017
      outer loop
         vertex 2.000000e+001 5.000000e+000 -2.000000e+001
         vertex 2.000000e+001 5.000000e+000 2.000000e+001
         vertex 2.000000e+001 -5.000000e+000 -2.000000e+001
      endloop
   endfacet
   facet normal 1.000000e+000 0.000000e+000 -8.673617e-017
      outer loop
         vertex 2.000000e+001 -5.000000e+000 -2.000000e+001
         vertex 2.000000e+001 5.000000e+000 2.000000e+001
         vertex 2.000000e+001 -5.000000e+000 2.000000e+001
      endloop
   endfacet
   facet normal 0.000000e+000 0.000000e+000 -1.000000e+000
      outer loop
         vertex -2.000000e+001 5.000000e+000 -2.000000e+001
         vertex 2.000000e+001 5.000000e+000 -2.000000e+001
         vertex -2.000000e+001 -5.000000e+000 -2.000000e+001
      endloop
   endfacet
   facet normal 0.000000e+000 0.000000e+000 -1.000000e+000
      outer loop
         vertex -2.000000e+001 -5.000000e+000 -2.000000e+001
         vertex 2.000000e+001 5.000000e+000 -2.000000e+001
         vertex 2.000000e+001 -5.000000e+000 -2.000000e+001
      endloop
   endfacet
   facet normal -1.000000e+000 0.000000e+000 0.000000e+000
      outer loop
         vertex -2.000000e+001 5.000000e+000 2.000000e+001
         vertex -2.000000e+001 5.000000e+000 -2.000000e+001
         vertex -2.000000e+001 -5.000000e+000 2.000000e+001
      endloop
   endfacet
   facet normal -1.000000e+000 0.000000e+000 0.000000e+000
      outer loop
         vertex -2.000000e+001 -5.000000e+000 2.000000e+001
         vertex -2.000000e+001 5.000000e+000 -2.000000e+001
         vertex -2.000000e+001 -5.000000e+000 -2.000000e+001
      endloop
   endfacet
   facet normal 0.000000e+000 0.000000e+000 1.000000e+000
      outer loop
         vertex 2.000000e+001 5.000000e+000 2.000000e+001
         vertex -2.000000e+001 5.000000e+000 2.000000e+001
         vertex 2.000000e+001 -5.000000e+000 2.000000e+001
      endloop
   endfacet
   facet normal 0.000000e+000 0.000000e+000 1.000000e+000
      outer loop
         vertex 2.000000e+001 -5.000000e+000 2.000000e+001
         vertex -2.000000e+001 5.000000e+000 2.000000e+001
         vertex -2.000000e+001 -5.000000e+000 2.000000e+001
      endloop
   endfacet
   facet normal 0.000000e+000 1.000000e+000 0.000000e+000
      outer loop
         vertex 1.000000e+001 5.000000e+000 -2.500000e+000
         vertex 2.000000e+001 5.000000e+000 -2.000000e+001
         vertex -1.000000e+001 5.000000e+000 -2.500000e+000
      endloop
   endfacet
   facet normal 0.000000e+000 1.000000e+000 0.000000e+000
      outer loop
         vertex -1.000000e+001 5.000000e+000 -2.500000e+000
         vertex 2.000000e+001 5.000000e+000 -2.000000e+001
         vertex -2.000000e+001 5.000000e+000 -2.000000e+001
      endloop
   endfacet
   facet normal 0.000000e+000 1.000000e+000 0.000000e+000
      outer loop
         vertex -1.000000e+001 5.000000e+000 -2.500000e+000
         vertex -2.000000e+001 5.000000e+000 -2.000000e+001
         vertex -1.000000e+001 5.000000e+000 2.500000e+000
      endloop
   endfacet
   facet normal 0.000000e+000 1.000000e+000 0.000000e+000
      outer loop
         vertex -1.000000e+001 5.000000e+000 2.500000e+000
         vertex -2.000000e+001 5.000000e+000 -2.000000e+001
         vertex -2.000000e+001 5.000000e+000 2.000000e+001
      endloop
   endfacet
   facet normal 0.000000e+000 1.000000e+000 0.000000e+000
      outer loop
         vertex -1.000000e+001 5.000000e+000 2.500000e+000
         vertex -2.000000e+001 5.000000e+000 2.000000e+001
         vertex 1.000000e+001 5.000000e+000 2.500000e+000
      endloop
   endfacet
   facet normal 0.000000e+000 1.000000e+000 0.000000e+000
      outer loop
         vertex 1.000000e+001 5.000000e+000 2.500000e+000
         vertex -2.000000e+001 5.000000e+000 2.000000e+001
         vertex 2.000000e+001 5.000000e+000 2.000000e+001
      endloop
   endfacet
   facet normal 0.000000e+000 1.000000e+000 0.000000e+000
      outer loop
         vertex 1.000000e+001 5.000000e+000 2.500000e+000
         vertex 2.000000e+001 5.000000e+000 2.000000e+001
         vertex 1.000000e+001 5.000000e+000 -2.500000e+000
      endloop
   endfacet
   facet normal 0.000000e+000 1.000000e+000 0.000000e+000
      outer loop
         vertex 1.000000e+001 5.000000e+000 -2.500000e+000
         vertex 2.000000e+001 5.000000e+000 2.000000e+001
         vertex 2.000000e+001 5.000000e+000 -2.000000e+001
      endloop
   endfacet
   facet normal 0.000000e+000 -1.000000e+000 0.000000e+000
      outer loop
         vertex -2.000000e+001 -5.000000e+000 2.000000e+001
         vertex -2.000000e+001 -5.000000e+000 -2.000000e+001
         vertex 2.000000e+001 -5.000000e+000 2.000000e+001
      endloop
   endfacet
   facet normal 0.000000e+000 -1.000000e+000 0.000000e+000
      outer loop
         vertex 2.000000e+001 -5.000000e+000 2.000000e+001
         vertex -2.000000e+001 -5.000000e+000 -2.000000e+001
         vertex 2.000000e+001 -5.000000e+000 -2.000000e+001
      endloop
   endfacet
   facet normal -1.000000e+000 0.000000e+000 3.469447e-016
      outer loop
         vertex 1.000000e+001 0.000000e+000 -2.500000e+000
         vertex 1.000000e+001 0.000000e+000 2.500000e+000
         vertex 1.000000e+001 5.000000e+000 -2.500000e+000
      endloop
   endfacet
   facet normal -1.000000e+000 0.000000e+000 3.469447e-016
      outer loop
         vertex 1.000000e+001 5.000000e+000 -2.500000e+000
         vertex 1.000000e+001 0.000000e+000 2.500000e+000
         vertex 1.000000e+001 5.000000e+000 2.500000e+000
      endloop
   endfacet
   facet normal 0.000000e+000 0.000000e+000 -1.000000e+000
      outer loop
         vertex 1.000000e+001 0.000000e+000 2.500000e+000
         vertex -1.000000e+001 0.000000e+000 2.500000e+000
         vertex 1.000000e+001 5.000000e+000 2.500000e+000
      endloop
   endfacet
   facet normal 0.000000e+000 0.000000e+000 -1.000000e+000
      outer loop
         vertex 1.000000e+001 5.000000e+000 2.500000e+000
         vertex -1.000000e+001 0.000000e+000 2.500000e+000
         vertex -1.000000e+001 5.000000e+000 2.500000e+000
      endloop
   endfacet
   facet normal 1.000000e+000 0.000000e+000 -3.469447e-016
      outer loop
         vertex -1.000000e+001 0.000000e+000 2.500000e+000
         vertex -1.000000e+001 0.000000e+000 -2.500000e+000
         vertex -1.000000e+001 5.000000e+000 2.500000e+000
      endloop
   endfacet
   facet normal 1.000000e+000 0.000000e+000 -3.469447e-016
      outer loop
         vertex -1.000000e+001 5.000000e+000 2.500000e+000
         vertex -1.000000e+001 0.000000e+000 -2.500000e+000
         vertex -1.000000e+001 5.000000e+000 -2.500000e+000
      endloop
   endfacet
   facet normal 0.000000e+000 0.000000e+000 1.000000e+000
      outer loop
         vertex -1.000000e+001 0.000000e+000 -2.500000e+000
         vertex 1.000000e+001 0.000000e+000 -2.500000e+000
         vertex -1.000000e+001 5.000000e+000 -2.500000e+000
      endloop
   endfacet
   facet normal 0.000000e+000 0.000000e+000 1.000000e+000
      outer loop
         vertex -1.000000e+001 5.000000e+000 -2.500000e+000
         vertex 1.000000e+001 0.000000e+000 -2.500000e+000
         vertex 1.000000e+001 5.000000e+000 -2.500000e+000
      endloop
   endfacet
   facet normal 0.000000e+000 1.000000e+000 0.000000e+000
      outer loop
         vertex -1.000000e+001 0.000000e+000 -2.500000e+000
         vertex -1.000000e+001 0.000000e+000 2.500000e+000
         vertex 1.000000e+001 0.000000e+000 -2.500000e+000
      endloop
   endfacet
   facet normal 0.000000e+000 1.000000e+000 0.000000e+000
      outer loop
         vertex 1.000000e+001 0.000000e+000 -2.500000e+000
         vertex -1.000000e+001 0.000000e+000 2.500000e+000
         vertex 1.000000e+001 0.000000e+000 2.500000e+000
      endloop
   endfacet
endsolid