solid servo motor_Default_sldprt
   facet normal 1.000000e+000 0.000000e+000 1.734723e-016
      outer loop
         vertex 2.000000e+001 1.750000e+001 -1.000000e+001
         vertex 2.000000e+001 1.750000e+001 1.000000e+001
         vertex 2.000000e+001 -1.750000e+001 -1.000000e+001
      endloop
   endfacet
   facet normal 1.000000e+000 0.000000e+000 1.734723e-016
      outer loop
         vertex 2.000000e+001 -1.750000e+001 -1.000000e+001
         vertex 2.000000e+001 1.750000e+001 1.000000e+001
         vertex 2.000000e+001 -1.750000e+001 1.000000e+001
      endloop
   endfacet
   facet normal 0.000000e+000 0.000000e+000 -1.000000e+000
      outer loop
         vertex -2.000000e+001 1.750000e+001 -1.000000e+001
         vertex 2.000000e+001 1.750000e+001 -1.000000e+001
         vertex -2.000000e+001 -1.750000e+001 -1.000000e+001
      endloop
   endfacet
   facet normal 0.000000e+000 0.000000e+000 -1.000000e+000
      outer loop
         vertex -2.000000e+001 -1.750000e+001 -1.000000e+001
         vertex 2.000000e+001 1.750000e+001 -1.000000e+001
         vertex 2.000000e+001 -1.750000e+001 -1.000000e+001
      endloop
   endfacet
   facet normal -1.000000e+000 0.000000e+000 0.000000e+000
      outer loop
         vertex -2.000000e+001 1.750000e+001 1.000000e+001
         vertex -2.000000e+001 1.750000e+001 -1.000000e+001
         vertex -2.000000e+001 -1.750000e+001 1.000000e+001
      endloop
   endfacet
   facet normal -1.000000e+000 0.000000e+000 0.000000e+000
      outer loop
         vertex -2.000000e+001 -1.750000e+001 1.000000e+001
         vertex -2.000000e+001 1.750000e+001 -1.000000e+001
         vertex -2.000000e+001 -1.750000e+001 -1.000000e+001
      endloop
   endfacet
   facet normal 0.000000e+000 0.000000e+000 1.000000e+000
      outer loop
         vertex 2.000000e+001 1.750000e+001 1.000000e+001
         vertex -2.000000e+001 1.750000e+001 1.000000e+001
         vertex 2.000000e+001 -1.750000e+001 1.000000e+001
      endloop
   endfacet
   facet normal 0.000000e+000 0.000000e+000 1.000000e+000
      outer loop
         vertex 2.000000e+001 -1.750000e+001 1.000000e+001
         vertex -2.000000e+001 1.750000e+001 1.000000e+001
         vertex -2.000000e+001 -1.750000e+001 1.000000e+001
      endloop
   endfacet
   facet normal 0.000000e+000 1.000000e+000 0.000000e+000
      outer loop
         vertex 2.000000e+001 1.750000e+001 -1.000000e+001
         vertex 1.212882e+001 1.750000e+001 -1.310768e+000
         vertex 1.231972e+001 1.750000e+001 -9.321412e-001
      endloop
   endfacet
   facet normal 0.000000e+000 1.000000e+000 0.000000e+000
      outer loop
         vertex 1.102975e+001 1.750000e+001 2.278071e+000
         vertex 1.062995e+001 1.750000e+001 2.419332e+000
         vertex 2.000000e+001 1.750000e+001 1.000000e+001
      endloop
   endfacet
   facet normal 0.000000e+000 1.000000e+000 0.000000e+000
      outer loop
         vertex 2.000000e+001 1.750000e+001 1.000000e+001
         vertex 1.062995e+001 1.750000e+001 2.419332e+000
         vertex 1.021201e+001 1.750000e+001 2.490994e+000
      endloop
   endfacet
   facet normal 0.000000e+000 1.000000e+000 0.000000e+000
      outer loop
         vertex 1.121924e+001 1.750000e+001 -2.182535e+000
         vertex 1.157055e+001 1.750000e+001 -1.945089e+000
         vertex 2.000000e+001 1.750000e+001 -1.000000e+001
      endloop
   endfacet
   facet normal 0.000000e+000 1.000000e+000 0.000000e+000
      outer loop
         vertex 2.000000e+001 1.750000e+001 -1.000000e+001
         vertex 1.157055e+001 1.750000e+001 -1.945089e+000
         vertex 1.187668e+001 1.750000e+001 -1.651687e+000
      endloop
   endfacet
   facet normal 0.000000e+000 1.000000e+000 0.000000e+000
      outer loop
         vertex 2.000000e+001 1.750000e+001 -1.000000e+001
         vertex 1.187668e+001 1.750000e+001 -1.651687e+000
         vertex 1.212882e+001 1.750000e+001 -1.310768e+000
      endloop
   endfacet
   facet normal 0.000000e+000 1.000000e+000 0.000000e+000
      outer loop
         vertex 1.247975e+001 1.750000e+001 3.175445e-001
         vertex 2.000000e+001 1.750000e+001 1.000000e+001
         vertex 1.249775e+001 1.750000e+001 -1.061030e-001
      endloop
   endfacet
   facet normal 0.000000e+000 1.000000e+000 0.000000e+000
      outer loop
         vertex 1.249775e+001 1.750000e+001 -1.061030e-001
         vertex 2.000000e+001 1.750000e+001 1.000000e+001
         vertex 2.000000e+001 1.750000e+001 -1.000000e+001
      endloop
   endfacet
   facet normal 0.000000e+000 1.000000e+000 0.000000e+000
      outer loop
         vertex 1.249775e+001 1.750000e+001 -1.061030e-001
         vertex 2.000000e+001 1.750000e+001 -1.000000e+001
         vertex 1.244389e+001 1.750000e+001 -5.266982e-001
      endloop
   endfacet
   facet normal 0.000000e+000 1.000000e+000 0.000000e+000
      outer loop
         vertex 1.244389e+001 1.750000e+001 -5.266982e-001
         vertex 2.000000e+001 1.750000e+001 -1.000000e+001
         vertex 1.231972e+001 1.750000e+001 -9.321412e-001
      endloop
   endfacet
   facet normal 0.000000e+000 1.000000e+000 0.000000e+000
      outer loop
         vertex 1.247975e+001 1.750000e+001 3.175445e-001
         vertex 1.239042e+001 1.750000e+001 7.320569e-001
         vertex 2.000000e+001 1.750000e+001 1.000000e+001
      endloop
   endfacet
   facet normal 0.000000e+000 1.000000e+000 0.000000e+000
      outer loop
         vertex 2.000000e+001 1.750000e+001 1.000000e+001
         vertex 1.239042e+001 1.750000e+001 7.320569e-001
         vertex 1.223232e+001 1.750000e+001 1.125509e+000
      endloop
   endfacet
   facet normal 0.000000e+000 1.000000e+000 0.000000e+000
      outer loop
         vertex 2.000000e+001 1.750000e+001 1.000000e+001
         vertex 1.223232e+001 1.750000e+001 1.125509e+000
         vertex 1.200999e+001 1.750000e+001 1.486583e+000
      endloop
   endfacet
   facet normal 0.000000e+000 1.000000e+000 0.000000e+000
      outer loop
         vertex 1.200999e+001 1.750000e+001 1.486583e+000
         vertex 1.172985e+001 1.750000e+001 1.804890e+000
         vertex 2.000000e+001 1.750000e+001 1.000000e+001
      endloop
   endfacet
   facet normal 0.000000e+000 1.000000e+000 0.000000e+000
      outer loop
         vertex 2.000000e+001 1.750000e+001 1.000000e+001
         vertex 1.172985e+001 1.750000e+001 1.804890e+000
         vertex 1.139994e+001 1.750000e+001 2.071274e+000
      endloop
   endfacet
   facet normal 0.000000e+000 1.000000e+000 0.000000e+000
      outer loop
         vertex 2.000000e+001 1.750000e+001 1.000000e+001
         vertex 1.139994e+001 1.750000e+001 2.071274e+000
         vertex 1.102975e+001 1.750000e+001 2.278071e+000
      endloop
   endfacet
   facet normal 0.000000e+000 1.000000e+000 0.000000e+000
      outer loop
         vertex -2.000000e+001 1.750000e+001 1.000000e+001
         vertex 7.990007e+000 1.750000e+001 1.486583e+000
         vertex 7.767685e+000 1.750000e+001 1.125509e+000
      endloop
   endfacet
   facet normal 0.000000e+000 1.000000e+000 0.000000e+000
      outer loop
         vertex 1.000000e+001 1.750000e+001 -2.500000e+000
         vertex 1.042250e+001 1.750000e+001 -2.464040e+000
         vertex 2.000000e+001 1.750000e+001 -1.000000e+001
      endloop
   endfacet
   facet normal 0.000000e+000 1.000000e+000 0.000000e+000
      outer loop
         vertex 2.000000e+001 1.750000e+001 -1.000000e+001
         vertex 1.042250e+001 1.750000e+001 -2.464040e+000
         vertex 1.083285e+001 1.750000e+001 -2.357193e+000
      endloop
   endfacet
   facet normal 0.000000e+000 1.000000e+000 0.000000e+000
      outer loop
         vertex 2.000000e+001 1.750000e+001 -1.000000e+001
         vertex 1.083285e+001 1.750000e+001 -2.357193e+000
         vertex 1.121924e+001 1.750000e+001 -2.182535e+000
      endloop
   endfacet
   facet normal 0.000000e+000 1.000000e+000 0.000000e+000
      outer loop
         vertex 7.556112e+000 1.750000e+001 -5.266982e-001
         vertex 7.680277e+000 1.750000e+001 -9.321412e-001
         vertex -2.000000e+001 1.750000e+001 -1.000000e+001
      endloop
   endfacet
   facet normal 0.000000e+000 1.000000e+000 0.000000e+000
      outer loop
         vertex 8.970246e+000 1.750000e+001 2.278071e+000
         vertex 8.600062e+000 1.750000e+001 2.071274e+000
         vertex -2.000000e+001 1.750000e+001 1.000000e+001
      endloop
   endfacet
   facet normal 0.000000e+000 1.000000e+000 0.000000e+000
      outer loop
         vertex -2.000000e+001 1.750000e+001 1.000000e+001
         vertex 8.600062e+000 1.750000e+001 2.071274e+000
         vertex 8.270153e+000 1.750000e+001 1.804890e+000
      endloop
   endfacet
   facet normal 0.000000e+000 1.000000e+000 0.000000e+000
      outer loop
         vertex -2.000000e+001 1.750000e+001 1.000000e+001
         vertex 8.270153e+000 1.750000e+001 1.804890e+000
         vertex 7.990007e+000 1.750000e+001 1.486583e+000
      endloop
   endfacet
   facet normal 0.000000e+000 1.000000e+000 0.000000e+000
      outer loop
         vertex 7.767685e+000 1.750000e+001 1.125509e+000
         vertex 7.609583e+000 1.750000e+001 7.320569e-001
         vertex -2.000000e+001 1.750000e+001 1.000000e+001
      endloop
   endfacet
   facet normal 0.000000e+000 1.000000e+000 0.000000e+000
      outer loop
         vertex -2.000000e+001 1.750000e+001 1.000000e+001
         vertex 7.609583e+000 1.750000e+001 7.320569e-001
         vertex 7.520249e+000 1.750000e+001 3.175445e-001
      endloop
   endfacet
   facet normal 0.000000e+000 1.000000e+000 0.000000e+000
      outer loop
         vertex -2.000000e+001 1.750000e+001 1.000000e+001
         vertex 7.520249e+000 1.750000e+001 3.175445e-001
         vertex -2.000000e+001 1.750000e+001 -1.000000e+001
      endloop
   endfacet
   facet normal 0.000000e+000 1.000000e+000 0.000000e+000
      outer loop
         vertex -2.000000e+001 1.750000e+001 -1.000000e+001
         vertex 7.520249e+000 1.750000e+001 3.175445e-001
         vertex 7.502253e+000 1.750000e+001 -1.061030e-001
      endloop
   endfacet
   facet normal 0.000000e+000 1.000000e+000 0.000000e+000
      outer loop
         vertex -2.000000e+001 1.750000e+001 -1.000000e+001
         vertex 7.502253e+000 1.750000e+001 -1.061030e-001
         vertex 7.556112e+000 1.750000e+001 -5.266982e-001
      endloop
   endfacet
   facet normal 0.000000e+000 1.000000e+000 0.000000e+000
      outer loop
         vertex 1.021201e+001 1.750000e+001 2.490994e+000
         vertex 1.000000e+001 1.750000e+001 2.500000e+000
         vertex 2.000000e+001 1.750000e+001 1.000000e+001
      endloop
   endfacet
   facet normal 0.000000e+000 1.000000e+000 0.000000e+000
      outer loop
         vertex 2.000000e+001 1.750000e+001 1.000000e+001
         vertex 1.000000e+001 1.750000e+001 2.500000e+000
         vertex 9.787985e+000 1.750000e+001 2.490994e+000
      endloop
   endfacet
   facet normal 0.000000e+000 1.000000e+000 0.000000e+000
      outer loop
         vertex 2.000000e+001 1.750000e+001 1.000000e+001
         vertex 9.787985e+000 1.750000e+001 2.490994e+000
         vertex -2.000000e+001 1.750000e+001 1.000000e+001
      endloop
   endfacet
   facet normal 0.000000e+000 1.000000e+000 0.000000e+000
      outer loop
         vertex -2.000000e+001 1.750000e+001 1.000000e+001
         vertex 9.787985e+000 1.750000e+001 2.490994e+000
         vertex 9.370055e+000 1.750000e+001 2.419332e+000
      endloop
   endfacet
   facet normal 0.000000e+000 1.000000e+000 0.000000e+000
      outer loop
         vertex -2.000000e+001 1.750000e+001 1.000000e+001
         vertex 9.370055e+000 1.750000e+001 2.419332e+000
         vertex 8.970246e+000 1.750000e+001 2.278071e+000
      endloop
   endfacet
   facet normal 0.000000e+000 1.000000e+000 0.000000e+000
      outer loop
         vertex 7.680277e+000 1.750000e+001 -9.321412e-001
         vertex 7.871177e+000 1.750000e+001 -1.310768e+000
         vertex -2.000000e+001 1.750000e+001 -1.000000e+001
      endloop
   endfacet
   facet normal 0.000000e+000 1.000000e+000 0.000000e+000
      outer loop
         vertex -2.000000e+001 1.750000e+001 -1.000000e+001
         vertex 7.871177e+000 1.750000e+001 -1.310768e+000
         vertex 8.123320e+000 1.750000e+001 -1.651687e+000
      endloop
   endfacet
   facet normal 0.000000e+000 1.000000e+000 0.000000e+000
      outer loop
         vertex -2.000000e+001 1.750000e+001 -1.000000e+001
         vertex 8.123320e+000 1.750000e+001 -1.651687e+000
         vertex 8.429450e+000 1.750000e+001 -1.945089e+000
      endloop
   endfacet
   facet normal 0.000000e+000 1.000000e+000 0.000000e+000
      outer loop
         vertex 8.429450e+000 1.750000e+001 -1.945089e+000
         vertex 8.780763e+000 1.750000e+001 -2.182535e+000
         vertex -2.000000e+001 1.750000e+001 -1.000000e+001
      endloop
   endfacet
   facet normal 0.000000e+000 1.000000e+000 0.000000e+000
      outer loop
         vertex -2.000000e+001 1.750000e+001 -1.000000e+001
         vertex 8.780763e+000 1.750000e+001 -2.182535e+000
         vertex 9.167150e+000 1.750000e+001 -2.357193e+000
      endloop
   endfacet
   facet normal 0.000000e+000 1.000000e+000 0.000000e+000
      outer loop
         vertex -2.000000e+001 1.750000e+001 -1.000000e+001
         vertex 9.167150e+000 1.750000e+001 -2.357193e+000
         vertex 2.000000e+001 1.750000e+001 -1.000000e+001
      endloop
   endfacet
   facet normal 0.000000e+000 1.000000e+000 0.000000e+000
      outer loop
         vertex 2.000000e+001 1.750000e+001 -1.000000e+001
         vertex 9.167150e+000 1.750000e+001 -2.357193e+000
         vertex 9.577497e+000 1.750000e+001 -2.464040e+000
      endloop
   endfacet
   facet normal 0.000000e+000 1.000000e+000 0.000000e+000
      outer loop
         vertex 2.000000e+001 1.750000e+001 -1.000000e+001
         vertex 9.577497e+000 1.750000e+001 -2.464040e+000
         vertex 1.000000e+001 1.750000e+001 -2.500000e+000
      endloop
   endfacet
   facet normal 0.000000e+000 -1.000000e+000 0.000000e+000
      outer loop
         vertex -2.000000e+001 -1.750000e+001 1.000000e+001
         vertex -2.000000e+001 -1.750000e+001 -1.000000e+001
         vertex 2.000000e+001 -1.750000e+001 1.000000e+001
      endloop
   endfacet
   facet normal 0.000000e+000 -1.000000e+000 0.000000e+000
      outer loop
         vertex 2.000000e+001 -1.750000e+001 1.000000e+001
         vertex -2.000000e+001 -1.750000e+001 -1.000000e+001
         vertex 2.000000e+001 -1.750000e+001 -1.000000e+001
      endloop
   endfacet
   facet normal 2.829130e-002 0.000000e+000 9.995998e-001
      outer loop
         vertex 1.021201e+001 3.750000e+001 2.490994e+000
         vertex 1.000000e+001 3.750000e+001 2.500000e+000
         vertex 1.000000e+001 1.750000e+001 2.500000e+000
      endloop
   endfacet
   facet normal -2.829130e-002 0.000000e+000 9.995998e-001
      outer loop
         vertex 1.000000e+001 1.750000e+001 2.500000e+000
         vertex 1.000000e+001 3.750000e+001 2.500000e+000
         vertex 9.787985e+000 1.750000e+001 2.490994e+000
      endloop
   endfacet
   facet normal -5.658260e-002 0.000000e+000 9.983979e-001
      outer loop
         vertex 1.000000e+001 3.750000e+001 2.500000e+000
         vertex 9.787985e+000 3.750000e+001 2.490994e+000
         vertex 9.787985e+000 1.750000e+001 2.490994e+000
      endloop
   endfacet
   facet normal -1.409813e-001 0.000000e+000 9.900123e-001
      outer loop
         vertex 9.787985e+000 1.750000e+001 2.490994e+000
         vertex 9.787985e+000 3.750000e+001 2.490994e+000
         vertex 9.370055e+000 3.750000e+001 2.419332e+000
      endloop
   endfacet
   facet normal -1.968844e-001 0.000000e+000 9.804267e-001
      outer loop
         vertex 9.787985e+000 1.750000e+001 2.490994e+000
         vertex 9.370055e+000 3.750000e+001 2.419332e+000
         vertex 9.370055e+000 1.750000e+001 2.419332e+000
      endloop
   endfacet
   facet normal -3.062663e-001 0.000000e+000 9.519458e-001
      outer loop
         vertex 9.370055e+000 1.750000e+001 2.419332e+000
         vertex 9.370055e+000 3.750000e+001 2.419332e+000
         vertex 8.970246e+000 3.750000e+001 2.278071e+000
      endloop
   endfacet
   facet normal -3.597453e-001 0.000000e+000 9.330506e-001
      outer loop
         vertex 9.370055e+000 1.750000e+001 2.419332e+000
         vertex 8.970246e+000 3.750000e+001 2.278071e+000
         vertex 8.970246e+000 1.750000e+001 2.278071e+000
      endloop
   endfacet
   facet normal -4.627406e-001 0.000000e+000 8.864937e-001
      outer loop
         vertex 8.970246e+000 1.750000e+001 2.278071e+000
         vertex 8.970246e+000 3.750000e+001 2.278071e+000
         vertex 8.600062e+000 3.750000e+001 2.071274e+000
      endloop
   endfacet
   facet normal -5.122570e-001 0.000000e+000 8.588322e-001
      outer loop
         vertex 8.970246e+000 1.750000e+001 2.278071e+000
         vertex 8.600062e+000 3.750000e+001 2.071274e+000
         vertex 8.600062e+000 1.750000e+001 2.071274e+000
      endloop
   endfacet
   facet normal -6.059027e-001 0.000000e+000 7.955388e-001
      outer loop
         vertex 8.600062e+000 1.750000e+001 2.071274e+000
         vertex 8.600062e+000 3.750000e+001 2.071274e+000
         vertex 8.270153e+000 3.750000e+001 1.804890e+000
      endloop
   endfacet
   facet normal -6.500320e-001 0.000000e+000 7.599069e-001
      outer loop
         vertex 8.600062e+000 1.750000e+001 2.071274e+000
         vertex 8.270153e+000 3.750000e+001 1.804890e+000
         vertex 8.270153e+000 1.750000e+001 1.804890e+000
      endloop
   endfacet
   facet normal -7.316340e-001 0.000000e+000 6.816977e-001
      outer loop
         vertex 8.270153e+000 1.750000e+001 1.804890e+000
         vertex 8.270153e+000 3.750000e+001 1.804890e+000
         vertex 7.990007e+000 3.750000e+001 1.486583e+000
      endloop
   endfacet
   facet normal -7.691067e-001 0.000000e+000 6.391203e-001
      outer loop
         vertex 8.270153e+000 1.750000e+001 1.804890e+000
         vertex 7.990007e+000 3.750000e+001 1.486583e+000
         vertex 7.990007e+000 1.750000e+001 1.486583e+000
      endloop
   endfacet
   facet normal -8.363176e-001 0.000000e+000 5.482453e-001
      outer loop
         vertex 7.990007e+000 1.750000e+001 1.486583e+000
         vertex 7.990007e+000 3.750000e+001 1.486583e+000
         vertex 7.767685e+000 3.750000e+001 1.125509e+000
      endloop
   endfacet
   facet normal -8.660557e-001 0.000000e+000 4.999475e-001
      outer loop
         vertex 7.990007e+000 1.750000e+001 1.486583e+000
         vertex 7.767685e+000 3.750000e+001 1.125509e+000
         vertex 7.767685e+000 1.750000e+001 1.125509e+000
      endloop
   endfacet
   facet normal -9.169418e-001 0.000000e+000 3.990209e-001
      outer loop
         vertex 7.767685e+000 1.750000e+001 1.125509e+000
         vertex 7.767685e+000 3.750000e+001 1.125509e+000
         vertex 7.609583e+000 3.750000e+001 7.320569e-001
      endloop
   endfacet
   facet normal -9.380898e-001 0.000000e+000 3.463921e-001
      outer loop
         vertex 7.767685e+000 1.750000e+001 1.125509e+000
         vertex 7.609583e+000 3.750000e+001 7.320569e-001
         vertex 7.609583e+000 1.750000e+001 7.320569e-001
      endloop
   endfacet
   facet normal -9.711873e-001 0.000000e+000 2.383175e-001
      outer loop
         vertex 7.609583e+000 1.750000e+001 7.320569e-001
         vertex 7.609583e+000 3.750000e+001 7.320569e-001
         vertex 7.520249e+000 3.750000e+001 3.175445e-001
      endloop
   endfacet
   facet normal -9.831368e-001 0.000000e+000 1.828716e-001
      outer loop
         vertex 7.609583e+000 1.750000e+001 7.320569e-001
         vertex 7.520249e+000 3.750000e+001 3.175445e-001
         vertex 7.520249e+000 1.750000e+001 3.175445e-001
      endloop
   endfacet
   facet normal -9.974935e-001 0.000000e+000 7.075802e-002
      outer loop
         vertex 7.520249e+000 1.750000e+001 3.175445e-001
         vertex 7.520249e+000 3.750000e+001 3.175445e-001
         vertex 7.502253e+000 3.750000e+001 -1.061030e-001
      endloop
   endfacet
   facet normal -9.999007e-001 0.000000e+000 1.409025e-002
      outer loop
         vertex 7.520249e+000 1.750000e+001 3.175445e-001
         vertex 7.502253e+000 3.750000e+001 -1.061030e-001
         vertex 7.502253e+000 1.750000e+001 -1.061030e-001
      endloop
   endfacet
   facet normal -9.951036e-001 0.000000e+000 -9.883699e-002
      outer loop
         vertex 7.502253e+000 1.750000e+001 -1.061030e-001
         vertex 7.502253e+000 3.750000e+001 -1.061030e-001
         vertex 7.556112e+000 3.750000e+001 -5.266982e-001
      endloop
   endfacet
   facet normal -9.878993e-001 0.000000e+000 -1.550965e-001
      outer loop
         vertex 7.502253e+000 1.750000e+001 -1.061030e-001
         vertex 7.556112e+000 3.750000e+001 -5.266982e-001
         vertex 7.556112e+000 1.750000e+001 -5.266982e-001
      endloop
   endfacet
   facet normal -9.640865e-001 0.000000e+000 -2.655886e-001
      outer loop
         vertex 7.556112e+000 1.750000e+001 -5.266982e-001
         vertex 7.556112e+000 3.750000e+001 -5.266982e-001
         vertex 7.680277e+000 3.750000e+001 -9.321412e-001
      endloop
   endfacet
   facet normal -9.474779e-001 0.000000e+000 -3.198213e-001
      outer loop
         vertex 7.556112e+000 1.750000e+001 -5.266982e-001
         vertex 7.680277e+000 3.750000e+001 -9.321412e-001
         vertex 7.680277e+000 1.750000e+001 -9.321412e-001
      endloop
   endfacet
   facet normal -9.053342e-001 0.000000e+000 -4.246998e-001
      outer loop
         vertex 7.680277e+000 1.750000e+001 -9.321412e-001
         vertex 7.680277e+000 3.750000e+001 -9.321412e-001
         vertex 7.871177e+000 3.750000e+001 -1.310768e+000
      endloop
   endfacet
   facet normal -8.797992e-001 0.000000e+000 -4.753455e-001
      outer loop
         vertex 7.680277e+000 1.750000e+001 -9.321412e-001
         vertex 7.871177e+000 3.750000e+001 -1.310768e+000
         vertex 7.871177e+000 1.750000e+001 -1.310768e+000
      endloop
   endfacet
   facet normal -8.205372e-001 0.000000e+000 -5.715931e-001
      outer loop
         vertex 7.871177e+000 1.750000e+001 -1.310768e+000
         vertex 7.871177e+000 3.750000e+001 -1.310768e+000
         vertex 8.123320e+000 3.750000e+001 -1.651687e+000
      endloop
   endfacet
   facet normal -7.868103e-001 0.000000e+000 -6.171949e-001
      outer loop
         vertex 7.871177e+000 1.750000e+001 -1.310768e+000
         vertex 8.123320e+000 3.750000e+001 -1.651687e+000
         vertex 8.123320e+000 1.750000e+001 -1.651687e+000
      endloop
   endfacet
   facet normal -7.121348e-001 0.000000e+000 -7.020428e-001
      outer loop
         vertex 8.123320e+000 1.750000e+001 -1.651687e+000
         vertex 8.123320e+000 3.750000e+001 -1.651687e+000
         vertex 8.429450e+000 3.750000e+001 -1.945089e+000
      endloop
   endfacet
   facet normal -6.711863e-001 0.000000e+000 -7.412888e-001
      outer loop
         vertex 8.123320e+000 1.750000e+001 -1.651687e+000
         vertex 8.429450e+000 3.750000e+001 -1.945089e+000
         vertex 8.429450e+000 1.750000e+001 -1.945089e+000
      endloop
   endfacet
   facet normal -5.832456e-001 0.000000e+000 -8.122959e-001
      outer loop
         vertex 8.429450e+000 1.750000e+001 -1.945089e+000
         vertex 8.429450e+000 3.750000e+001 -1.945089e+000
         vertex 8.780763e+000 3.750000e+001 -2.182535e+000
      endloop
   endfacet
   facet normal -5.362535e-001 0.000000e+000 -8.440570e-001
      outer loop
         vertex 8.429450e+000 1.750000e+001 -1.945089e+000
         vertex 8.780763e+000 3.750000e+001 -2.182535e+000
         vertex 8.780763e+000 1.750000e+001 -2.182535e+000
      endloop
   endfacet
   facet normal -4.375775e-001 0.000000e+000 -8.991807e-001
      outer loop
         vertex 8.780763e+000 1.750000e+001 -2.182535e+000
         vertex 8.780763e+000 3.750000e+001 -2.182535e+000
         vertex 9.167150e+000 3.750000e+001 -2.357193e+000
      endloop
   endfacet
   facet normal -3.858936e-001 0.000000e+000 -9.225433e-001
      outer loop
         vertex 8.780763e+000 1.750000e+001 -2.182535e+000
         vertex 9.167150e+000 3.750000e+001 -2.357193e+000
         vertex 9.167150e+000 1.750000e+001 -2.357193e+000
      endloop
   endfacet
   facet normal -2.793211e-001 0.000000e+000 -9.601977e-001
      outer loop
         vertex 9.167150e+000 1.750000e+001 -2.357193e+000
         vertex 9.167150e+000 3.750000e+001 -2.357193e+000
         vertex 9.577497e+000 3.750000e+001 -2.464040e+000
      endloop
   endfacet
   facet normal -2.244324e-001 0.000000e+000 -9.744897e-001
      outer loop
         vertex 9.167150e+000 1.750000e+001 -2.357193e+000
         vertex 9.577497e+000 3.750000e+001 -2.464040e+000
         vertex 9.577497e+000 1.750000e+001 -2.464040e+000
      endloop
   endfacet
   facet normal -1.130291e-001 0.000000e+000 -9.935917e-001
      outer loop
         vertex 9.577497e+000 1.750000e+001 -2.464040e+000
         vertex 9.577497e+000 3.750000e+001 -2.464040e+000
         vertex 1.000000e+001 3.750000e+001 -2.500000e+000
      endloop
   endfacet
   facet normal -5.651454e-002 0.000000e+000 -9.984018e-001
      outer loop
         vertex 9.577497e+000 1.750000e+001 -2.464040e+000
         vertex 1.000000e+001 3.750000e+001 -2.500000e+000
         vertex 1.000000e+001 1.750000e+001 -2.500000e+000
      endloop
   endfacet
   facet normal 5.651454e-002 0.000000e+000 -9.984018e-001
      outer loop
         vertex 1.000000e+001 1.750000e+001 -2.500000e+000
         vertex 1.000000e+001 3.750000e+001 -2.500000e+000
         vertex 1.042250e+001 3.750000e+001 -2.464040e+000
      endloop
   endfacet
   facet normal 1.130291e-001 0.000000e+000 -9.935917e-001
      outer loop
         vertex 1.000000e+001 1.750000e+001 -2.500000e+000
         vertex 1.042250e+001 3.750000e+001 -2.464040e+000
         vertex 1.042250e+001 1.750000e+001 -2.464040e+000
      endloop
   endfacet
   facet normal 2.244324e-001 0.000000e+000 -9.744897e-001
      outer loop
         vertex 1.042250e+001 1.750000e+001 -2.464040e+000
         vertex 1.042250e+001 3.750000e+001 -2.464040e+000
         vertex 1.083285e+001 3.750000e+001 -2.357193e+000
      endloop
   endfacet
   facet normal 2.793211e-001 0.000000e+000 -9.601977e-001
      outer loop
         vertex 1.042250e+001 1.750000e+001 -2.464040e+000
         vertex 1.083285e+001 3.750000e+001 -2.357193e+000
         vertex 1.083285e+001 1.750000e+001 -2.357193e+000
      endloop
   endfacet
   facet normal 3.858936e-001 0.000000e+000 -9.225433e-001
      outer loop
         vertex 1.083285e+001 1.750000e+001 -2.357193e+000
         vertex 1.083285e+001 3.750000e+001 -2.357193e+000
         vertex 1.121924e+001 3.750000e+001 -2.182535e+000
      endloop
   endfacet
   facet normal 4.375775e-001 0.000000e+000 -8.991807e-001
      outer loop
         vertex 1.083285e+001 1.750000e+001 -2.357193e+000
         vertex 1.121924e+001 3.750000e+001 -2.182535e+000
         vertex 1.121924e+001 1.750000e+001 -2.182535e+000
      endloop
   endfacet
   facet normal 5.362535e-001 0.000000e+000 -8.440570e-001
      outer loop
         vertex 1.121924e+001 1.750000e+001 -2.182535e+000
         vertex 1.121924e+001 3.750000e+001 -2.182535e+000
         vertex 1.157055e+001 3.750000e+001 -1.945089e+000
      endloop
   endfacet
   facet normal 5.832456e-001 0.000000e+000 -8.122959e-001
      outer loop
         vertex 1.121924e+001 1.750000e+001 -2.182535e+000
         vertex 1.157055e+001 3.750000e+001 -1.945089e+000
         vertex 1.157055e+001 1.750000e+001 -1.945089e+000
      endloop
   endfacet
   facet normal 6.711863e-001 0.000000e+000 -7.412888e-001
      outer loop
         vertex 1.157055e+001 1.750000e+001 -1.945089e+000
         vertex 1.157055e+001 3.750000e+001 -1.945089e+000
         vertex 1.187668e+001 3.750000e+001 -1.651687e+000
      endloop
   endfacet
   facet normal 7.121348e-001 0.000000e+000 -7.020428e-001
      outer loop
         vertex 1.157055e+001 1.750000e+001 -1.945089e+000
         vertex 1.187668e+001 3.750000e+001 -1.651687e+000
         vertex 1.187668e+001 1.750000e+001 -1.651687e+000
      endloop
   endfacet
   facet normal 7.868103e-001 0.000000e+000 -6.171949e-001
      outer loop
         vertex 1.187668e+001 1.750000e+001 -1.651687e+000
         vertex 1.187668e+001 3.750000e+001 -1.651687e+000
         vertex 1.212882e+001 3.750000e+001 -1.310768e+000
      endloop
   endfacet
   facet normal 8.205372e-001 0.000000e+000 -5.715931e-001
      outer loop
         vertex 1.187668e+001 1.750000e+001 -1.651687e+000
         vertex 1.212882e+001 3.750000e+001 -1.310768e+000
         vertex 1.212882e+001 1.750000e+001 -1.310768e+000
      endloop
   endfacet
   facet normal 8.797992e-001 0.000000e+000 -4.753455e-001
      outer loop
         vertex 1.212882e+001 1.750000e+001 -1.310768e+000
         vertex 1.212882e+001 3.750000e+001 -1.310768e+000
         vertex 1.231972e+001 3.750000e+001 -9.321412e-001
      endloop
   endfacet
   facet normal 9.053342e-001 0.000000e+000 -4.246998e-001
      outer loop
         vertex 1.212882e+001 1.750000e+001 -1.310768e+000
         vertex 1.231972e+001 3.750000e+001 -9.321412e-001
         vertex 1.231972e+001 1.750000e+001 -9.321412e-001
      endloop
   endfacet
   facet normal 9.474779e-001 0.000000e+000 -3.198213e-001
      outer loop
         vertex 1.231972e+001 1.750000e+001 -9.321412e-001
         vertex 1.231972e+001 3.750000e+001 -9.321412e-001
         vertex 1.244389e+001 3.750000e+001 -5.266982e-001
      endloop
   endfacet
   facet normal 9.640865e-001 0.000000e+000 -2.655886e-001
      outer loop
         vertex 1.231972e+001 1.750000e+001 -9.321412e-001
         vertex 1.244389e+001 3.750000e+001 -5.266982e-001
         vertex 1.244389e+001 1.750000e+001 -5.266982e-001
      endloop
   endfacet
   facet normal 9.878993e-001 0.000000e+000 -1.550965e-001
      outer loop
         vertex 1.244389e+001 1.750000e+001 -5.266982e-001
         vertex 1.244389e+001 3.750000e+001 -5.266982e-001
         vertex 1.249775e+001 3.750000e+001 -1.061030e-001
      endloop
   endfacet
   facet normal 9.951036e-001 0.000000e+000 -9.883699e-002
      outer loop
         vertex 1.244389e+001 1.750000e+001 -5.266982e-001
         vertex 1.249775e+001 3.750000e+001 -1.061030e-001
         vertex 1.249775e+001 1.750000e+001 -1.061030e-001
      endloop
   endfacet
   facet normal 9.999007e-001 0.000000e+000 1.409025e-002
      outer loop
         vertex 1.249775e+001 1.750000e+001 -1.061030e-001
         vertex 1.249775e+001 3.750000e+001 -1.061030e-001
         vertex 1.247975e+001 3.750000e+001 3.175445e-001
      endloop
   endfacet
   facet normal 9.974935e-001 0.000000e+000 7.075802e-002
      outer loop
         vertex 1.249775e+001 1.750000e+001 -1.061030e-001
         vertex 1.247975e+001 3.750000e+001 3.175445e-001
         vertex 1.247975e+001 1.750000e+001 3.175445e-001
      endloop
   endfacet
   facet normal 9.831368e-001 0.000000e+000 1.828716e-001
      outer loop
         vertex 1.247975e+001 1.750000e+001 3.175445e-001
         vertex 1.247975e+001 3.750000e+001 3.175445e-001
         vertex 1.239042e+001 3.750000e+001 7.320569e-001
      endloop
   endfacet
   facet normal 9.711873e-001 0.000000e+000 2.383175e-001
      outer loop
         vertex 1.247975e+001 1.750000e+001 3.175445e-001
         vertex 1.239042e+001 3.750000e+001 7.320569e-001
         vertex 1.239042e+001 1.750000e+001 7.320569e-001
      endloop
   endfacet
   facet normal 9.380898e-001 0.000000e+000 3.463921e-001
      outer loop
         vertex 1.239042e+001 1.750000e+001 7.320569e-001
         vertex 1.239042e+001 3.750000e+001 7.320569e-001
         vertex 1.223232e+001 3.750000e+001 1.125509e+000
      endloop
   endfacet
   facet normal 9.169418e-001 0.000000e+000 3.990209e-001
      outer loop
         vertex 1.239042e+001 1.750000e+001 7.320569e-001
         vertex 1.223232e+001 3.750000e+001 1.125509e+000
         vertex 1.223232e+001 1.750000e+001 1.125509e+000
      endloop
   endfacet
   facet normal 8.660557e-001 0.000000e+000 4.999475e-001
      outer loop
         vertex 1.223232e+001 1.750000e+001 1.125509e+000
         vertex 1.223232e+001 3.750000e+001 1.125509e+000
         vertex 1.200999e+001 3.750000e+001 1.486583e+000
      endloop
   endfacet
   facet normal 8.363176e-001 0.000000e+000 5.482453e-001
      outer loop
         vertex 1.223232e+001 1.750000e+001 1.125509e+000
         vertex 1.200999e+001 3.750000e+001 1.486583e+000
         vertex 1.200999e+001 1.750000e+001 1.486583e+000
      endloop
   endfacet
   facet normal 7.691067e-001 0.000000e+000 6.391203e-001
      outer loop
         vertex 1.200999e+001 1.750000e+001 1.486583e+000
         vertex 1.200999e+001 3.750000e+001 1.486583e+000
         vertex 1.172985e+001 3.750000e+001 1.804890e+000
      endloop
   endfacet
   facet normal 7.316340e-001 0.000000e+000 6.816977e-001
      outer loop
         vertex 1.200999e+001 1.750000e+001 1.486583e+000
         vertex 1.172985e+001 3.750000e+001 1.804890e+000
         vertex 1.172985e+001 1.750000e+001 1.804890e+000
      endloop
   endfacet
   facet normal 6.500320e-001 0.000000e+000 7.599069e-001
      outer loop
         vertex 1.172985e+001 1.750000e+001 1.804890e+000
         vertex 1.172985e+001 3.750000e+001 1.804890e+000
         vertex 1.139994e+001 3.750000e+001 2.071274e+000
      endloop
   endfacet
   facet normal 6.059027e-001 0.000000e+000 7.955388e-001
      outer loop
         vertex 1.172985e+001 1.750000e+001 1.804890e+000
         vertex 1.139994e+001 3.750000e+001 2.071274e+000
         vertex 1.139994e+001 1.750000e+001 2.071274e+000
      endloop
   endfacet
   facet normal 5.122570e-001 0.000000e+000 8.588322e-001
      outer loop
         vertex 1.139994e+001 1.750000e+001 2.071274e+000
         vertex 1.139994e+001 3.750000e+001 2.071274e+000
         vertex 1.102975e+001 3.750000e+001 2.278071e+000
      endloop
   endfacet
   facet normal 4.627406e-001 0.000000e+000 8.864937e-001
      outer loop
         vertex 1.139994e+001 1.750000e+001 2.071274e+000
         vertex 1.102975e+001 3.750000e+001 2.278071e+000
         vertex 1.102975e+001 1.750000e+001 2.278071e+000
      endloop
   endfacet
   facet normal 3.597453e-001 0.000000e+000 9.330506e-001
      outer loop
         vertex 1.102975e+001 1.750000e+001 2.278071e+000
         vertex 1.102975e+001 3.750000e+001 2.278071e+000
         vertex 1.062995e+001 3.750000e+001 2.419332e+000
      endloop
   endfacet
   facet normal 3.062663e-001 0.000000e+000 9.519458e-001
      outer loop
         vertex 1.102975e+001 1.750000e+001 2.278071e+000
         vertex 1.062995e+001 3.750000e+001 2.419332e+000
         vertex 1.062995e+001 1.750000e+001 2.419332e+000
      endloop
   endfacet
   facet normal 1.968844e-001 0.000000e+000 9.804267e-001
      outer loop
         vertex 1.062995e+001 1.750000e+001 2.419332e+000
         vertex 1.062995e+001 3.750000e+001 2.419332e+000
         vertex 1.021201e+001 3.750000e+001 2.490994e+000
      endloop
   endfacet
   facet normal 1.409813e-001 0.000000e+000 9.900123e-001
      outer loop
         vertex 1.062995e+001 1.750000e+001 2.419332e+000
         vertex 1.021201e+001 3.750000e+001 2.490994e+000
         vertex 1.021201e+001 1.750000e+001 2.490994e+000
      endloop
   endfacet
   facet normal 5.658260e-002 0.000000e+000 9.983979e-001
      outer loop
         vertex 1.021201e+001 1.750000e+001 2.490994e+000
         vertex 1.021201e+001 3.750000e+001 2.490994e+000
         vertex 1.000000e+001 1.750000e+001 2.500000e+000
      endloop
   endfacet
   facet normal 0.000000e+000 1.000000e+000 0.000000e+000
      outer loop
         vertex 1.000000e+001 3.750000e+001 2.500000e+000
         vertex 1.021201e+001 3.750000e+001 2.490994e+000
         vertex 1.000000e+001 3.750000e+001 0.000000e+000
      endloop
   endfacet
   facet normal 0.000000e+000 1.000000e+000 0.000000e+000
      outer loop
         vertex 1.000000e+001 3.750000e+001 2.500000e+000
         vertex 1.000000e+001 3.750000e+001 0.000000e+000
         vertex 9.787985e+000 3.750000e+001 2.490994e+000
      endloop
   endfacet
   facet normal 0.000000e+000 1.000000e+000 0.000000e+000
      outer loop
         vertex 8.600062e+000 3.750000e+001 2.071274e+000
         vertex 8.970246e+000 3.750000e+001 2.278071e+000
         vertex 1.000000e+001 3.750000e+001 0.000000e+000
      endloop
   endfacet
   facet normal 0.000000e+000 1.000000e+000 0.000000e+000
      outer loop
         vertex 1.000000e+001 3.750000e+001 0.000000e+000
         vertex 8.970246e+000 3.750000e+001 2.278071e+000
         vertex 9.370055e+000 3.750000e+001 2.419332e+000
      endloop
   endfacet
   facet normal 0.000000e+000 1.000000e+000 0.000000e+000
      outer loop
         vertex 1.000000e+001 3.750000e+001 0.000000e+000
         vertex 9.370055e+000 3.750000e+001 2.419332e+000
         vertex 9.787985e+000 3.750000e+001 2.490994e+000
      endloop
   endfacet
   facet normal 0.000000e+000 1.000000e+000 0.000000e+000
      outer loop
         vertex 7.767685e+000 3.750000e+001 1.125509e+000
         vertex 7.990007e+000 3.750000e+001 1.486583e+000
         vertex 1.000000e+001 3.750000e+001 0.000000e+000
      endloop
   endfacet
   facet normal 0.000000e+000 1.000000e+000 0.000000e+000
      outer loop
         vertex 1.000000e+001 3.750000e+001 0.000000e+000
         vertex 7.990007e+000 3.750000e+001 1.486583e+000
         vertex 8.270153e+000 3.750000e+001 1.804890e+000
      endloop
   endfacet
   facet normal 0.000000e+000 1.000000e+000 0.000000e+000
      outer loop
         vertex 1.000000e+001 3.750000e+001 0.000000e+000
         vertex 8.270153e+000 3.750000e+001 1.804890e+000
         vertex 8.600062e+000 3.750000e+001 2.071274e+000
      endloop
   endfacet
   facet normal 0.000000e+000 1.000000e+000 0.000000e+000
      outer loop
         vertex 7.502253e+000 3.750000e+001 -1.061030e-001
         vertex 7.520249e+000 3.750000e+001 3.175445e-001
         vertex 1.000000e+001 3.750000e+001 0.000000e+000
      endloop
   endfacet
   facet normal 0.000000e+000 1.000000e+000 0.000000e+000
      outer loop
         vertex 1.000000e+001 3.750000e+001 0.000000e+000
         vertex 7.520249e+000 3.750000e+001 3.175445e-001
         vertex 7.609583e+000 3.750000e+001 7.320569e-001
      endloop
   endfacet
   facet normal 0.000000e+000 1.000000e+000 0.000000e+000
      outer loop
         vertex 1.000000e+001 3.750000e+001 0.000000e+000
         vertex 7.609583e+000 3.750000e+001 7.320569e-001
         vertex 7.767685e+000 3.750000e+001 1.125509e+000
      endloop
   endfacet
   facet normal 0.000000e+000 1.000000e+000 0.000000e+000
      outer loop
         vertex 7.871177e+000 3.750000e+001 -1.310768e+000
         vertex 7.680277e+000 3.750000e+001 -9.321412e-001
         vertex 1.000000e+001 3.750000e+001 0.000000e+000
      endloop
   endfacet
   facet normal 0.000000e+000 1.000000e+000 0.000000e+000
      outer loop
         vertex 1.000000e+001 3.750000e+001 0.000000e+000
         vertex 7.680277e+000 3.750000e+001 -9.321412e-001
         vertex 7.556112e+000 3.750000e+001 -5.266982e-001
      endloop
   endfacet
   facet normal 0.000000e+000 1.000000e+000 0.000000e+000
      outer loop
         vertex 1.000000e+001 3.750000e+001 0.000000e+000
         vertex 7.556112e+000 3.750000e+001 -5.266982e-001
         vertex 7.502253e+000 3.750000e+001 -1.061030e-001
      endloop
   endfacet
   facet normal 0.000000e+000 1.000000e+000 0.000000e+000
      outer loop
         vertex 8.780763e+000 3.750000e+001 -2.182535e+000
         vertex 8.429450e+000 3.750000e+001 -1.945089e+000
         vertex 1.000000e+001 3.750000e+001 0.000000e+000
      endloop
   endfacet
   facet normal 0.000000e+000 1.000000e+000 0.000000e+000
      outer loop
         vertex 1.000000e+001 3.750000e+001 0.000000e+000
         vertex 8.429450e+000 3.750000e+001 -1.945089e+000
         vertex 8.123320e+000 3.750000e+001 -1.651687e+000
      endloop
   endfacet
   facet normal 0.000000e+000 1.000000e+000 0.000000e+000
      outer loop
         vertex 1.000000e+001 3.750000e+001 0.000000e+000
         vertex 8.123320e+000 3.750000e+001 -1.651687e+000
         vertex 7.871177e+000 3.750000e+001 -1.310768e+000
      endloop
   endfacet
   facet normal 0.000000e+000 1.000000e+000 0.000000e+000
      outer loop
         vertex 1.000000e+001 3.750000e+001 -2.500000e+000
         vertex 9.577497e+000 3.750000e+001 -2.464040e+000
         vertex 1.000000e+001 3.750000e+001 0.000000e+000
      endloop
   endfacet
   facet normal 0.000000e+000 1.000000e+000 0.000000e+000
      outer loop
         vertex 1.000000e+001 3.750000e+001 0.000000e+000
         vertex 9.577497e+000 3.750000e+001 -2.464040e+000
         vertex 9.167150e+000 3.750000e+001 -2.357193e+000
      endloop
   endfacet
   facet normal 0.000000e+000 1.000000e+000 0.000000e+000
      outer loop
         vertex 1.000000e+001 3.750000e+001 0.000000e+000
         vertex 9.167150e+000 3.750000e+001 -2.357193e+000
         vertex 8.780763e+000 3.750000e+001 -2.182535e+000
      endloop
   endfacet
   facet normal 0.000000e+000 1.000000e+000 0.000000e+000
      outer loop
         vertex 1.121924e+001 3.750000e+001 -2.182535e+000
         vertex 1.083285e+001 3.750000e+001 -2.357193e+000
         vertex 1.000000e+001 3.750000e+001 0.000000e+000
      endloop
   endfacet
   facet normal 0.000000e+000 1.000000e+000 0.000000e+000
      outer loop
         vertex 1.000000e+001 3.750000e+001 0.000000e+000
         vertex 1.083285e+001 3.750000e+001 -2.357193e+000
         vertex 1.042250e+001 3.750000e+001 -2.464040e+000
      endloop
   endfacet
   facet normal 0.000000e+000 1.000000e+000 0.000000e+000
      outer loop
         vertex 1.000000e+001 3.750000e+001 0.000000e+000
         vertex 1.042250e+001 3.750000e+001 -2.464040e+000
         vertex 1.000000e+001 3.750000e+001 -2.500000e+000
      endloop
   endfacet
   facet normal 0.000000e+000 1.000000e+000 0.000000e+000
      outer loop
         vertex 1.212882e+001 3.750000e+001 -1.310768e+000
         vertex 1.187668e+001 3.750000e+001 -1.651687e+000
         vertex 1.000000e+001 3.750000e+001 0.000000e+000
      endloop
   endfacet
   facet normal 0.000000e+000 1.000000e+000 0.000000e+000
      outer loop
         vertex 1.000000e+001 3.750000e+001 0.000000e+000
         vertex 1.187668e+001 3.750000e+001 -1.651687e+000
         vertex 1.157055e+001 3.750000e+001 -1.945089e+000
      endloop
   endfacet
   facet normal 0.000000e+000 1.000000e+000 0.000000e+000
      outer loop
         vertex 1.000000e+001 3.750000e+001 0.000000e+000
         vertex 1.157055e+001 3.750000e+001 -1.945089e+000
         vertex 1.121924e+001 3.750000e+001 -2.182535e+000
      endloop
   endfacet
   facet normal 0.000000e+000 1.000000e+000 0.000000e+000
      outer loop
         vertex 1.249775e+001 3.750000e+001 -1.061030e-001
         vertex 1.244389e+001 3.750000e+001 -5.266982e-001
         vertex 1.000000e+001 3.750000e+001 0.000000e+000
      endloop
   endfacet
   facet normal 0.000000e+000 1.000000e+000 0.000000e+000
      outer loop
         vertex 1.000000e+001 3.750000e+001 0.000000e+000
         vertex 1.244389e+001 3.750000e+001 -5.266982e-001
         vertex 1.231972e+001 3.750000e+001 -9.321412e-001
      endloop
   endfacet
   facet normal 0.000000e+000 1.000000e+000 0.000000e+000
      outer loop
         vertex 1.000000e+001 3.750000e+001 0.000000e+000
         vertex 1.231972e+001 3.750000e+001 -9.321412e-001
         vertex 1.212882e+001 3.750000e+001 -1.310768e+000
      endloop
   endfacet
   facet normal 0.000000e+000 1.000000e+000 0.000000e+000
      outer loop
         vertex 1.223232e+001 3.750000e+001 1.125509e+000
         vertex 1.239042e+001 3.750000e+001 7.320569e-001
         vertex 1.000000e+001 3.750000e+001 0.000000e+000
      endloop
   endfacet
   facet normal 0.000000e+000 1.000000e+000 0.000000e+000
      outer loop
         vertex 1.000000e+001 3.750000e+001 0.000000e+000
         vertex 1.239042e+001 3.750000e+001 7.320569e-001
         vertex 1.247975e+001 3.750000e+001 3.175445e-001
      endloop
   endfacet
   facet normal 0.000000e+000 1.000000e+000 0.000000e+000
      outer loop
         vertex 1.000000e+001 3.750000e+001 0.000000e+000
         vertex 1.247975e+001 3.750000e+001 3.175445e-001
         vertex 1.249775e+001 3.750000e+001 -1.061030e-001
      endloop
   endfacet
   facet normal 0.000000e+000 1.000000e+000 0.000000e+000
      outer loop
         vertex 1.139994e+001 3.750000e+001 2.071274e+000
         vertex 1.172985e+001 3.750000e+001 1.804890e+000
         vertex 1.000000e+001 3.750000e+001 0.000000e+000
      endloop
   endfacet
   facet normal 0.000000e+000 1.000000e+000 0.000000e+000
      outer loop
         vertex 1.000000e+001 3.750000e+001 0.000000e+000
         vertex 1.172985e+001 3.750000e+001 1.804890e+000
         vertex 1.200999e+001 3.750000e+001 1.486583e+000
      endloop
   endfacet
   facet normal 0.000000e+000 1.000000e+000 0.000000e+000
      outer loop
         vertex 1.000000e+001 3.750000e+001 0.000000e+000
         vertex 1.200999e+001 3.750000e+001 1.486583e+000
         vertex 1.223232e+001 3.750000e+001 1.125509e+000
      endloop
   endfacet
   facet normal 0.000000e+000 1.000000e+000 0.000000e+000
      outer loop
         vertex 1.021201e+001 3.750000e+001 2.490994e+000
         vertex 1.062995e+001 3.750000e+001 2.419332e+000
         vertex 1.000000e+001 3.750000e+001 0.000000e+000
      endloop
   endfacet
   facet normal 0.000000e+000 1.000000e+000 0.000000e+000
      outer loop
         vertex 1.000000e+001 3.750000e+001 0.000000e+000
         vertex 1.062995e+001 3.750000e+001 2.419332e+000
         vertex 1.102975e+001 3.750000e+001 2.278071e+000
      endloop
   endfacet
   facet normal 0.000000e+000 1.000000e+000 0.000000e+000
      outer loop
         vertex 1.000000e+001 3.750000e+001 0.000000e+000
         vertex 1.102975e+001 3.750000e+001 2.278071e+000
         vertex 1.139994e+001 3.750000e+001 2.071274e+000
      endloop
   endfacet
endsolid