solid side support_Default_sldprt
   facet normal 1.000000e+000 0.000000e+000 -1.387779e-016
      outer loop
         vertex 1.000000e+001 2.500000e+000 -5.000000e+001
         vertex 1.000000e+001 2.500000e+000 5.000000e+001
         vertex 1.000000e+001 -2.500000e+000 -5.000000e+001
      endloop
   endfacet
   facet normal 1.000000e+000 0.000000e+000 -1.387779e-016
      outer loop
         vertex 1.000000e+001 -2.500000e+000 -5.000000e+001
         vertex 1.000000e+001 2.500000e+000 5.000000e+001
         vertex 1.000000e+001 -2.500000e+000 5.000000e+001
      endloop
   endfacet
   facet normal 0.000000e+000 0.000000e+000 -1.000000e+000
      outer loop
         vertex -1.000000e+001 2.500000e+000 -5.000000e+001
         vertex 1.000000e+001 2.500000e+000 -5.000000e+001
         vertex -1.000000e+001 -2.500000e+000 -5.000000e+001
      endloop
   endfacet
   facet normal 0.000000e+000 0.000000e+000 -1.000000e+000
      outer loop
         vertex -1.000000e+001 -2.500000e+000 -5.000000e+001
         vertex 1.000000e+001 2.500000e+000 -5.000000e+001
         vertex 1.000000e+001 -2.500000e+000 -5.000000e+001
      endloop
   endfacet
   facet normal -1.000000e+000 0.000000e+000 1.040834e-016
      outer loop
         vertex -1.000000e+001 2.500000e+000 5.000000e+001
         vertex -1.000000e+001 2.500000e+000 -5.000000e+001
         vertex -1.000000e+001 -2.500000e+000 5.000000e+001
      endloop
   endfacet
   facet normal -1.000000e+000 0.000000e+000 1.040834e-016
      outer loop
         vertex -1.000000e+001 -2.500000e+000 5.000000e+001
         vertex -1.000000e+001 2.500000e+000 -5.000000e+001
         vertex -1.000000e+001 -2.500000e+000 -5.000000e+001
      endloop
   endfacet
   facet normal 0.000000e+000 0.000000e+000 1.000000e+000
      outer loop
         vertex 1.000000e+001 -2.500000e+000 5.000000e+001
         vertex 1.000000e+001 2.500000e+000 5.000000e+001
         vertex -1.000000e+001 -2.500000e+000 5.000000e+001
      endloop
   endfacet
   facet normal 0.000000e+000 0.000000e+000 1.000000e+000
      outer loop
         vertex -1.000000e+001 -2.500000e+000 5.000000e+001
         vertex 1.000000e+001 2.500000e+000 5.000000e+001
         vertex 2.500000e+000 2.500000e+000 5.000000e+001
      endloop
   endfacet
   facet normal 0.000000e+000 0.000000e+000 1.000000e+000
      outer loop
         vertex -1.000000e+001 2.500000e+000 5.000000e+001
         vertex -1.000000e+001 -2.500000e+000 5.000000e+001
         vertex -2.500000e+000 2.500000e+000 5.000000e+001
      endloop
   endfacet
   facet normal 0.000000e+000 0.000000e+000 1.000000e+000
      outer loop
         vertex -2.500000e+000 2.500000e+000 5.000000e+001
         vertex -1.000000e+001 -2.500000e+000 5.000000e+001
         vertex 2.500000e+000 2.500000e+000 5.000000e+001
      endloop
   endfacet
   facet normal 0.000000e+000 0.000000e+000 1.000000e+000
      outer loop
         vertex -2.500000e+000 2.500000e+000 5.000000e+001
         vertex 2.500000e+000 2.500000e+000 5.000000e+001
         vertex -2.500000e+000 3.250000e+001 5.000000e+001
      endloop
   endfacet
   facet normal 0.000000e+000 0.000000e+000 1.000000e+000
      outer loop
         vertex -2.500000e+000 3.250000e+001 5.000000e+001
         vertex 2.500000e+000 2.500000e+000 5.000000e+001
         vertex 2.500000e+000 3.250000e+001 5.000000e+001
      endloop
   endfacet
   facet normal 0.000000e+000 1.000000e+000 0.000000e+000
      outer loop
         vertex 2.500000e+000 2.500000e+000 2.000000e+001
         vertex 2.500000e+000 2.500000e+000 5.000000e+001
         vertex 1.000000e+001 2.500000e+000 5.000000e+001
      endloop
   endfacet
   facet normal 0.000000e+000 1.000000e+000 0.000000e+000
      outer loop
         vertex -1.000000e+001 2.500000e+000 -5.000000e+001
         vertex -1.000000e+001 2.500000e+000 5.000000e+001
         vertex -2.500000e+000 2.500000e+000 2.000000e+001
      endloop
   endfacet
   facet normal 0.000000e+000 1.000000e+000 0.000000e+000
      outer loop
         vertex -2.500000e+000 2.500000e+000 2.000000e+001
         vertex -1.000000e+001 2.500000e+000 5.000000e+001
         vertex -2.500000e+000 2.500000e+000 5.000000e+001
      endloop
   endfacet
   facet normal 0.000000e+000 1.000000e+000 0.000000e+000
      outer loop
         vertex -4.225020e-001 2.500000e+000 -3.503596e+001
         vertex -8.328495e-001 2.500000e+000 -3.514281e+001
         vertex -2.500000e+000 2.500000e+000 2.000000e+001
      endloop
   endfacet
   facet normal 0.000000e+000 1.000000e+000 0.000000e+000
      outer loop
         vertex -4.225020e-001 2.500000e+000 -3.503596e+001
         vertex -2.500000e+000 2.500000e+000 2.000000e+001
         vertex 6.938894e-015 2.500000e+000 -3.500000e+001
      endloop
   endfacet
   facet normal 0.000000e+000 1.000000e+000 0.000000e+000
      outer loop
         vertex -1.000000e+001 2.500000e+000 -5.000000e+001
         vertex -1.399937e+000 2.500000e+000 -3.957127e+001
         vertex -1.029753e+000 2.500000e+000 -3.977807e+001
      endloop
   endfacet
   facet normal 0.000000e+000 1.000000e+000 0.000000e+000
      outer loop
         vertex 1.000000e+001 2.500000e+000 -5.000000e+001
         vertex 6.299452e-001 2.500000e+000 -3.991933e+001
         vertex 1.029753e+000 2.500000e+000 -3.977807e+001
      endloop
   endfacet
   facet normal 0.000000e+000 1.000000e+000 0.000000e+000
      outer loop
         vertex 2.128823e+000 2.500000e+000 -3.618923e+001
         vertex 1.876681e+000 2.500000e+000 -3.584831e+001
         vertex 1.000000e+001 2.500000e+000 5.000000e+001
      endloop
   endfacet
   facet normal 0.000000e+000 1.000000e+000 0.000000e+000
      outer loop
         vertex 1.876681e+000 2.500000e+000 -3.584831e+001
         vertex 1.570550e+000 2.500000e+000 -3.555491e+001
         vertex 1.000000e+001 2.500000e+000 5.000000e+001
      endloop
   endfacet
   facet normal 0.000000e+000 1.000000e+000 0.000000e+000
      outer loop
         vertex 1.000000e+001 2.500000e+000 5.000000e+001
         vertex 1.570550e+000 2.500000e+000 -3.555491e+001
         vertex 1.219237e+000 2.500000e+000 -3.531747e+001
      endloop
   endfacet
   facet normal 0.000000e+000 1.000000e+000 0.000000e+000
      outer loop
         vertex 1.000000e+001 2.500000e+000 5.000000e+001
         vertex 1.219237e+000 2.500000e+000 -3.531747e+001
         vertex 8.328495e-001 2.500000e+000 -3.514281e+001
      endloop
   endfacet
   facet normal 0.000000e+000 1.000000e+000 0.000000e+000
      outer loop
         vertex -2.500000e+000 2.500000e+000 2.000000e+001
         vertex 2.500000e+000 2.500000e+000 2.000000e+001
         vertex 6.938894e-015 2.500000e+000 -3.500000e+001
      endloop
   endfacet
   facet normal 0.000000e+000 1.000000e+000 0.000000e+000
      outer loop
         vertex 6.938894e-015 2.500000e+000 -3.500000e+001
         vertex 2.500000e+000 2.500000e+000 2.000000e+001
         vertex 1.000000e+001 2.500000e+000 5.000000e+001
      endloop
   endfacet
   facet normal 0.000000e+000 1.000000e+000 0.000000e+000
      outer loop
         vertex 6.938894e-015 2.500000e+000 -3.500000e+001
         vertex 1.000000e+001 2.500000e+000 5.000000e+001
         vertex 4.225020e-001 2.500000e+000 -3.503596e+001
      endloop
   endfacet
   facet normal 0.000000e+000 1.000000e+000 0.000000e+000
      outer loop
         vertex 4.225020e-001 2.500000e+000 -3.503596e+001
         vertex 1.000000e+001 2.500000e+000 5.000000e+001
         vertex 8.328495e-001 2.500000e+000 -3.514281e+001
      endloop
   endfacet
   facet normal 0.000000e+000 1.000000e+000 0.000000e+000
      outer loop
         vertex -8.328495e-001 2.500000e+000 -3.514281e+001
         vertex -1.219237e+000 2.500000e+000 -3.531747e+001
         vertex -2.500000e+000 2.500000e+000 2.000000e+001
      endloop
   endfacet
   facet normal 0.000000e+000 1.000000e+000 0.000000e+000
      outer loop
         vertex -2.500000e+000 2.500000e+000 2.000000e+001
         vertex -1.219237e+000 2.500000e+000 -3.531747e+001
         vertex -1.570550e+000 2.500000e+000 -3.555491e+001
      endloop
   endfacet
   facet normal 0.000000e+000 1.000000e+000 0.000000e+000
      outer loop
         vertex -2.500000e+000 2.500000e+000 2.000000e+001
         vertex -1.570550e+000 2.500000e+000 -3.555491e+001
         vertex -1.876681e+000 2.500000e+000 -3.584831e+001
      endloop
   endfacet
   facet normal 0.000000e+000 1.000000e+000 0.000000e+000
      outer loop
         vertex -2.497747e+000 2.500000e+000 -3.739390e+001
         vertex -2.479751e+000 2.500000e+000 -3.781755e+001
         vertex -1.000000e+001 2.500000e+000 -5.000000e+001
      endloop
   endfacet
   facet normal 0.000000e+000 1.000000e+000 0.000000e+000
      outer loop
         vertex -1.000000e+001 2.500000e+000 -5.000000e+001
         vertex -2.479751e+000 2.500000e+000 -3.781755e+001
         vertex -2.390417e+000 2.500000e+000 -3.823206e+001
      endloop
   endfacet
   facet normal 0.000000e+000 1.000000e+000 0.000000e+000
      outer loop
         vertex -1.000000e+001 2.500000e+000 -5.000000e+001
         vertex -2.390417e+000 2.500000e+000 -3.823206e+001
         vertex -2.232315e+000 2.500000e+000 -3.862551e+001
      endloop
   endfacet
   facet normal 0.000000e+000 1.000000e+000 0.000000e+000
      outer loop
         vertex -2.232315e+000 2.500000e+000 -3.862551e+001
         vertex -2.009993e+000 2.500000e+000 -3.898658e+001
         vertex -1.000000e+001 2.500000e+000 -5.000000e+001
      endloop
   endfacet
   facet normal 0.000000e+000 1.000000e+000 0.000000e+000
      outer loop
         vertex -1.000000e+001 2.500000e+000 -5.000000e+001
         vertex -2.009993e+000 2.500000e+000 -3.898658e+001
         vertex -1.729847e+000 2.500000e+000 -3.930489e+001
      endloop
   endfacet
   facet normal 0.000000e+000 1.000000e+000 0.000000e+000
      outer loop
         vertex -1.000000e+001 2.500000e+000 -5.000000e+001
         vertex -1.729847e+000 2.500000e+000 -3.930489e+001
         vertex -1.399937e+000 2.500000e+000 -3.957127e+001
      endloop
   endfacet
   facet normal 0.000000e+000 1.000000e+000 0.000000e+000
      outer loop
         vertex -1.029753e+000 2.500000e+000 -3.977807e+001
         vertex -6.299452e-001 2.500000e+000 -3.991933e+001
         vertex -1.000000e+001 2.500000e+000 -5.000000e+001
      endloop
   endfacet
   facet normal 0.000000e+000 1.000000e+000 0.000000e+000
      outer loop
         vertex -1.000000e+001 2.500000e+000 -5.000000e+001
         vertex -6.299452e-001 2.500000e+000 -3.991933e+001
         vertex -2.120148e-001 2.500000e+000 -3.999099e+001
      endloop
   endfacet
   facet normal 0.000000e+000 1.000000e+000 0.000000e+000
      outer loop
         vertex -1.000000e+001 2.500000e+000 -5.000000e+001
         vertex -2.120148e-001 2.500000e+000 -3.999099e+001
         vertex 1.000000e+001 2.500000e+000 -5.000000e+001
      endloop
   endfacet
   facet normal 0.000000e+000 1.000000e+000 0.000000e+000
      outer loop
         vertex 1.000000e+001 2.500000e+000 -5.000000e+001
         vertex -2.120148e-001 2.500000e+000 -3.999099e+001
         vertex 2.120148e-001 2.500000e+000 -3.999099e+001
      endloop
   endfacet
   facet normal 0.000000e+000 1.000000e+000 0.000000e+000
      outer loop
         vertex 1.000000e+001 2.500000e+000 -5.000000e+001
         vertex 2.120148e-001 2.500000e+000 -3.999099e+001
         vertex 6.299452e-001 2.500000e+000 -3.991933e+001
      endloop
   endfacet
   facet normal 0.000000e+000 1.000000e+000 0.000000e+000
      outer loop
         vertex 1.029753e+000 2.500000e+000 -3.977807e+001
         vertex 1.399937e+000 2.500000e+000 -3.957127e+001
         vertex 1.000000e+001 2.500000e+000 -5.000000e+001
      endloop
   endfacet
   facet normal 0.000000e+000 1.000000e+000 0.000000e+000
      outer loop
         vertex 1.000000e+001 2.500000e+000 -5.000000e+001
         vertex 1.399937e+000 2.500000e+000 -3.957127e+001
         vertex 1.729847e+000 2.500000e+000 -3.930489e+001
      endloop
   endfacet
   facet normal 0.000000e+000 1.000000e+000 0.000000e+000
      outer loop
         vertex 1.000000e+001 2.500000e+000 -5.000000e+001
         vertex 1.729847e+000 2.500000e+000 -3.930489e+001
         vertex 2.009993e+000 2.500000e+000 -3.898658e+001
      endloop
   endfacet
   facet normal 0.000000e+000 1.000000e+000 0.000000e+000
      outer loop
         vertex -1.876681e+000 2.500000e+000 -3.584831e+001
         vertex -2.128823e+000 2.500000e+000 -3.618923e+001
         vertex -2.500000e+000 2.500000e+000 2.000000e+001
      endloop
   endfacet
   facet normal 0.000000e+000 1.000000e+000 0.000000e+000
      outer loop
         vertex -2.500000e+000 2.500000e+000 2.000000e+001
         vertex -2.128823e+000 2.500000e+000 -3.618923e+001
         vertex -2.319723e+000 2.500000e+000 -3.656786e+001
      endloop
   endfacet
   facet normal 0.000000e+000 1.000000e+000 0.000000e+000
      outer loop
         vertex -2.500000e+000 2.500000e+000 2.000000e+001
         vertex -2.319723e+000 2.500000e+000 -3.656786e+001
         vertex -1.000000e+001 2.500000e+000 -5.000000e+001
      endloop
   endfacet
   facet normal 0.000000e+000 1.000000e+000 0.000000e+000
      outer loop
         vertex -1.000000e+001 2.500000e+000 -5.000000e+001
         vertex -2.319723e+000 2.500000e+000 -3.656786e+001
         vertex -2.443888e+000 2.500000e+000 -3.697330e+001
      endloop
   endfacet
   facet normal 0.000000e+000 1.000000e+000 0.000000e+000
      outer loop
         vertex -1.000000e+001 2.500000e+000 -5.000000e+001
         vertex -2.443888e+000 2.500000e+000 -3.697330e+001
         vertex -2.497747e+000 2.500000e+000 -3.739390e+001
      endloop
   endfacet
   facet normal 0.000000e+000 1.000000e+000 0.000000e+000
      outer loop
         vertex 2.009993e+000 2.500000e+000 -3.898658e+001
         vertex 2.232315e+000 2.500000e+000 -3.862551e+001
         vertex 1.000000e+001 2.500000e+000 -5.000000e+001
      endloop
   endfacet
   facet normal 0.000000e+000 1.000000e+000 0.000000e+000
      outer loop
         vertex 1.000000e+001 2.500000e+000 -5.000000e+001
         vertex 2.232315e+000 2.500000e+000 -3.862551e+001
         vertex 2.390417e+000 2.500000e+000 -3.823206e+001
      endloop
   endfacet
   facet normal 0.000000e+000 1.000000e+000 0.000000e+000
      outer loop
         vertex 1.000000e+001 2.500000e+000 -5.000000e+001
         vertex 2.390417e+000 2.500000e+000 -3.823206e+001
         vertex 2.479751e+000 2.500000e+000 -3.781755e+001
      endloop
   endfacet
   facet normal 0.000000e+000 1.000000e+000 0.000000e+000
      outer loop
         vertex 2.479751e+000 2.500000e+000 -3.781755e+001
         vertex 2.497747e+000 2.500000e+000 -3.739390e+001
         vertex 1.000000e+001 2.500000e+000 -5.000000e+001
      endloop
   endfacet
   facet normal 0.000000e+000 1.000000e+000 0.000000e+000
      outer loop
         vertex 1.000000e+001 2.500000e+000 -5.000000e+001
         vertex 2.497747e+000 2.500000e+000 -3.739390e+001
         vertex 2.443888e+000 2.500000e+000 -3.697330e+001
      endloop
   endfacet
   facet normal 0.000000e+000 1.000000e+000 0.000000e+000
      outer loop
         vertex 1.000000e+001 2.500000e+000 -5.000000e+001
         vertex 2.443888e+000 2.500000e+000 -3.697330e+001
         vertex 1.000000e+001 2.500000e+000 5.000000e+001
      endloop
   endfacet
   facet normal 0.000000e+000 1.000000e+000 0.000000e+000
      outer loop
         vertex 1.000000e+001 2.500000e+000 5.000000e+001
         vertex 2.443888e+000 2.500000e+000 -3.697330e+001
         vertex 2.319723e+000 2.500000e+000 -3.656786e+001
      endloop
   endfacet
   facet normal 0.000000e+000 1.000000e+000 0.000000e+000
      outer loop
         vertex 1.000000e+001 2.500000e+000 5.000000e+001
         vertex 2.319723e+000 2.500000e+000 -3.656786e+001
         vertex 2.128823e+000 2.500000e+000 -3.618923e+001
      endloop
   endfacet
   facet normal 0.000000e+000 -1.000000e+000 0.000000e+000
      outer loop
         vertex -1.000000e+001 -2.500000e+000 -5.000000e+001
         vertex -6.299452e-001 -2.500000e+000 -3.991933e+001
         vertex -1.029753e+000 -2.500000e+000 -3.977807e+001
      endloop
   endfacet
   facet normal 0.000000e+000 -1.000000e+000 0.000000e+000
      outer loop
         vertex 1.029753e+000 -2.500000e+000 -3.977807e+001
         vertex 6.299452e-001 -2.500000e+000 -3.991933e+001
         vertex 1.000000e+001 -2.500000e+000 -5.000000e+001
      endloop
   endfacet
   facet normal 0.000000e+000 -1.000000e+000 0.000000e+000
      outer loop
         vertex 1.000000e+001 -2.500000e+000 -5.000000e+001
         vertex 6.299452e-001 -2.500000e+000 -3.991933e+001
         vertex 2.120148e-001 -2.500000e+000 -3.999099e+001
      endloop
   endfacet
   facet normal 0.000000e+000 -1.000000e+000 0.000000e+000
      outer loop
         vertex 1.000000e+001 -2.500000e+000 -5.000000e+001
         vertex 2.120148e-001 -2.500000e+000 -3.999099e+001
         vertex -1.000000e+001 -2.500000e+000 -5.000000e+001
      endloop
   endfacet
   facet normal 0.000000e+000 -1.000000e+000 0.000000e+000
      outer loop
         vertex -1.000000e+001 -2.500000e+000 -5.000000e+001
         vertex 2.120148e-001 -2.500000e+000 -3.999099e+001
         vertex -2.120148e-001 -2.500000e+000 -3.999099e+001
      endloop
   endfacet
   facet normal 0.000000e+000 -1.000000e+000 0.000000e+000
      outer loop
         vertex -1.000000e+001 -2.500000e+000 -5.000000e+001
         vertex -2.120148e-001 -2.500000e+000 -3.999099e+001
         vertex -6.299452e-001 -2.500000e+000 -3.991933e+001
      endloop
   endfacet
   facet normal 0.000000e+000 -1.000000e+000 0.000000e+000
      outer loop
         vertex 8.328495e-001 -2.500000e+000 -3.514281e+001
         vertex 1.219237e+000 -2.500000e+000 -3.531747e+001
         vertex 1.000000e+001 -2.500000e+000 5.000000e+001
      endloop
   endfacet
   facet normal 0.000000e+000 -1.000000e+000 0.000000e+000
      outer loop
         vertex 1.000000e+001 -2.500000e+000 5.000000e+001
         vertex 1.219237e+000 -2.500000e+000 -3.531747e+001
         vertex 1.570550e+000 -2.500000e+000 -3.555491e+001
      endloop
   endfacet
   facet normal 0.000000e+000 -1.000000e+000 0.000000e+000
      outer loop
         vertex 1.000000e+001 -2.500000e+000 5.000000e+001
         vertex 1.570550e+000 -2.500000e+000 -3.555491e+001
         vertex 1.876681e+000 -2.500000e+000 -3.584831e+001
      endloop
   endfacet
   facet normal 0.000000e+000 -1.000000e+000 0.000000e+000
      outer loop
         vertex 2.232315e+000 -2.500000e+000 -3.862551e+001
         vertex 2.009993e+000 -2.500000e+000 -3.898658e+001
         vertex 1.000000e+001 -2.500000e+000 -5.000000e+001
      endloop
   endfacet
   facet normal 0.000000e+000 -1.000000e+000 0.000000e+000
      outer loop
         vertex -1.029753e+000 -2.500000e+000 -3.977807e+001
         vertex -1.399937e+000 -2.500000e+000 -3.957127e+001
         vertex -1.000000e+001 -2.500000e+000 -5.000000e+001
      endloop
   endfacet
   facet normal 0.000000e+000 -1.000000e+000 0.000000e+000
      outer loop
         vertex -1.000000e+001 -2.500000e+000 -5.000000e+001
         vertex -1.399937e+000 -2.500000e+000 -3.957127e+001
         vertex -1.729847e+000 -2.500000e+000 -3.930489e+001
      endloop
   endfacet
   facet normal 0.000000e+000 -1.000000e+000 0.000000e+000
      outer loop
         vertex -1.000000e+001 -2.500000e+000 -5.000000e+001
         vertex -1.729847e+000 -2.500000e+000 -3.930489e+001
         vertex -2.009993e+000 -2.500000e+000 -3.898658e+001
      endloop
   endfacet
   facet normal 0.000000e+000 -1.000000e+000 0.000000e+000
      outer loop
         vertex -2.009993e+000 -2.500000e+000 -3.898658e+001
         vertex -2.232315e+000 -2.500000e+000 -3.862551e+001
         vertex -1.000000e+001 -2.500000e+000 -5.000000e+001
      endloop
   endfacet
   facet normal 0.000000e+000 -1.000000e+000 0.000000e+000
      outer loop
         vertex -1.000000e+001 -2.500000e+000 -5.000000e+001
         vertex -2.232315e+000 -2.500000e+000 -3.862551e+001
         vertex -2.390417e+000 -2.500000e+000 -3.823206e+001
      endloop
   endfacet
   facet normal 0.000000e+000 -1.000000e+000 0.000000e+000
      outer loop
         vertex -1.000000e+001 -2.500000e+000 -5.000000e+001
         vertex -2.390417e+000 -2.500000e+000 -3.823206e+001
         vertex -2.479751e+000 -2.500000e+000 -3.781755e+001
      endloop
   endfacet
   facet normal 0.000000e+000 -1.000000e+000 0.000000e+000
      outer loop
         vertex -2.128823e+000 -2.500000e+000 -3.618923e+001
         vertex -1.876681e+000 -2.500000e+000 -3.584831e+001
         vertex -1.000000e+001 -2.500000e+000 5.000000e+001
      endloop
   endfacet
   facet normal 0.000000e+000 -1.000000e+000 0.000000e+000
      outer loop
         vertex -8.328495e-001 -2.500000e+000 -3.514281e+001
         vertex -4.225020e-001 -2.500000e+000 -3.503596e+001
         vertex -1.000000e+001 -2.500000e+000 5.000000e+001
      endloop
   endfacet
   facet normal 0.000000e+000 -1.000000e+000 0.000000e+000
      outer loop
         vertex -1.000000e+001 -2.500000e+000 5.000000e+001
         vertex -4.225020e-001 -2.500000e+000 -3.503596e+001
         vertex 6.326570e-015 -2.500000e+000 -3.500000e+001
      endloop
   endfacet
   facet normal 0.000000e+000 -1.000000e+000 0.000000e+000
      outer loop
         vertex -1.000000e+001 -2.500000e+000 5.000000e+001
         vertex 6.326570e-015 -2.500000e+000 -3.500000e+001
         vertex 1.000000e+001 -2.500000e+000 5.000000e+001
      endloop
   endfacet
   facet normal 0.000000e+000 -1.000000e+000 0.000000e+000
      outer loop
         vertex 1.000000e+001 -2.500000e+000 5.000000e+001
         vertex 6.326570e-015 -2.500000e+000 -3.500000e+001
         vertex 4.225020e-001 -2.500000e+000 -3.503596e+001
      endloop
   endfacet
   facet normal 0.000000e+000 -1.000000e+000 0.000000e+000
      outer loop
         vertex 1.000000e+001 -2.500000e+000 5.000000e+001
         vertex 4.225020e-001 -2.500000e+000 -3.503596e+001
         vertex 8.328495e-001 -2.500000e+000 -3.514281e+001
      endloop
   endfacet
   facet normal 0.000000e+000 -1.000000e+000 0.000000e+000
      outer loop
         vertex 1.876681e+000 -2.500000e+000 -3.584831e+001
         vertex 2.128823e+000 -2.500000e+000 -3.618923e+001
         vertex 1.000000e+001 -2.500000e+000 5.000000e+001
      endloop
   endfacet
   facet normal 0.000000e+000 -1.000000e+000 0.000000e+000
      outer loop
         vertex 1.000000e+001 -2.500000e+000 5.000000e+001
         vertex 2.128823e+000 -2.500000e+000 -3.618923e+001
         vertex 2.319723e+000 -2.500000e+000 -3.656786e+001
      endloop
   endfacet
   facet normal 0.000000e+000 -1.000000e+000 0.000000e+000
      outer loop
         vertex 1.000000e+001 -2.500000e+000 5.000000e+001
         vertex 2.319723e+000 -2.500000e+000 -3.656786e+001
         vertex 1.000000e+001 -2.500000e+000 -5.000000e+001
      endloop
   endfacet
   facet normal 0.000000e+000 -1.000000e+000 0.000000e+000
      outer loop
         vertex 1.000000e+001 -2.500000e+000 -5.000000e+001
         vertex 2.319723e+000 -2.500000e+000 -3.656786e+001
         vertex 2.443888e+000 -2.500000e+000 -3.697330e+001
      endloop
   endfacet
   facet normal 0.000000e+000 -1.000000e+000 0.000000e+000
      outer loop
         vertex 1.000000e+001 -2.500000e+000 -5.000000e+001
         vertex 2.443888e+000 -2.500000e+000 -3.697330e+001
         vertex 2.497747e+000 -2.500000e+000 -3.739390e+001
      endloop
   endfacet
   facet normal 0.000000e+000 -1.000000e+000 0.000000e+000
      outer loop
         vertex 2.009993e+000 -2.500000e+000 -3.898658e+001
         vertex 1.729847e+000 -2.500000e+000 -3.930489e+001
         vertex 1.000000e+001 -2.500000e+000 -5.000000e+001
      endloop
   endfacet
   facet normal 0.000000e+000 -1.000000e+000 0.000000e+000
      outer loop
         vertex 1.000000e+001 -2.500000e+000 -5.000000e+001
         vertex 1.729847e+000 -2.500000e+000 -3.930489e+001
         vertex 1.399937e+000 -2.500000e+000 -3.957127e+001
      endloop
   endfacet
   facet normal 0.000000e+000 -1.000000e+000 0.000000e+000
      outer loop
         vertex 1.000000e+001 -2.500000e+000 -5.000000e+001
         vertex 1.399937e+000 -2.500000e+000 -3.957127e+001
         vertex 1.029753e+000 -2.500000e+000 -3.977807e+001
      endloop
   endfacet
   facet normal 0.000000e+000 -1.000000e+000 0.000000e+000
      outer loop
         vertex -2.479751e+000 -2.500000e+000 -3.781755e+001
         vertex -2.497747e+000 -2.500000e+000 -3.739390e+001
         vertex -1.000000e+001 -2.500000e+000 -5.000000e+001
      endloop
   endfacet
   facet normal 0.000000e+000 -1.000000e+000 0.000000e+000
      outer loop
         vertex -1.000000e+001 -2.500000e+000 -5.000000e+001
         vertex -2.497747e+000 -2.500000e+000 -3.739390e+001
         vertex -2.443888e+000 -2.500000e+000 -3.697330e+001
      endloop
   endfacet
   facet normal 0.000000e+000 -1.000000e+000 0.000000e+000
      outer loop
         vertex -1.000000e+001 -2.500000e+000 -5.000000e+001
         vertex -2.443888e+000 -2.500000e+000 -3.697330e+001
         vertex -1.000000e+001 -2.500000e+000 5.000000e+001
      endloop
   endfacet
   facet normal 0.000000e+000 -1.000000e+000 0.000000e+000
      outer loop
         vertex -1.000000e+001 -2.500000e+000 5.000000e+001
         vertex -2.443888e+000 -2.500000e+000 -3.697330e+001
         vertex -2.319723e+000 -2.500000e+000 -3.656786e+001
      endloop
   endfacet
   facet normal 0.000000e+000 -1.000000e+000 0.000000e+000
      outer loop
         vertex -1.000000e+001 -2.500000e+000 5.000000e+001
         vertex -2.319723e+000 -2.500000e+000 -3.656786e+001
         vertex -2.128823e+000 -2.500000e+000 -3.618923e+001
      endloop
   endfacet
   facet normal 0.000000e+000 -1.000000e+000 0.000000e+000
      outer loop
         vertex 2.497747e+000 -2.500000e+000 -3.739390e+001
         vertex 2.479751e+000 -2.500000e+000 -3.781755e+001
         vertex 1.000000e+001 -2.500000e+000 -5.000000e+001
      endloop
   endfacet
   facet normal 0.000000e+000 -1.000000e+000 0.000000e+000
      outer loop
         vertex 1.000000e+001 -2.500000e+000 -5.000000e+001
         vertex 2.479751e+000 -2.500000e+000 -3.781755e+001
         vertex 2.390417e+000 -2.500000e+000 -3.823206e+001
      endloop
   endfacet
   facet normal 0.000000e+000 -1.000000e+000 0.000000e+000
      outer loop
         vertex 1.000000e+001 -2.500000e+000 -5.000000e+001
         vertex 2.390417e+000 -2.500000e+000 -3.823206e+001
         vertex 2.232315e+000 -2.500000e+000 -3.862551e+001
      endloop
   endfacet
   facet normal 0.000000e+000 -1.000000e+000 0.000000e+000
      outer loop
         vertex -1.876681e+000 -2.500000e+000 -3.584831e+001
         vertex -1.570550e+000 -2.500000e+000 -3.555491e+001
         vertex -1.000000e+001 -2.500000e+000 5.000000e+001
      endloop
   endfacet
   facet normal 0.000000e+000 -1.000000e+000 0.000000e+000
      outer loop
         vertex -1.000000e+001 -2.500000e+000 5.000000e+001
         vertex -1.570550e+000 -2.500000e+000 -3.555491e+001
         vertex -1.219237e+000 -2.500000e+000 -3.531747e+001
      endloop
   endfacet
   facet normal 0.000000e+000 -1.000000e+000 0.000000e+000
      outer loop
         vertex -1.000000e+001 -2.500000e+000 5.000000e+001
         vertex -1.219237e+000 -2.500000e+000 -3.531747e+001
         vertex -8.328495e-001 -2.500000e+000 -3.514281e+001
      endloop
   endfacet
   facet normal 1.000000e+000 0.000000e+000 0.000000e+000
      outer loop
         vertex 2.500000e+000 1.852975e+001 3.272193e+001
         vertex 2.500000e+000 3.250000e+001 2.000000e+001
         vertex 2.500000e+000 1.889994e+001 3.292873e+001
      endloop
   endfacet
   facet normal 1.000000e+000 0.000000e+000 0.000000e+000
      outer loop
         vertex 2.500000e+000 1.889994e+001 3.292873e+001
         vertex 2.500000e+000 3.250000e+001 2.000000e+001
         vertex 2.500000e+000 1.922985e+001 3.319511e+001
      endloop
   endfacet
   facet normal 1.000000e+000 0.000000e+000 0.000000e+000
      outer loop
         vertex 2.500000e+000 1.852975e+001 3.272193e+001
         vertex 2.500000e+000 1.812994e+001 3.258067e+001
         vertex 2.500000e+000 3.250000e+001 2.000000e+001
      endloop
   endfacet
   facet normal 1.000000e+000 0.000000e+000 0.000000e+000
      outer loop
         vertex 2.500000e+000 3.250000e+001 2.000000e+001
         vertex 2.500000e+000 1.812994e+001 3.258067e+001
         vertex 2.500000e+000 1.771202e+001 3.250901e+001
      endloop
   endfacet
   facet normal 1.000000e+000 0.000000e+000 0.000000e+000
      outer loop
         vertex 2.500000e+000 3.250000e+001 2.000000e+001
         vertex 2.500000e+000 1.771202e+001 3.250901e+001
         vertex 2.500000e+000 2.500000e+000 2.000000e+001
      endloop
   endfacet
   facet normal 1.000000e+000 0.000000e+000 0.000000e+000
      outer loop
         vertex 2.500000e+000 2.500000e+000 2.000000e+001
         vertex 2.500000e+000 1.771202e+001 3.250901e+001
         vertex 2.500000e+000 1.728798e+001 3.250901e+001
      endloop
   endfacet
   facet normal 1.000000e+000 0.000000e+000 0.000000e+000
      outer loop
         vertex 2.500000e+000 1.728798e+001 3.250901e+001
         vertex 2.500000e+000 1.687006e+001 3.258067e+001
         vertex 2.500000e+000 2.500000e+000 2.000000e+001
      endloop
   endfacet
   facet normal 1.000000e+000 0.000000e+000 0.000000e+000
      outer loop
         vertex 2.500000e+000 2.500000e+000 2.000000e+001
         vertex 2.500000e+000 1.687006e+001 3.258067e+001
         vertex 2.500000e+000 1.647025e+001 3.272193e+001
      endloop
   endfacet
   facet normal 1.000000e+000 0.000000e+000 0.000000e+000
      outer loop
         vertex 2.500000e+000 2.500000e+000 2.000000e+001
         vertex 2.500000e+000 1.647025e+001 3.272193e+001
         vertex 2.500000e+000 1.610006e+001 3.292873e+001
      endloop
   endfacet
   facet normal 1.000000e+000 0.000000e+000 0.000000e+000
      outer loop
         vertex 2.500000e+000 3.250000e+001 2.000000e+001
         vertex 2.500000e+000 1.997975e+001 3.468246e+001
         vertex 2.500000e+000 1.989042e+001 3.426794e+001
      endloop
   endfacet
   facet normal 1.000000e+000 0.000000e+000 0.000000e+000
      outer loop
         vertex 2.500000e+000 1.989042e+001 3.426794e+001
         vertex 2.500000e+000 1.973232e+001 3.387449e+001
         vertex 2.500000e+000 3.250000e+001 2.000000e+001
      endloop
   endfacet
   facet normal 1.000000e+000 0.000000e+000 0.000000e+000
      outer loop
         vertex 2.500000e+000 3.250000e+001 2.000000e+001
         vertex 2.500000e+000 1.973232e+001 3.387449e+001
         vertex 2.500000e+000 1.950999e+001 3.351342e+001
      endloop
   endfacet
   facet normal 1.000000e+000 0.000000e+000 0.000000e+000
      outer loop
         vertex 2.500000e+000 3.250000e+001 2.000000e+001
         vertex 2.500000e+000 1.950999e+001 3.351342e+001
         vertex 2.500000e+000 1.922985e+001 3.319511e+001
      endloop
   endfacet
   facet normal 1.000000e+000 0.000000e+000 0.000000e+000
      outer loop
         vertex 2.500000e+000 1.610006e+001 3.292873e+001
         vertex 2.500000e+000 1.577015e+001 3.319511e+001
         vertex 2.500000e+000 2.500000e+000 2.000000e+001
      endloop
   endfacet
   facet normal 1.000000e+000 0.000000e+000 0.000000e+000
      outer loop
         vertex 2.500000e+000 2.500000e+000 2.000000e+001
         vertex 2.500000e+000 1.577015e+001 3.319511e+001
         vertex 2.500000e+000 1.549001e+001 3.351342e+001
      endloop
   endfacet
   facet normal 1.000000e+000 0.000000e+000 0.000000e+000
      outer loop
         vertex 2.500000e+000 2.500000e+000 2.000000e+001
         vertex 2.500000e+000 1.549001e+001 3.351342e+001
         vertex 2.500000e+000 1.526768e+001 3.387449e+001
      endloop
   endfacet
   facet normal 1.000000e+000 0.000000e+000 0.000000e+000
      outer loop
         vertex 2.500000e+000 1.526768e+001 3.387449e+001
         vertex 2.500000e+000 1.510958e+001 3.426794e+001
         vertex 2.500000e+000 2.500000e+000 2.000000e+001
      endloop
   endfacet
   facet normal 1.000000e+000 0.000000e+000 0.000000e+000
      outer loop
         vertex 2.500000e+000 2.500000e+000 2.000000e+001
         vertex 2.500000e+000 1.510958e+001 3.426794e+001
         vertex 2.500000e+000 1.502025e+001 3.468246e+001
      endloop
   endfacet
   facet normal 1.000000e+000 0.000000e+000 0.000000e+000
      outer loop
         vertex 2.500000e+000 2.500000e+000 2.000000e+001
         vertex 2.500000e+000 1.502025e+001 3.468246e+001
         vertex 2.500000e+000 2.500000e+000 5.000000e+001
      endloop
   endfacet
   facet normal 1.000000e+000 0.000000e+000 0.000000e+000
      outer loop
         vertex 2.500000e+000 2.500000e+000 5.000000e+001
         vertex 2.500000e+000 1.502025e+001 3.468246e+001
         vertex 2.500000e+000 1.500225e+001 3.510610e+001
      endloop
   endfacet
   facet normal 1.000000e+000 0.000000e+000 0.000000e+000
      outer loop
         vertex 2.500000e+000 2.500000e+000 5.000000e+001
         vertex 2.500000e+000 1.500225e+001 3.510610e+001
         vertex 2.500000e+000 1.505611e+001 3.552670e+001
      endloop
   endfacet
   facet normal 1.000000e+000 0.000000e+000 0.000000e+000
      outer loop
         vertex 2.500000e+000 1.997975e+001 3.468246e+001
         vertex 2.500000e+000 3.250000e+001 2.000000e+001
         vertex 2.500000e+000 1.999775e+001 3.510610e+001
      endloop
   endfacet
   facet normal 1.000000e+000 0.000000e+000 0.000000e+000
      outer loop
         vertex 2.500000e+000 1.999775e+001 3.510610e+001
         vertex 2.500000e+000 3.250000e+001 2.000000e+001
         vertex 2.500000e+000 3.250000e+001 5.000000e+001
      endloop
   endfacet
   facet normal 1.000000e+000 0.000000e+000 0.000000e+000
      outer loop
         vertex 2.500000e+000 1.999775e+001 3.510610e+001
         vertex 2.500000e+000 3.250000e+001 5.000000e+001
         vertex 2.500000e+000 1.994389e+001 3.552670e+001
      endloop
   endfacet
   facet normal 1.000000e+000 0.000000e+000 0.000000e+000
      outer loop
         vertex 2.500000e+000 1.505611e+001 3.552670e+001
         vertex 2.500000e+000 1.518028e+001 3.593214e+001
         vertex 2.500000e+000 2.500000e+000 5.000000e+001
      endloop
   endfacet
   facet normal 1.000000e+000 0.000000e+000 0.000000e+000
      outer loop
         vertex 2.500000e+000 2.500000e+000 5.000000e+001
         vertex 2.500000e+000 1.518028e+001 3.593214e+001
         vertex 2.500000e+000 1.537118e+001 3.631077e+001
      endloop
   endfacet
   facet normal 1.000000e+000 0.000000e+000 0.000000e+000
      outer loop
         vertex 2.500000e+000 2.500000e+000 5.000000e+001
         vertex 2.500000e+000 1.537118e+001 3.631077e+001
         vertex 2.500000e+000 1.562332e+001 3.665169e+001
      endloop
   endfacet
   facet normal 1.000000e+000 0.000000e+000 0.000000e+000
      outer loop
         vertex 2.500000e+000 1.562332e+001 3.665169e+001
         vertex 2.500000e+000 1.592945e+001 3.694509e+001
         vertex 2.500000e+000 2.500000e+000 5.000000e+001
      endloop
   endfacet
   facet normal 1.000000e+000 0.000000e+000 0.000000e+000
      outer loop
         vertex 2.500000e+000 2.500000e+000 5.000000e+001
         vertex 2.500000e+000 1.592945e+001 3.694509e+001
         vertex 2.500000e+000 1.628076e+001 3.718254e+001
      endloop
   endfacet
   facet normal 1.000000e+000 0.000000e+000 0.000000e+000
      outer loop
         vertex 2.500000e+000 2.500000e+000 5.000000e+001
         vertex 2.500000e+000 1.628076e+001 3.718254e+001
         vertex 2.500000e+000 1.666715e+001 3.735719e+001
      endloop
   endfacet
   facet normal 1.000000e+000 0.000000e+000 0.000000e+000
      outer loop
         vertex 2.500000e+000 1.833285e+001 3.735719e+001
         vertex 2.500000e+000 1.871924e+001 3.718254e+001
         vertex 2.500000e+000 3.250000e+001 5.000000e+001
      endloop
   endfacet
   facet normal 1.000000e+000 0.000000e+000 0.000000e+000
      outer loop
         vertex 2.500000e+000 3.250000e+001 5.000000e+001
         vertex 2.500000e+000 1.871924e+001 3.718254e+001
         vertex 2.500000e+000 1.907055e+001 3.694509e+001
      endloop
   endfacet
   facet normal 1.000000e+000 0.000000e+000 0.000000e+000
      outer loop
         vertex 2.500000e+000 3.250000e+001 5.000000e+001
         vertex 2.500000e+000 1.907055e+001 3.694509e+001
         vertex 2.500000e+000 1.937668e+001 3.665169e+001
      endloop
   endfacet
   facet normal 1.000000e+000 0.000000e+000 0.000000e+000
      outer loop
         vertex 2.500000e+000 1.937668e+001 3.665169e+001
         vertex 2.500000e+000 1.962882e+001 3.631077e+001
         vertex 2.500000e+000 3.250000e+001 5.000000e+001
      endloop
   endfacet
   facet normal 1.000000e+000 0.000000e+000 0.000000e+000
      outer loop
         vertex 2.500000e+000 3.250000e+001 5.000000e+001
         vertex 2.500000e+000 1.962882e+001 3.631077e+001
         vertex 2.500000e+000 1.981972e+001 3.593214e+001
      endloop
   endfacet
   facet normal 1.000000e+000 0.000000e+000 0.000000e+000
      outer loop
         vertex 2.500000e+000 3.250000e+001 5.000000e+001
         vertex 2.500000e+000 1.981972e+001 3.593214e+001
         vertex 2.500000e+000 1.994389e+001 3.552670e+001
      endloop
   endfacet
   facet normal 1.000000e+000 0.000000e+000 0.000000e+000
      outer loop
         vertex 2.500000e+000 1.666715e+001 3.735719e+001
         vertex 2.500000e+000 1.707750e+001 3.746404e+001
         vertex 2.500000e+000 2.500000e+000 5.000000e+001
      endloop
   endfacet
   facet normal 1.000000e+000 0.000000e+000 0.000000e+000
      outer loop
         vertex 2.500000e+000 2.500000e+000 5.000000e+001
         vertex 2.500000e+000 1.707750e+001 3.746404e+001
         vertex 2.500000e+000 1.750000e+001 3.750000e+001
      endloop
   endfacet
   facet normal 1.000000e+000 0.000000e+000 0.000000e+000
      outer loop
         vertex 2.500000e+000 2.500000e+000 5.000000e+001
         vertex 2.500000e+000 1.750000e+001 3.750000e+001
         vertex 2.500000e+000 3.250000e+001 5.000000e+001
      endloop
   endfacet
   facet normal 1.000000e+000 0.000000e+000 0.000000e+000
      outer loop
         vertex 2.500000e+000 3.250000e+001 5.000000e+001
         vertex 2.500000e+000 1.750000e+001 3.750000e+001
         vertex 2.500000e+000 1.792250e+001 3.746404e+001
      endloop
   endfacet
   facet normal 1.000000e+000 0.000000e+000 0.000000e+000
      outer loop
         vertex 2.500000e+000 3.250000e+001 5.000000e+001
         vertex 2.500000e+000 1.792250e+001 3.746404e+001
         vertex 2.500000e+000 1.833285e+001 3.735719e+001
      endloop
   endfacet
   facet normal 0.000000e+000 0.000000e+000 -1.000000e+000
      outer loop
         vertex -2.500000e+000 3.250000e+001 2.000000e+001
         vertex 2.500000e+000 3.250000e+001 2.000000e+001
         vertex -2.500000e+000 2.500000e+000 2.000000e+001
      endloop
   endfacet
   facet normal 0.000000e+000 0.000000e+000 -1.000000e+000
      outer loop
         vertex -2.500000e+000 2.500000e+000 2.000000e+001
         vertex 2.500000e+000 3.250000e+001 2.000000e+001
         vertex 2.500000e+000 2.500000e+000 2.000000e+001
      endloop
   endfacet
   facet normal -1.000000e+000 0.000000e+000 0.000000e+000
      outer loop
         vertex -2.500000e+000 1.647025e+001 3.272193e+001
         vertex -2.500000e+000 1.687006e+001 3.258067e+001
         vertex -2.500000e+000 2.500000e+000 2.000000e+001
      endloop
   endfacet
   facet normal -1.000000e+000 0.000000e+000 0.000000e+000
      outer loop
         vertex -2.500000e+000 1.647025e+001 3.272193e+001
         vertex -2.500000e+000 2.500000e+000 2.000000e+001
         vertex -2.500000e+000 1.610006e+001 3.292873e+001
      endloop
   endfacet
   facet normal -1.000000e+000 0.000000e+000 0.000000e+000
      outer loop
         vertex -2.500000e+000 3.250000e+001 2.000000e+001
         vertex -2.500000e+000 1.812994e+001 3.258067e+001
         vertex -2.500000e+000 1.852975e+001 3.272193e+001
      endloop
   endfacet
   facet normal -1.000000e+000 0.000000e+000 0.000000e+000
      outer loop
         vertex -2.500000e+000 3.250000e+001 2.000000e+001
         vertex -2.500000e+000 1.950999e+001 3.351342e+001
         vertex -2.500000e+000 1.973232e+001 3.387449e+001
      endloop
   endfacet
   facet normal -1.000000e+000 0.000000e+000 0.000000e+000
      outer loop
         vertex -2.500000e+000 1.592945e+001 3.694509e+001
         vertex -2.500000e+000 2.500000e+000 5.000000e+001
         vertex -2.500000e+000 1.628076e+001 3.718254e+001
      endloop
   endfacet
   facet normal -1.000000e+000 0.000000e+000 0.000000e+000
      outer loop
         vertex -2.500000e+000 1.628076e+001 3.718254e+001
         vertex -2.500000e+000 2.500000e+000 5.000000e+001
         vertex -2.500000e+000 1.666715e+001 3.735719e+001
      endloop
   endfacet
   facet normal -1.000000e+000 0.000000e+000 0.000000e+000
      outer loop
         vertex -2.500000e+000 1.592945e+001 3.694509e+001
         vertex -2.500000e+000 1.562332e+001 3.665169e+001
         vertex -2.500000e+000 2.500000e+000 5.000000e+001
      endloop
   endfacet
   facet normal -1.000000e+000 0.000000e+000 0.000000e+000
      outer loop
         vertex -2.500000e+000 2.500000e+000 5.000000e+001
         vertex -2.500000e+000 1.562332e+001 3.665169e+001
         vertex -2.500000e+000 1.537118e+001 3.631077e+001
      endloop
   endfacet
   facet normal -1.000000e+000 0.000000e+000 0.000000e+000
      outer loop
         vertex -2.500000e+000 2.500000e+000 5.000000e+001
         vertex -2.500000e+000 1.537118e+001 3.631077e+001
         vertex -2.500000e+000 1.518028e+001 3.593214e+001
      endloop
   endfacet
   facet normal -1.000000e+000 0.000000e+000 0.000000e+000
      outer loop
         vertex -2.500000e+000 2.500000e+000 2.000000e+001
         vertex -2.500000e+000 1.510958e+001 3.426794e+001
         vertex -2.500000e+000 1.526768e+001 3.387449e+001
      endloop
   endfacet
   facet normal -1.000000e+000 0.000000e+000 0.000000e+000
      outer loop
         vertex -2.500000e+000 1.852975e+001 3.272193e+001
         vertex -2.500000e+000 1.889994e+001 3.292873e+001
         vertex -2.500000e+000 3.250000e+001 2.000000e+001
      endloop
   endfacet
   facet normal -1.000000e+000 0.000000e+000 0.000000e+000
      outer loop
         vertex -2.500000e+000 3.250000e+001 2.000000e+001
         vertex -2.500000e+000 1.889994e+001 3.292873e+001
         vertex -2.500000e+000 1.922985e+001 3.319511e+001
      endloop
   endfacet
   facet normal -1.000000e+000 0.000000e+000 0.000000e+000
      outer loop
         vertex -2.500000e+000 3.250000e+001 2.000000e+001
         vertex -2.500000e+000 1.922985e+001 3.319511e+001
         vertex -2.500000e+000 1.950999e+001 3.351342e+001
      endloop
   endfacet
   facet normal -1.000000e+000 0.000000e+000 0.000000e+000
      outer loop
         vertex -2.500000e+000 1.973232e+001 3.387449e+001
         vertex -2.500000e+000 1.989042e+001 3.426794e+001
         vertex -2.500000e+000 3.250000e+001 2.000000e+001
      endloop
   endfacet
   facet normal -1.000000e+000 0.000000e+000 0.000000e+000
      outer loop
         vertex -2.500000e+000 3.250000e+001 2.000000e+001
         vertex -2.500000e+000 1.989042e+001 3.426794e+001
         vertex -2.500000e+000 1.997975e+001 3.468246e+001
      endloop
   endfacet
   facet normal -1.000000e+000 0.000000e+000 0.000000e+000
      outer loop
         vertex -2.500000e+000 3.250000e+001 2.000000e+001
         vertex -2.500000e+000 1.997975e+001 3.468246e+001
         vertex -2.500000e+000 3.250000e+001 5.000000e+001
      endloop
   endfacet
   facet normal -1.000000e+000 0.000000e+000 0.000000e+000
      outer loop
         vertex -2.500000e+000 3.250000e+001 5.000000e+001
         vertex -2.500000e+000 1.997975e+001 3.468246e+001
         vertex -2.500000e+000 1.999775e+001 3.510610e+001
      endloop
   endfacet
   facet normal -1.000000e+000 0.000000e+000 0.000000e+000
      outer loop
         vertex -2.500000e+000 3.250000e+001 5.000000e+001
         vertex -2.500000e+000 1.999775e+001 3.510610e+001
         vertex -2.500000e+000 1.994389e+001 3.552670e+001
      endloop
   endfacet
   facet normal -1.000000e+000 0.000000e+000 0.000000e+000
      outer loop
         vertex -2.500000e+000 1.994389e+001 3.552670e+001
         vertex -2.500000e+000 1.981972e+001 3.593214e+001
         vertex -2.500000e+000 3.250000e+001 5.000000e+001
      endloop
   endfacet
   facet normal -1.000000e+000 0.000000e+000 0.000000e+000
      outer loop
         vertex -2.500000e+000 3.250000e+001 5.000000e+001
         vertex -2.500000e+000 1.981972e+001 3.593214e+001
         vertex -2.500000e+000 1.962882e+001 3.631077e+001
      endloop
   endfacet
   facet normal -1.000000e+000 0.000000e+000 0.000000e+000
      outer loop
         vertex -2.500000e+000 3.250000e+001 5.000000e+001
         vertex -2.500000e+000 1.962882e+001 3.631077e+001
         vertex -2.500000e+000 1.937668e+001 3.665169e+001
      endloop
   endfacet
   facet normal -1.000000e+000 0.000000e+000 0.000000e+000
      outer loop
         vertex -2.500000e+000 1.937668e+001 3.665169e+001
         vertex -2.500000e+000 1.907055e+001 3.694509e+001
         vertex -2.500000e+000 3.250000e+001 5.000000e+001
      endloop
   endfacet
   facet normal -1.000000e+000 0.000000e+000 0.000000e+000
      outer loop
         vertex -2.500000e+000 3.250000e+001 5.000000e+001
         vertex -2.500000e+000 1.907055e+001 3.694509e+001
         vertex -2.500000e+000 1.871924e+001 3.718254e+001
      endloop
   endfacet
   facet normal -1.000000e+000 0.000000e+000 0.000000e+000
      outer loop
         vertex -2.500000e+000 3.250000e+001 5.000000e+001
         vertex -2.500000e+000 1.871924e+001 3.718254e+001
         vertex -2.500000e+000 1.833285e+001 3.735719e+001
      endloop
   endfacet
   facet normal -1.000000e+000 0.000000e+000 0.000000e+000
      outer loop
         vertex -2.500000e+000 1.833285e+001 3.735719e+001
         vertex -2.500000e+000 1.792250e+001 3.746404e+001
         vertex -2.500000e+000 3.250000e+001 5.000000e+001
      endloop
   endfacet
   facet normal -1.000000e+000 0.000000e+000 0.000000e+000
      outer loop
         vertex -2.500000e+000 3.250000e+001 5.000000e+001
         vertex -2.500000e+000 1.792250e+001 3.746404e+001
         vertex -2.500000e+000 1.750000e+001 3.750000e+001
      endloop
   endfacet
   facet normal -1.000000e+000 0.000000e+000 0.000000e+000
      outer loop
         vertex -2.500000e+000 3.250000e+001 5.000000e+001
         vertex -2.500000e+000 1.750000e+001 3.750000e+001
         vertex -2.500000e+000 2.500000e+000 5.000000e+001
      endloop
   endfacet
   facet normal -1.000000e+000 0.000000e+000 0.000000e+000
      outer loop
         vertex -2.500000e+000 2.500000e+000 5.000000e+001
         vertex -2.500000e+000 1.750000e+001 3.750000e+001
         vertex -2.500000e+000 1.707750e+001 3.746404e+001
      endloop
   endfacet
   facet normal -1.000000e+000 0.000000e+000 0.000000e+000
      outer loop
         vertex -2.500000e+000 2.500000e+000 5.000000e+001
         vertex -2.500000e+000 1.707750e+001 3.746404e+001
         vertex -2.500000e+000 1.666715e+001 3.735719e+001
      endloop
   endfacet
   facet normal -1.000000e+000 0.000000e+000 0.000000e+000
      outer loop
         vertex -2.500000e+000 1.518028e+001 3.593214e+001
         vertex -2.500000e+000 1.505611e+001 3.552670e+001
         vertex -2.500000e+000 2.500000e+000 5.000000e+001
      endloop
   endfacet
   facet normal -1.000000e+000 0.000000e+000 0.000000e+000
      outer loop
         vertex -2.500000e+000 2.500000e+000 5.000000e+001
         vertex -2.500000e+000 1.505611e+001 3.552670e+001
         vertex -2.500000e+000 1.500225e+001 3.510610e+001
      endloop
   endfacet
   facet normal -1.000000e+000 0.000000e+000 0.000000e+000
      outer loop
         vertex -2.500000e+000 2.500000e+000 5.000000e+001
         vertex -2.500000e+000 1.500225e+001 3.510610e+001
         vertex -2.500000e+000 2.500000e+000 2.000000e+001
      endloop
   endfacet
   facet normal -1.000000e+000 0.000000e+000 0.000000e+000
      outer loop
         vertex -2.500000e+000 2.500000e+000 2.000000e+001
         vertex -2.500000e+000 1.500225e+001 3.510610e+001
         vertex -2.500000e+000 1.502025e+001 3.468246e+001
      endloop
   endfacet
   facet normal -1.000000e+000 0.000000e+000 0.000000e+000
      outer loop
         vertex -2.500000e+000 2.500000e+000 2.000000e+001
         vertex -2.500000e+000 1.502025e+001 3.468246e+001
         vertex -2.500000e+000 1.510958e+001 3.426794e+001
      endloop
   endfacet
   facet normal -1.000000e+000 0.000000e+000 0.000000e+000
      outer loop
         vertex -2.500000e+000 1.526768e+001 3.387449e+001
         vertex -2.500000e+000 1.549001e+001 3.351342e+001
         vertex -2.500000e+000 2.500000e+000 2.000000e+001
      endloop
   endfacet
   facet normal -1.000000e+000 0.000000e+000 0.000000e+000
      outer loop
         vertex -2.500000e+000 2.500000e+000 2.000000e+001
         vertex -2.500000e+000 1.549001e+001 3.351342e+001
         vertex -2.500000e+000 1.577015e+001 3.319511e+001
      endloop
   endfacet
   facet normal -1.000000e+000 0.000000e+000 0.000000e+000
      outer loop
         vertex -2.500000e+000 2.500000e+000 2.000000e+001
         vertex -2.500000e+000 1.577015e+001 3.319511e+001
         vertex -2.500000e+000 1.610006e+001 3.292873e+001
      endloop
   endfacet
   facet normal -1.000000e+000 0.000000e+000 0.000000e+000
      outer loop
         vertex -2.500000e+000 1.687006e+001 3.258067e+001
         vertex -2.500000e+000 1.728798e+001 3.250901e+001
         vertex -2.500000e+000 2.500000e+000 2.000000e+001
      endloop
   endfacet
   facet normal -1.000000e+000 0.000000e+000 0.000000e+000
      outer loop
         vertex -2.500000e+000 2.500000e+000 2.000000e+001
         vertex -2.500000e+000 1.728798e+001 3.250901e+001
         vertex -2.500000e+000 1.750000e+001 3.250000e+001
      endloop
   endfacet
   facet normal -1.000000e+000 0.000000e+000 0.000000e+000
      outer loop
         vertex -2.500000e+000 2.500000e+000 2.000000e+001
         vertex -2.500000e+000 1.750000e+001 3.250000e+001
         vertex -2.500000e+000 3.250000e+001 2.000000e+001
      endloop
   endfacet
   facet normal -1.000000e+000 0.000000e+000 0.000000e+000
      outer loop
         vertex -2.500000e+000 3.250000e+001 2.000000e+001
         vertex -2.500000e+000 1.750000e+001 3.250000e+001
         vertex -2.500000e+000 1.771202e+001 3.250901e+001
      endloop
   endfacet
   facet normal -1.000000e+000 0.000000e+000 0.000000e+000
      outer loop
         vertex -2.500000e+000 3.250000e+001 2.000000e+001
         vertex -2.500000e+000 1.771202e+001 3.250901e+001
         vertex -2.500000e+000 1.812994e+001 3.258067e+001
      endloop
   endfacet
   facet normal 0.000000e+000 1.000000e+000 0.000000e+000
      outer loop
         vertex -2.500000e+000 3.250000e+001 2.000000e+001
         vertex -2.500000e+000 3.250000e+001 5.000000e+001
         vertex 2.500000e+000 3.250000e+001 2.000000e+001
      endloop
   endfacet
   facet normal 0.000000e+000 1.000000e+000 0.000000e+000
      outer loop
         vertex 2.500000e+000 3.250000e+001 2.000000e+001
         vertex -2.500000e+000 3.250000e+001 5.000000e+001
         vertex 2.500000e+000 3.250000e+001 5.000000e+001
      endloop
   endfacet
   facet normal 0.000000e+000 -1.409813e-001 9.900123e-001
      outer loop
         vertex -2.500000e+000 1.812994e+001 3.258067e+001
         vertex -2.500000e+000 1.771202e+001 3.250901e+001
         vertex 2.500000e+000 1.771202e+001 3.250901e+001
      endloop
   endfacet
   facet normal 0.000000e+000 -5.658260e-002 9.983979e-001
      outer loop
         vertex 2.500000e+000 1.771202e+001 3.250901e+001
         vertex -2.500000e+000 1.771202e+001 3.250901e+001
         vertex -2.500000e+000 1.750000e+001 3.250000e+001
      endloop
   endfacet
   facet normal 0.000000e+000 0.000000e+000 1.000000e+000
      outer loop
         vertex 2.500000e+000 1.771202e+001 3.250901e+001
         vertex -2.500000e+000 1.750000e+001 3.250000e+001
         vertex 2.500000e+000 1.728798e+001 3.250901e+001
      endloop
   endfacet
   facet normal 0.000000e+000 5.658260e-002 9.983979e-001
      outer loop
         vertex 2.500000e+000 1.728798e+001 3.250901e+001
         vertex -2.500000e+000 1.750000e+001 3.250000e+001
         vertex -2.500000e+000 1.728798e+001 3.250901e+001
      endloop
   endfacet
   facet normal 0.000000e+000 1.409813e-001 9.900123e-001
      outer loop
         vertex 2.500000e+000 1.728798e+001 3.250901e+001
         vertex -2.500000e+000 1.728798e+001 3.250901e+001
         vertex 2.500000e+000 1.687006e+001 3.258067e+001
      endloop
   endfacet
   facet normal 0.000000e+000 1.968844e-001 9.804267e-001
      outer loop
         vertex 2.500000e+000 1.687006e+001 3.258067e+001
         vertex -2.500000e+000 1.728798e+001 3.250901e+001
         vertex -2.500000e+000 1.687006e+001 3.258067e+001
      endloop
   endfacet
   facet normal 0.000000e+000 3.062663e-001 9.519458e-001
      outer loop
         vertex 2.500000e+000 1.687006e+001 3.258067e+001
         vertex -2.500000e+000 1.687006e+001 3.258067e+001
         vertex 2.500000e+000 1.647025e+001 3.272193e+001
      endloop
   endfacet
   facet normal 0.000000e+000 3.597453e-001 9.330506e-001
      outer loop
         vertex 2.500000e+000 1.647025e+001 3.272193e+001
         vertex -2.500000e+000 1.687006e+001 3.258067e+001
         vertex -2.500000e+000 1.647025e+001 3.272193e+001
      endloop
   endfacet
   facet normal 0.000000e+000 4.627406e-001 8.864937e-001
      outer loop
         vertex 2.500000e+000 1.647025e+001 3.272193e+001
         vertex -2.500000e+000 1.647025e+001 3.272193e+001
         vertex 2.500000e+000 1.610006e+001 3.292873e+001
      endloop
   endfacet
   facet normal 0.000000e+000 5.122570e-001 8.588322e-001
      outer loop
         vertex 2.500000e+000 1.610006e+001 3.292873e+001
         vertex -2.500000e+000 1.647025e+001 3.272193e+001
         vertex -2.500000e+000 1.610006e+001 3.292873e+001
      endloop
   endfacet
   facet normal 0.000000e+000 6.059027e-001 7.955388e-001
      outer loop
         vertex 2.500000e+000 1.610006e+001 3.292873e+001
         vertex -2.500000e+000 1.610006e+001 3.292873e+001
         vertex 2.500000e+000 1.577015e+001 3.319511e+001
      endloop
   endfacet
   facet normal 0.000000e+000 6.500320e-001 7.599069e-001
      outer loop
         vertex 2.500000e+000 1.577015e+001 3.319511e+001
         vertex -2.500000e+000 1.610006e+001 3.292873e+001
         vertex -2.500000e+000 1.577015e+001 3.319511e+001
      endloop
   endfacet
   facet normal 0.000000e+000 7.316340e-001 6.816977e-001
      outer loop
         vertex 2.500000e+000 1.577015e+001 3.319511e+001
         vertex -2.500000e+000 1.577015e+001 3.319511e+001
         vertex 2.500000e+000 1.549001e+001 3.351342e+001
      endloop
   endfacet
   facet normal 0.000000e+000 7.691067e-001 6.391203e-001
      outer loop
         vertex 2.500000e+000 1.549001e+001 3.351342e+001
         vertex -2.500000e+000 1.577015e+001 3.319511e+001
         vertex -2.500000e+000 1.549001e+001 3.351342e+001
      endloop
   endfacet
   facet normal 0.000000e+000 8.363176e-001 5.482453e-001
      outer loop
         vertex 2.500000e+000 1.549001e+001 3.351342e+001
         vertex -2.500000e+000 1.549001e+001 3.351342e+001
         vertex 2.500000e+000 1.526768e+001 3.387449e+001
      endloop
   endfacet
   facet normal 0.000000e+000 8.660557e-001 4.999475e-001
      outer loop
         vertex 2.500000e+000 1.526768e+001 3.387449e+001
         vertex -2.500000e+000 1.549001e+001 3.351342e+001
         vertex -2.500000e+000 1.526768e+001 3.387449e+001
      endloop
   endfacet
   facet normal 0.000000e+000 9.169418e-001 3.990209e-001
      outer loop
         vertex 2.500000e+000 1.526768e+001 3.387449e+001
         vertex -2.500000e+000 1.526768e+001 3.387449e+001
         vertex 2.500000e+000 1.510958e+001 3.426794e+001
      endloop
   endfacet
   facet normal 0.000000e+000 9.380898e-001 3.463921e-001
      outer loop
         vertex 2.500000e+000 1.510958e+001 3.426794e+001
         vertex -2.500000e+000 1.526768e+001 3.387449e+001
         vertex -2.500000e+000 1.510958e+001 3.426794e+001
      endloop
   endfacet
   facet normal 0.000000e+000 9.711873e-001 2.383175e-001
      outer loop
         vertex 2.500000e+000 1.510958e+001 3.426794e+001
         vertex -2.500000e+000 1.510958e+001 3.426794e+001
         vertex 2.500000e+000 1.502025e+001 3.468246e+001
      endloop
   endfacet
   facet normal 0.000000e+000 9.831368e-001 1.828716e-001
      outer loop
         vertex 2.500000e+000 1.502025e+001 3.468246e+001
         vertex -2.500000e+000 1.510958e+001 3.426794e+001
         vertex -2.500000e+000 1.502025e+001 3.468246e+001
      endloop
   endfacet
   facet normal 0.000000e+000 9.974935e-001 7.075802e-002
      outer loop
         vertex 2.500000e+000 1.502025e+001 3.468246e+001
         vertex -2.500000e+000 1.502025e+001 3.468246e+001
         vertex 2.500000e+000 1.500225e+001 3.510610e+001
      endloop
   endfacet
   facet normal 0.000000e+000 9.999007e-001 1.409025e-002
      outer loop
         vertex 2.500000e+000 1.500225e+001 3.510610e+001
         vertex -2.500000e+000 1.502025e+001 3.468246e+001
         vertex -2.500000e+000 1.500225e+001 3.510610e+001
      endloop
   endfacet
   facet normal 0.000000e+000 9.951036e-001 -9.883699e-002
      outer loop
         vertex 2.500000e+000 1.500225e+001 3.510610e+001
         vertex -2.500000e+000 1.500225e+001 3.510610e+001
         vertex 2.500000e+000 1.505611e+001 3.552670e+001
      endloop
   endfacet
   facet normal 0.000000e+000 9.878993e-001 -1.550965e-001
      outer loop
         vertex 2.500000e+000 1.505611e+001 3.552670e+001
         vertex -2.500000e+000 1.500225e+001 3.510610e+001
         vertex -2.500000e+000 1.505611e+001 3.552670e+001
      endloop
   endfacet
   facet normal 0.000000e+000 9.640865e-001 -2.655886e-001
      outer loop
         vertex 2.500000e+000 1.505611e+001 3.552670e+001
         vertex -2.500000e+000 1.505611e+001 3.552670e+001
         vertex 2.500000e+000 1.518028e+001 3.593214e+001
      endloop
   endfacet
   facet normal 0.000000e+000 9.474779e-001 -3.198213e-001
      outer loop
         vertex 2.500000e+000 1.518028e+001 3.593214e+001
         vertex -2.500000e+000 1.505611e+001 3.552670e+001
         vertex -2.500000e+000 1.518028e+001 3.593214e+001
      endloop
   endfacet
   facet normal 0.000000e+000 9.053342e-001 -4.246998e-001
      outer loop
         vertex 2.500000e+000 1.518028e+001 3.593214e+001
         vertex -2.500000e+000 1.518028e+001 3.593214e+001
         vertex 2.500000e+000 1.537118e+001 3.631077e+001
      endloop
   endfacet
   facet normal 0.000000e+000 8.797992e-001 -4.753455e-001
      outer loop
         vertex 2.500000e+000 1.537118e+001 3.631077e+001
         vertex -2.500000e+000 1.518028e+001 3.593214e+001
         vertex -2.500000e+000 1.537118e+001 3.631077e+001
      endloop
   endfacet
   facet normal 0.000000e+000 8.205372e-001 -5.715931e-001
      outer loop
         vertex 2.500000e+000 1.537118e+001 3.631077e+001
         vertex -2.500000e+000 1.537118e+001 3.631077e+001
         vertex 2.500000e+000 1.562332e+001 3.665169e+001
      endloop
   endfacet
   facet normal 0.000000e+000 7.868103e-001 -6.171949e-001
      outer loop
         vertex 2.500000e+000 1.562332e+001 3.665169e+001
         vertex -2.500000e+000 1.537118e+001 3.631077e+001
         vertex -2.500000e+000 1.562332e+001 3.665169e+001
      endloop
   endfacet
   facet normal 0.000000e+000 7.121348e-001 -7.020428e-001
      outer loop
         vertex 2.500000e+000 1.562332e+001 3.665169e+001
         vertex -2.500000e+000 1.562332e+001 3.665169e+001
         vertex 2.500000e+000 1.592945e+001 3.694509e+001
      endloop
   endfacet
   facet normal 0.000000e+000 6.711863e-001 -7.412888e-001
      outer loop
         vertex 2.500000e+000 1.592945e+001 3.694509e+001
         vertex -2.500000e+000 1.562332e+001 3.665169e+001
         vertex -2.500000e+000 1.592945e+001 3.694509e+001
      endloop
   endfacet
   facet normal 0.000000e+000 5.832456e-001 -8.122959e-001
      outer loop
         vertex 2.500000e+000 1.592945e+001 3.694509e+001
         vertex -2.500000e+000 1.592945e+001 3.694509e+001
         vertex 2.500000e+000 1.628076e+001 3.718254e+001
      endloop
   endfacet
   facet normal 0.000000e+000 5.362535e-001 -8.440570e-001
      outer loop
         vertex 2.500000e+000 1.628076e+001 3.718254e+001
         vertex -2.500000e+000 1.592945e+001 3.694509e+001
         vertex -2.500000e+000 1.628076e+001 3.718254e+001
      endloop
   endfacet
   facet normal 0.000000e+000 4.375775e-001 -8.991807e-001
      outer loop
         vertex 2.500000e+000 1.628076e+001 3.718254e+001
         vertex -2.500000e+000 1.628076e+001 3.718254e+001
         vertex 2.500000e+000 1.666715e+001 3.735719e+001
      endloop
   endfacet
   facet normal 0.000000e+000 3.858936e-001 -9.225433e-001
      outer loop
         vertex 2.500000e+000 1.666715e+001 3.735719e+001
         vertex -2.500000e+000 1.628076e+001 3.718254e+001
         vertex -2.500000e+000 1.666715e+001 3.735719e+001
      endloop
   endfacet
   facet normal 0.000000e+000 2.793211e-001 -9.601977e-001
      outer loop
         vertex 2.500000e+000 1.666715e+001 3.735719e+001
         vertex -2.500000e+000 1.666715e+001 3.735719e+001
         vertex 2.500000e+000 1.707750e+001 3.746404e+001
      endloop
   endfacet
   facet normal 0.000000e+000 2.244324e-001 -9.744897e-001
      outer loop
         vertex 2.500000e+000 1.707750e+001 3.746404e+001
         vertex -2.500000e+000 1.666715e+001 3.735719e+001
         vertex -2.500000e+000 1.707750e+001 3.746404e+001
      endloop
   endfacet
   facet normal 0.000000e+000 1.130291e-001 -9.935917e-001
      outer loop
         vertex 2.500000e+000 1.707750e+001 3.746404e+001
         vertex -2.500000e+000 1.707750e+001 3.746404e+001
         vertex 2.500000e+000 1.750000e+001 3.750000e+001
      endloop
   endfacet
   facet normal 0.000000e+000 5.651454e-002 -9.984018e-001
      outer loop
         vertex 2.500000e+000 1.750000e+001 3.750000e+001
         vertex -2.500000e+000 1.707750e+001 3.746404e+001
         vertex -2.500000e+000 1.750000e+001 3.750000e+001
      endloop
   endfacet
   facet normal 0.000000e+000 -5.651454e-002 -9.984018e-001
      outer loop
         vertex 2.500000e+000 1.750000e+001 3.750000e+001
         vertex -2.500000e+000 1.750000e+001 3.750000e+001
         vertex 2.500000e+000 1.792250e+001 3.746404e+001
      endloop
   endfacet
   facet normal 0.000000e+000 -1.130291e-001 -9.935917e-001
      outer loop
         vertex 2.500000e+000 1.792250e+001 3.746404e+001
         vertex -2.500000e+000 1.750000e+001 3.750000e+001
         vertex -2.500000e+000 1.792250e+001 3.746404e+001
      endloop
   endfacet
   facet normal 0.000000e+000 -2.244324e-001 -9.744897e-001
      outer loop
         vertex 2.500000e+000 1.792250e+001 3.746404e+001
         vertex -2.500000e+000 1.792250e+001 3.746404e+001
         vertex 2.500000e+000 1.833285e+001 3.735719e+001
      endloop
   endfacet
   facet normal 0.000000e+000 -2.793211e-001 -9.601977e-001
      outer loop
         vertex 2.500000e+000 1.833285e+001 3.735719e+001
         vertex -2.500000e+000 1.792250e+001 3.746404e+001
         vertex -2.500000e+000 1.833285e+001 3.735719e+001
      endloop
   endfacet
   facet normal 0.000000e+000 -3.858936e-001 -9.225433e-001
      outer loop
         vertex 2.500000e+000 1.833285e+001 3.735719e+001
         vertex -2.500000e+000 1.833285e+001 3.735719e+001
         vertex 2.500000e+000 1.871924e+001 3.718254e+001
      endloop
   endfacet
   facet normal 0.000000e+000 -4.375775e-001 -8.991807e-001
      outer loop
         vertex 2.500000e+000 1.871924e+001 3.718254e+001
         vertex -2.500000e+000 1.833285e+001 3.735719e+001
         vertex -2.500000e+000 1.871924e+001 3.718254e+001
      endloop
   endfacet
   facet normal 0.000000e+000 -5.362535e-001 -8.440570e-001
      outer loop
         vertex 2.500000e+000 1.871924e+001 3.718254e+001
         vertex -2.500000e+000 1.871924e+001 3.718254e+001
         vertex 2.500000e+000 1.907055e+001 3.694509e+001
      endloop
   endfacet
   facet normal 0.000000e+000 -5.832456e-001 -8.122959e-001
      outer loop
         vertex 2.500000e+000 1.907055e+001 3.694509e+001
         vertex -2.500000e+000 1.871924e+001 3.718254e+001
         vertex -2.500000e+000 1.907055e+001 3.694509e+001
      endloop
   endfacet
   facet normal 0.000000e+000 -6.711863e-001 -7.412888e-001
      outer loop
         vertex 2.500000e+000 1.907055e+001 3.694509e+001
         vertex -2.500000e+000 1.907055e+001 3.694509e+001
         vertex 2.500000e+000 1.937668e+001 3.665169e+001
      endloop
   endfacet
   facet normal 0.000000e+000 -7.121348e-001 -7.020428e-001
      outer loop
         vertex 2.500000e+000 1.937668e+001 3.665169e+001
         vertex -2.500000e+000 1.907055e+001 3.694509e+001
         vertex -2.500000e+000 1.937668e+001 3.665169e+001
      endloop
   endfacet
   facet normal 0.000000e+000 -7.868103e-001 -6.171949e-001
      outer loop
         vertex 2.500000e+000 1.937668e+001 3.665169e+001
         vertex -2.500000e+000 1.937668e+001 3.665169e+001
         vertex 2.500000e+000 1.962882e+001 3.631077e+001
      endloop
   endfacet
   facet normal 0.000000e+000 -8.205372e-001 -5.715931e-001
      outer loop
         vertex 2.500000e+000 1.962882e+001 3.631077e+001
         vertex -2.500000e+000 1.937668e+001 3.665169e+001
         vertex -2.500000e+000 1.962882e+001 3.631077e+001
      endloop
   endfacet
   facet normal 0.000000e+000 -8.797992e-001 -4.753455e-001
      outer loop
         vertex 2.500000e+000 1.962882e+001 3.631077e+001
         vertex -2.500000e+000 1.962882e+001 3.631077e+001
         vertex 2.500000e+000 1.981972e+001 3.593214e+001
      endloop
   endfacet
   facet normal 0.000000e+000 -9.053342e-001 -4.246998e-001
      outer loop
         vertex 2.500000e+000 1.981972e+001 3.593214e+001
         vertex -2.500000e+000 1.962882e+001 3.631077e+001
         vertex -2.500000e+000 1.981972e+001 3.593214e+001
      endloop
   endfacet
   facet normal 0.000000e+000 -9.474779e-001 -3.198213e-001
      outer loop
         vertex 2.500000e+000 1.981972e+001 3.593214e+001
         vertex -2.500000e+000 1.981972e+001 3.593214e+001
         vertex 2.500000e+000 1.994389e+001 3.552670e+001
      endloop
   endfacet
   facet normal 0.000000e+000 -9.640865e-001 -2.655886e-001
      outer loop
         vertex 2.500000e+000 1.994389e+001 3.552670e+001
         vertex -2.500000e+000 1.981972e+001 3.593214e+001
         vertex -2.500000e+000 1.994389e+001 3.552670e+001
      endloop
   endfacet
   facet normal 0.000000e+000 -9.878993e-001 -1.550965e-001
      outer loop
         vertex 2.500000e+000 1.994389e+001 3.552670e+001
         vertex -2.500000e+000 1.994389e+001 3.552670e+001
         vertex 2.500000e+000 1.999775e+001 3.510610e+001
      endloop
   endfacet
   facet normal 0.000000e+000 -9.951036e-001 -9.883699e-002
      outer loop
         vertex 2.500000e+000 1.999775e+001 3.510610e+001
         vertex -2.500000e+000 1.994389e+001 3.552670e+001
         vertex -2.500000e+000 1.999775e+001 3.510610e+001
      endloop
   endfacet
   facet normal 0.000000e+000 -9.999007e-001 1.409025e-002
      outer loop
         vertex 2.500000e+000 1.999775e+001 3.510610e+001
         vertex -2.500000e+000 1.999775e+001 3.510610e+001
         vertex 2.500000e+000 1.997975e+001 3.468246e+001
      endloop
   endfacet
   facet normal 0.000000e+000 -9.974935e-001 7.075802e-002
      outer loop
         vertex 2.500000e+000 1.997975e+001 3.468246e+001
         vertex -2.500000e+000 1.999775e+001 3.510610e+001
         vertex -2.500000e+000 1.997975e+001 3.468246e+001
      endloop
   endfacet
   facet normal 0.000000e+000 -9.831368e-001 1.828716e-001
      outer loop
         vertex 2.500000e+000 1.997975e+001 3.468246e+001
         vertex -2.500000e+000 1.997975e+001 3.468246e+001
         vertex 2.500000e+000 1.989042e+001 3.426794e+001
      endloop
   endfacet
   facet normal 0.000000e+000 -9.711873e-001 2.383175e-001
      outer loop
         vertex 2.500000e+000 1.989042e+001 3.426794e+001
         vertex -2.500000e+000 1.997975e+001 3.468246e+001
         vertex -2.500000e+000 1.989042e+001 3.426794e+001
      endloop
   endfacet
   facet normal 0.000000e+000 -9.380898e-001 3.463921e-001
      outer loop
         vertex 2.500000e+000 1.989042e+001 3.426794e+001
         vertex -2.500000e+000 1.989042e+001 3.426794e+001
         vertex 2.500000e+000 1.973232e+001 3.387449e+001
      endloop
   endfacet
   facet normal 0.000000e+000 -9.169418e-001 3.990209e-001
      outer loop
         vertex 2.500000e+000 1.973232e+001 3.387449e+001
         vertex -2.500000e+000 1.989042e+001 3.426794e+001
         vertex -2.500000e+000 1.973232e+001 3.387449e+001
      endloop
   endfacet
   facet normal 0.000000e+000 -8.660557e-001 4.999475e-001
      outer loop
         vertex 2.500000e+000 1.973232e+001 3.387449e+001
         vertex -2.500000e+000 1.973232e+001 3.387449e+001
         vertex 2.500000e+000 1.950999e+001 3.351342e+001
      endloop
   endfacet
   facet normal 0.000000e+000 -8.363176e-001 5.482453e-001
      outer loop
         vertex 2.500000e+000 1.950999e+001 3.351342e+001
         vertex -2.500000e+000 1.973232e+001 3.387449e+001
         vertex -2.500000e+000 1.950999e+001 3.351342e+001
      endloop
   endfacet
   facet normal 0.000000e+000 -7.691067e-001 6.391203e-001
      outer loop
         vertex 2.500000e+000 1.950999e+001 3.351342e+001
         vertex -2.500000e+000 1.950999e+001 3.351342e+001
         vertex 2.500000e+000 1.922985e+001 3.319511e+001
      endloop
   endfacet
   facet normal 0.000000e+000 -7.316340e-001 6.816977e-001
      outer loop
         vertex 2.500000e+000 1.922985e+001 3.319511e+001
         vertex -2.500000e+000 1.950999e+001 3.351342e+001
         vertex -2.500000e+000 1.922985e+001 3.319511e+001
      endloop
   endfacet
   facet normal 0.000000e+000 -6.500320e-001 7.599069e-001
      outer loop
         vertex 2.500000e+000 1.922985e+001 3.319511e+001
         vertex -2.500000e+000 1.922985e+001 3.319511e+001
         vertex 2.500000e+000 1.889994e+001 3.292873e+001
      endloop
   endfacet
   facet normal 0.000000e+000 -6.059027e-001 7.955388e-001
      outer loop
         vertex 2.500000e+000 1.889994e+001 3.292873e+001
         vertex -2.500000e+000 1.922985e+001 3.319511e+001
         vertex -2.500000e+000 1.889994e+001 3.292873e+001
      endloop
   endfacet
   facet normal 0.000000e+000 -5.122570e-001 8.588322e-001
      outer loop
         vertex 2.500000e+000 1.889994e+001 3.292873e+001
         vertex -2.500000e+000 1.889994e+001 3.292873e+001
         vertex 2.500000e+000 1.852975e+001 3.272193e+001
      endloop
   endfacet
   facet normal 0.000000e+000 -4.627406e-001 8.864937e-001
      outer loop
         vertex 2.500000e+000 1.852975e+001 3.272193e+001
         vertex -2.500000e+000 1.889994e+001 3.292873e+001
         vertex -2.500000e+000 1.852975e+001 3.272193e+001
      endloop
   endfacet
   facet normal 0.000000e+000 -3.597453e-001 9.330506e-001
      outer loop
         vertex 2.500000e+000 1.852975e+001 3.272193e+001
         vertex -2.500000e+000 1.852975e+001 3.272193e+001
         vertex 2.500000e+000 1.812994e+001 3.258067e+001
      endloop
   endfacet
   facet normal 0.000000e+000 -3.062663e-001 9.519458e-001
      outer loop
         vertex 2.500000e+000 1.812994e+001 3.258067e+001
         vertex -2.500000e+000 1.852975e+001 3.272193e+001
         vertex -2.500000e+000 1.812994e+001 3.258067e+001
      endloop
   endfacet
   facet normal 0.000000e+000 -1.968844e-001 9.804267e-001
      outer loop
         vertex 2.500000e+000 1.812994e+001 3.258067e+001
         vertex -2.500000e+000 1.812994e+001 3.258067e+001
         vertex 2.500000e+000 1.771202e+001 3.250901e+001
      endloop
   endfacet
   facet normal -5.651454e-002 0.000000e+000 -9.984018e-001
      outer loop
         vertex 6.326570e-015 -2.500000e+000 -3.500000e+001
         vertex 6.326570e-015 2.500000e+000 -3.500000e+001
         vertex 4.225020e-001 -2.500000e+000 -3.503596e+001
      endloop
   endfacet
   facet normal -1.130291e-001 0.000000e+000 -9.935917e-001
      outer loop
         vertex 4.225020e-001 -2.500000e+000 -3.503596e+001
         vertex 6.326570e-015 2.500000e+000 -3.500000e+001
         vertex 4.225020e-001 2.500000e+000 -3.503596e+001
      endloop
   endfacet
   facet normal -2.244324e-001 0.000000e+000 -9.744897e-001
      outer loop
         vertex 4.225020e-001 -2.500000e+000 -3.503596e+001
         vertex 4.225020e-001 2.500000e+000 -3.503596e+001
         vertex 8.328495e-001 -2.500000e+000 -3.514281e+001
      endloop
   endfacet
   facet normal -2.793211e-001 0.000000e+000 -9.601977e-001
      outer loop
         vertex 8.328495e-001 -2.500000e+000 -3.514281e+001
         vertex 4.225020e-001 2.500000e+000 -3.503596e+001
         vertex 8.328495e-001 2.500000e+000 -3.514281e+001
      endloop
   endfacet
   facet normal -3.858936e-001 0.000000e+000 -9.225433e-001
      outer loop
         vertex 8.328495e-001 -2.500000e+000 -3.514281e+001
         vertex 8.328495e-001 2.500000e+000 -3.514281e+001
         vertex 1.219237e+000 -2.500000e+000 -3.531747e+001
      endloop
   endfacet
   facet normal -4.375775e-001 0.000000e+000 -8.991807e-001
      outer loop
         vertex 1.219237e+000 -2.500000e+000 -3.531747e+001
         vertex 8.328495e-001 2.500000e+000 -3.514281e+001
         vertex 1.219237e+000 2.500000e+000 -3.531747e+001
      endloop
   endfacet
   facet normal -5.362535e-001 0.000000e+000 -8.440570e-001
      outer loop
         vertex 1.219237e+000 -2.500000e+000 -3.531747e+001
         vertex 1.219237e+000 2.500000e+000 -3.531747e+001
         vertex 1.570550e+000 -2.500000e+000 -3.555491e+001
      endloop
   endfacet
   facet normal -5.832456e-001 0.000000e+000 -8.122959e-001
      outer loop
         vertex 1.570550e+000 -2.500000e+000 -3.555491e+001
         vertex 1.219237e+000 2.500000e+000 -3.531747e+001
         vertex 1.570550e+000 2.500000e+000 -3.555491e+001
      endloop
   endfacet
   facet normal -6.711863e-001 0.000000e+000 -7.412888e-001
      outer loop
         vertex 1.570550e+000 -2.500000e+000 -3.555491e+001
         vertex 1.570550e+000 2.500000e+000 -3.555491e+001
         vertex 1.876681e+000 -2.500000e+000 -3.584831e+001
      endloop
   endfacet
   facet normal -7.121348e-001 0.000000e+000 -7.020428e-001
      outer loop
         vertex 1.876681e+000 -2.500000e+000 -3.584831e+001
         vertex 1.570550e+000 2.500000e+000 -3.555491e+001
         vertex 1.876681e+000 2.500000e+000 -3.584831e+001
      endloop
   endfacet
   facet normal -7.868103e-001 0.000000e+000 -6.171949e-001
      outer loop
         vertex 1.876681e+000 -2.500000e+000 -3.584831e+001
         vertex 1.876681e+000 2.500000e+000 -3.584831e+001
         vertex 2.128823e+000 -2.500000e+000 -3.618923e+001
      endloop
   endfacet
   facet normal -8.205372e-001 0.000000e+000 -5.715931e-001
      outer loop
         vertex 2.128823e+000 -2.500000e+000 -3.618923e+001
         vertex 1.876681e+000 2.500000e+000 -3.584831e+001
         vertex 2.128823e+000 2.500000e+000 -3.618923e+001
      endloop
   endfacet
   facet normal -8.797992e-001 0.000000e+000 -4.753455e-001
      outer loop
         vertex 2.128823e+000 -2.500000e+000 -3.618923e+001
         vertex 2.128823e+000 2.500000e+000 -3.618923e+001
         vertex 2.319723e+000 -2.500000e+000 -3.656786e+001
      endloop
   endfacet
   facet normal -9.053342e-001 0.000000e+000 -4.246998e-001
      outer loop
         vertex 2.319723e+000 -2.500000e+000 -3.656786e+001
         vertex 2.128823e+000 2.500000e+000 -3.618923e+001
         vertex 2.319723e+000 2.500000e+000 -3.656786e+001
      endloop
   endfacet
   facet normal -9.474779e-001 0.000000e+000 -3.198213e-001
      outer loop
         vertex 2.319723e+000 -2.500000e+000 -3.656786e+001
         vertex 2.319723e+000 2.500000e+000 -3.656786e+001
         vertex 2.443888e+000 -2.500000e+000 -3.697330e+001
      endloop
   endfacet
   facet normal -9.640865e-001 0.000000e+000 -2.655886e-001
      outer loop
         vertex 2.443888e+000 -2.500000e+000 -3.697330e+001
         vertex 2.319723e+000 2.500000e+000 -3.656786e+001
         vertex 2.443888e+000 2.500000e+000 -3.697330e+001
      endloop
   endfacet
   facet normal -9.878993e-001 0.000000e+000 -1.550965e-001
      outer loop
         vertex 2.443888e+000 -2.500000e+000 -3.697330e+001
         vertex 2.443888e+000 2.500000e+000 -3.697330e+001
         vertex 2.497747e+000 -2.500000e+000 -3.739390e+001
      endloop
   endfacet
   facet normal -9.951036e-001 0.000000e+000 -9.883699e-002
      outer loop
         vertex 2.497747e+000 -2.500000e+000 -3.739390e+001
         vertex 2.443888e+000 2.500000e+000 -3.697330e+001
         vertex 2.497747e+000 2.500000e+000 -3.739390e+001
      endloop
   endfacet
   facet normal -9.999007e-001 0.000000e+000 1.409025e-002
      outer loop
         vertex 2.497747e+000 -2.500000e+000 -3.739390e+001
         vertex 2.497747e+000 2.500000e+000 -3.739390e+001
         vertex 2.479751e+000 -2.500000e+000 -3.781755e+001
      endloop
   endfacet
   facet normal -9.974935e-001 0.000000e+000 7.075802e-002
      outer loop
         vertex 2.479751e+000 -2.500000e+000 -3.781755e+001
         vertex 2.497747e+000 2.500000e+000 -3.739390e+001
         vertex 2.479751e+000 2.500000e+000 -3.781755e+001
      endloop
   endfacet
   facet normal -9.831368e-001 0.000000e+000 1.828716e-001
      outer loop
         vertex 2.479751e+000 -2.500000e+000 -3.781755e+001
         vertex 2.479751e+000 2.500000e+000 -3.781755e+001
         vertex 2.390417e+000 -2.500000e+000 -3.823206e+001
      endloop
   endfacet
   facet normal -9.711873e-001 0.000000e+000 2.383175e-001
      outer loop
         vertex 2.390417e+000 -2.500000e+000 -3.823206e+001
         vertex 2.479751e+000 2.500000e+000 -3.781755e+001
         vertex 2.390417e+000 2.500000e+000 -3.823206e+001
      endloop
   endfacet
   facet normal -9.380898e-001 0.000000e+000 3.463921e-001
      outer loop
         vertex 2.390417e+000 -2.500000e+000 -3.823206e+001
         vertex 2.390417e+000 2.500000e+000 -3.823206e+001
         vertex 2.232315e+000 -2.500000e+000 -3.862551e+001
      endloop
   endfacet
   facet normal -9.169418e-001 0.000000e+000 3.990209e-001
      outer loop
         vertex 2.232315e+000 -2.500000e+000 -3.862551e+001
         vertex 2.390417e+000 2.500000e+000 -3.823206e+001
         vertex 2.232315e+000 2.500000e+000 -3.862551e+001
      endloop
   endfacet
   facet normal -8.660557e-001 0.000000e+000 4.999475e-001
      outer loop
         vertex 2.232315e+000 -2.500000e+000 -3.862551e+001
         vertex 2.232315e+000 2.500000e+000 -3.862551e+001
         vertex 2.009993e+000 -2.500000e+000 -3.898658e+001
      endloop
   endfacet
   facet normal -8.363176e-001 0.000000e+000 5.482453e-001
      outer loop
         vertex 2.009993e+000 -2.500000e+000 -3.898658e+001
         vertex 2.232315e+000 2.500000e+000 -3.862551e+001
         vertex 2.009993e+000 2.500000e+000 -3.898658e+001
      endloop
   endfacet
   facet normal -7.691067e-001 0.000000e+000 6.391203e-001
      outer loop
         vertex 2.009993e+000 -2.500000e+000 -3.898658e+001
         vertex 2.009993e+000 2.500000e+000 -3.898658e+001
         vertex 1.729847e+000 -2.500000e+000 -3.930489e+001
      endloop
   endfacet
   facet normal -7.316340e-001 0.000000e+000 6.816977e-001
      outer loop
         vertex 1.729847e+000 -2.500000e+000 -3.930489e+001
         vertex 2.009993e+000 2.500000e+000 -3.898658e+001
         vertex 1.729847e+000 2.500000e+000 -3.930489e+001
      endloop
   endfacet
   facet normal -6.500320e-001 0.000000e+000 7.599069e-001
      outer loop
         vertex 1.729847e+000 -2.500000e+000 -3.930489e+001
         vertex 1.729847e+000 2.500000e+000 -3.930489e+001
         vertex 1.399937e+000 -2.500000e+000 -3.957127e+001
      endloop
   endfacet
   facet normal -6.059027e-001 0.000000e+000 7.955388e-001
      outer loop
         vertex 1.399937e+000 -2.500000e+000 -3.957127e+001
         vertex 1.729847e+000 2.500000e+000 -3.930489e+001
         vertex 1.399937e+000 2.500000e+000 -3.957127e+001
      endloop
   endfacet
   facet normal -5.122570e-001 0.000000e+000 8.588322e-001
      outer loop
         vertex 1.399937e+000 -2.500000e+000 -3.957127e+001
         vertex 1.399937e+000 2.500000e+000 -3.957127e+001
         vertex 1.029753e+000 -2.500000e+000 -3.977807e+001
      endloop
   endfacet
   facet normal -4.627406e-001 0.000000e+000 8.864937e-001
      outer loop
         vertex 1.029753e+000 -2.500000e+000 -3.977807e+001
         vertex 1.399937e+000 2.500000e+000 -3.957127e+001
         vertex 1.029753e+000 2.500000e+000 -3.977807e+001
      endloop
   endfacet
   facet normal -3.597453e-001 0.000000e+000 9.330506e-001
      outer loop
         vertex 1.029753e+000 -2.500000e+000 -3.977807e+001
         vertex 1.029753e+000 2.500000e+000 -3.977807e+001
         vertex 6.299452e-001 -2.500000e+000 -3.991933e+001
      endloop
   endfacet
   facet normal -3.062663e-001 0.000000e+000 9.519458e-001
      outer loop
         vertex 6.299452e-001 -2.500000e+000 -3.991933e+001
         vertex 1.029753e+000 2.500000e+000 -3.977807e+001
         vertex 6.299452e-001 2.500000e+000 -3.991933e+001
      endloop
   endfacet
   facet normal -1.968844e-001 0.000000e+000 9.804267e-001
      outer loop
         vertex 6.299452e-001 -2.500000e+000 -3.991933e+001
         vertex 6.299452e-001 2.500000e+000 -3.991933e+001
         vertex 2.120148e-001 -2.500000e+000 -3.999099e+001
      endloop
   endfacet
   facet normal -1.409813e-001 0.000000e+000 9.900123e-001
      outer loop
         vertex 2.120148e-001 -2.500000e+000 -3.999099e+001
         vertex 6.299452e-001 2.500000e+000 -3.991933e+001
         vertex 2.120148e-001 2.500000e+000 -3.999099e+001
      endloop
   endfacet
   facet normal -2.835944e-002 0.000000e+000 9.995977e-001
      outer loop
         vertex 2.120148e-001 -2.500000e+000 -3.999099e+001
         vertex 2.120148e-001 2.500000e+000 -3.999099e+001
         vertex -2.120148e-001 -2.500000e+000 -3.999099e+001
      endloop
   endfacet
   facet normal 2.835944e-002 0.000000e+000 9.995977e-001
      outer loop
         vertex -2.120148e-001 -2.500000e+000 -3.999099e+001
         vertex 2.120148e-001 2.500000e+000 -3.999099e+001
         vertex -2.120148e-001 2.500000e+000 -3.999099e+001
      endloop
   endfacet
   facet normal 1.409813e-001 0.000000e+000 9.900123e-001
      outer loop
         vertex -2.120148e-001 -2.500000e+000 -3.999099e+001
         vertex -2.120148e-001 2.500000e+000 -3.999099e+001
         vertex -6.299452e-001 -2.500000e+000 -3.991933e+001
      endloop
   endfacet
   facet normal 1.968844e-001 0.000000e+000 9.804267e-001
      outer loop
         vertex -6.299452e-001 -2.500000e+000 -3.991933e+001
         vertex -2.120148e-001 2.500000e+000 -3.999099e+001
         vertex -6.299452e-001 2.500000e+000 -3.991933e+001
      endloop
   endfacet
   facet normal 3.062663e-001 0.000000e+000 9.519458e-001
      outer loop
         vertex -6.299452e-001 -2.500000e+000 -3.991933e+001
         vertex -6.299452e-001 2.500000e+000 -3.991933e+001
         vertex -1.029753e+000 -2.500000e+000 -3.977807e+001
      endloop
   endfacet
   facet normal 3.597453e-001 0.000000e+000 9.330506e-001
      outer loop
         vertex -1.029753e+000 -2.500000e+000 -3.977807e+001
         vertex -6.299452e-001 2.500000e+000 -3.991933e+001
         vertex -1.029753e+000 2.500000e+000 -3.977807e+001
      endloop
   endfacet
   facet normal 4.627406e-001 0.000000e+000 8.864937e-001
      outer loop
         vertex -1.029753e+000 -2.500000e+000 -3.977807e+001
         vertex -1.029753e+000 2.500000e+000 -3.977807e+001
         vertex -1.399937e+000 -2.500000e+000 -3.957127e+001
      endloop
   endfacet
   facet normal 5.122570e-001 0.000000e+000 8.588322e-001
      outer loop
         vertex -1.399937e+000 -2.500000e+000 -3.957127e+001
         vertex -1.029753e+000 2.500000e+000 -3.977807e+001
         vertex -1.399937e+000 2.500000e+000 -3.957127e+001
      endloop
   endfacet
   facet normal 6.059027e-001 0.000000e+000 7.955388e-001
      outer loop
         vertex -1.399937e+000 -2.500000e+000 -3.957127e+001
         vertex -1.399937e+000 2.500000e+000 -3.957127e+001
         vertex -1.729847e+000 -2.500000e+000 -3.930489e+001
      endloop
   endfacet
   facet normal 6.500320e-001 0.000000e+000 7.599069e-001
      outer loop
         vertex -1.729847e+000 -2.500000e+000 -3.930489e+001
         vertex -1.399937e+000 2.500000e+000 -3.957127e+001
         vertex -1.729847e+000 2.500000e+000 -3.930489e+001
      endloop
   endfacet
   facet normal 7.316340e-001 0.000000e+000 6.816977e-001
      outer loop
         vertex -1.729847e+000 -2.500000e+000 -3.930489e+001
         vertex -1.729847e+000 2.500000e+000 -3.930489e+001
         vertex -2.009993e+000 -2.500000e+000 -3.898658e+001
      endloop
   endfacet
   facet normal 7.691067e-001 0.000000e+000 6.391203e-001
      outer loop
         vertex -2.009993e+000 -2.500000e+000 -3.898658e+001
         vertex -1.729847e+000 2.500000e+000 -3.930489e+001
         vertex -2.009993e+000 2.500000e+000 -3.898658e+001
      endloop
   endfacet
   facet normal 8.363176e-001 0.000000e+000 5.482453e-001
      outer loop
         vertex -2.009993e+000 -2.500000e+000 -3.898658e+001
         vertex -2.009993e+000 2.500000e+000 -3.898658e+001
         vertex -2.232315e+000 -2.500000e+000 -3.862551e+001
      endloop
   endfacet
   facet normal 8.660557e-001 0.000000e+000 4.999475e-001
      outer loop
         vertex -2.232315e+000 -2.500000e+000 -3.862551e+001
         vertex -2.009993e+000 2.500000e+000 -3.898658e+001
         vertex -2.232315e+000 2.500000e+000 -3.862551e+001
      endloop
   endfacet
   facet normal 9.169418e-001 0.000000e+000 3.990209e-001
      outer loop
         vertex -2.232315e+000 -2.500000e+000 -3.862551e+001
         vertex -2.232315e+000 2.500000e+000 -3.862551e+001
         vertex -2.390417e+000 -2.500000e+000 -3.823206e+001
      endloop
   endfacet
   facet normal 9.380898e-001 0.000000e+000 3.463921e-001
      outer loop
         vertex -2.390417e+000 -2.500000e+000 -3.823206e+001
         vertex -2.232315e+000 2.500000e+000 -3.862551e+001
         vertex -2.390417e+000 2.500000e+000 -3.823206e+001
      endloop
   endfacet
   facet normal 9.711873e-001 0.000000e+000 2.383175e-001
      outer loop
         vertex -2.390417e+000 -2.500000e+000 -3.823206e+001
         vertex -2.390417e+000 2.500000e+000 -3.823206e+001
         vertex -2.479751e+000 -2.500000e+000 -3.781755e+001
      endloop
   endfacet
   facet normal 9.831368e-001 0.000000e+000 1.828716e-001
      outer loop
         vertex -2.479751e+000 -2.500000e+000 -3.781755e+001
         vertex -2.390417e+000 2.500000e+000 -3.823206e+001
         vertex -2.479751e+000 2.500000e+000 -3.781755e+001
      endloop
   endfacet
   facet normal 9.974935e-001 0.000000e+000 7.075802e-002
      outer loop
         vertex -2.479751e+000 -2.500000e+000 -3.781755e+001
         vertex -2.479751e+000 2.500000e+000 -3.781755e+001
         vertex -2.497747e+000 -2.500000e+000 -3.739390e+001
      endloop
   endfacet
   facet normal 9.999007e-001 0.000000e+000 1.409025e-002
      outer loop
         vertex -2.497747e+000 -2.500000e+000 -3.739390e+001
         vertex -2.479751e+000 2.500000e+000 -3.781755e+001
         vertex -2.497747e+000 2.500000e+000 -3.739390e+001
      endloop
   endfacet
   facet normal 9.951036e-001 0.000000e+000 -9.883699e-002
      outer loop
         vertex -2.497747e+000 -2.500000e+000 -3.739390e+001
         vertex -2.497747e+000 2.500000e+000 -3.739390e+001
         vertex -2.443888e+000 -2.500000e+000 -3.697330e+001
      endloop
   endfacet
   facet normal 9.878993e-001 0.000000e+000 -1.550965e-001
      outer loop
         vertex -2.443888e+000 -2.500000e+000 -3.697330e+001
         vertex -2.497747e+000 2.500000e+000 -3.739390e+001
         vertex -2.443888e+000 2.500000e+000 -3.697330e+001
      endloop
   endfacet
   facet normal 9.640865e-001 0.000000e+000 -2.655886e-001
      outer loop
         vertex -2.443888e+000 -2.500000e+000 -3.697330e+001
         vertex -2.443888e+000 2.500000e+000 -3.697330e+001
         vertex -2.319723e+000 -2.500000e+000 -3.656786e+001
      endloop
   endfacet
   facet normal 9.474779e-001 0.000000e+000 -3.198213e-001
      outer loop
         vertex -2.319723e+000 -2.500000e+000 -3.656786e+001
         vertex -2.443888e+000 2.500000e+000 -3.697330e+001
         vertex -2.319723e+000 2.500000e+000 -3.656786e+001
      endloop
   endfacet
   facet normal 9.053342e-001 0.000000e+000 -4.246998e-001
      outer loop
         vertex -2.319723e+000 -2.500000e+000 -3.656786e+001
         vertex -2.319723e+000 2.500000e+000 -3.656786e+001
         vertex -2.128823e+000 -2.500000e+000 -3.618923e+001
      endloop
   endfacet
   facet normal 8.797992e-001 0.000000e+000 -4.753455e-001
      outer loop
         vertex -2.128823e+000 -2.500000e+000 -3.618923e+001
         vertex -2.319723e+000 2.500000e+000 -3.656786e+001
         vertex -2.128823e+000 2.500000e+000 -3.618923e+001
      endloop
   endfacet
   facet normal 8.205372e-001 0.000000e+000 -5.715931e-001
      outer loop
         vertex -2.128823e+000 -2.500000e+000 -3.618923e+001
         vertex -2.128823e+000 2.500000e+000 -3.618923e+001
         vertex -1.876681e+000 -2.500000e+000 -3.584831e+001
      endloop
   endfacet
   facet normal 7.868103e-001 0.000000e+000 -6.171949e-001
      outer loop
         vertex -1.876681e+000 -2.500000e+000 -3.584831e+001
         vertex -2.128823e+000 2.500000e+000 -3.618923e+001
         vertex -1.876681e+000 2.500000e+000 -3.584831e+001
      endloop
   endfacet
   facet normal 7.121348e-001 0.000000e+000 -7.020428e-001
      outer loop
         vertex -1.876681e+000 -2.500000e+000 -3.584831e+001
         vertex -1.876681e+000 2.500000e+000 -3.584831e+001
         vertex -1.570550e+000 -2.500000e+000 -3.555491e+001
      endloop
   endfacet
   facet normal 6.711863e-001 0.000000e+000 -7.412888e-001
      outer loop
         vertex -1.570550e+000 -2.500000e+000 -3.555491e+001
         vertex -1.876681e+000 2.500000e+000 -3.584831e+001
         vertex -1.570550e+000 2.500000e+000 -3.555491e+001
      endloop
   endfacet
   facet normal 5.832456e-001 0.000000e+000 -8.122959e-001
      outer loop
         vertex -1.570550e+000 -2.500000e+000 -3.555491e+001
         vertex -1.570550e+000 2.500000e+000 -3.555491e+001
         vertex -1.219237e+000 -2.500000e+000 -3.531747e+001
      endloop
   endfacet
   facet normal 5.362535e-001 0.000000e+000 -8.440570e-001
      outer loop
         vertex -1.219237e+000 -2.500000e+000 -3.531747e+001
         vertex -1.570550e+000 2.500000e+000 -3.555491e+001
         vertex -1.219237e+000 2.500000e+000 -3.531747e+001
      endloop
   endfacet
   facet normal 4.375775e-001 0.000000e+000 -8.991807e-001
      outer loop
         vertex -1.219237e+000 -2.500000e+000 -3.531747e+001
         vertex -1.219237e+000 2.500000e+000 -3.531747e+001
         vertex -8.328495e-001 -2.500000e+000 -3.514281e+001
      endloop
   endfacet
   facet normal 3.858936e-001 0.000000e+000 -9.225433e-001
      outer loop
         vertex -8.328495e-001 -2.500000e+000 -3.514281e+001
         vertex -1.219237e+000 2.500000e+000 -3.531747e+001
         vertex -8.328495e-001 2.500000e+000 -3.514281e+001
      endloop
   endfacet
   facet normal 2.793211e-001 0.000000e+000 -9.601977e-001
      outer loop
         vertex -8.328495e-001 -2.500000e+000 -3.514281e+001
         vertex -8.328495e-001 2.500000e+000 -3.514281e+001
         vertex -4.225020e-001 -2.500000e+000 -3.503596e+001
      endloop
   endfacet
   facet normal 2.244324e-001 0.000000e+000 -9.744897e-001
      outer loop
         vertex -4.225020e-001 -2.500000e+000 -3.503596e+001
         vertex -8.328495e-001 2.500000e+000 -3.514281e+001
         vertex -4.225020e-001 2.500000e+000 -3.503596e+001
      endloop
   endfacet
   facet normal 1.130291e-001 0.000000e+000 -9.935917e-001
      outer loop
         vertex -4.225020e-001 -2.500000e+000 -3.503596e+001
         vertex -4.225020e-001 2.500000e+000 -3.503596e+001
         vertex 6.326570e-015 -2.500000e+000 -3.500000e+001
      endloop
   endfacet
   facet normal 5.651454e-002 0.000000e+000 -9.984018e-001
      outer loop
         vertex 6.326570e-015 -2.500000e+000 -3.500000e+001
         vertex -4.225020e-001 2.500000e+000 -3.503596e+001
         vertex 6.326570e-015 2.500000e+000 -3.500000e+001
      endloop
   endfacet
endsolid